<svg xmlns="http://www.w3.org/2000/svg" xml:space="preserve" viewBox="0 0 88 31" fill-rule="evenodd" clip-rule="evenodd" stroke-linejoin="round" stroke-miterlimit="2"><path d="M35 0h48v31H35z" fill="#b3cee1" fill-rule="nonzero"/><path d="M0 0h35v31H0z" fill="#fff" fill-rule="nonzero"/><path d="M0 0h83v31H0zl.5.5v30h82V.5H.5z" fill-rule="nonzero"/><g aria-label="WCAG 2.0"><path d="m39.368 13.31-1.402-7.16h1.216l.879 4.918 1.074-4.917h1.411l1.03 5 .904-5h1.191l-1.425 7.158h-1.26l-1.172-5.351-1.162 5.351ZM50.386 10.677l1.148.445q-.269 1.2-.894 1.757-.625.552-1.538.552-1.147 0-1.86-.884-.82-1.02-.82-2.754 0-1.83.825-2.866.717-.898 1.928-.898.987 0 1.65.674.474.478.694 1.42l-1.172.342q-.112-.58-.449-.888-.332-.313-.786-.313-.65 0-1.06.567-.41.566-.41 1.87 0 1.352.4 1.924.401.57 1.04.57.47 0 .811-.36.342-.367.493-1.158m7.802 2.632h-1.29l-.512-1.626h-2.344l-.483 1.626h-1.26l2.285-7.158h1.255zm-2.183-2.832-.806-2.656-.796 2.656zm5.892.2V9.471h2.554v2.852q-.386.454-1.094.781t-1.421.327q-.87 0-1.533-.425-.664-.43-1.055-1.279-.386-.854-.386-2.007 0-1.181.391-2.021.396-.84 1.02-1.255.63-.415 1.504-.415 1.05 0 1.68.537.635.532.816 1.567l-1.172.269q-.132-.552-.484-.845-.351-.293-.84-.293-.756 0-1.225.591-.469.586-.469 1.792 0 1.294.508 1.968.434.58 1.177.58.346 0 .717-.16.376-.166.67-.45v-.908Zm10.182 1.358v1.274h-3.945q.063-.723.386-1.372.327-.654 1.264-1.714.743-.845.913-1.142.254-.435.254-.874 0-.47-.21-.708-.21-.24-.551-.24-.747 0-.806 1.118l-1.118-.136q.102-1.094.605-1.607.508-.512 1.348-.512.923 0 1.392.6t.468 1.377q0 .44-.122.855-.117.41-.366.83-.249.415-.83 1.064-.542.61-.689.806-.141.195-.229.38zm1.352 1.274v-1.372h1.128v1.372Zm4.29-7.187q.854 0 1.382.815.527.81.527 2.842 0 2.026-.527 2.842-.528.81-1.377.81-.855 0-1.382-.805-.527-.806-.527-2.862 0-2.016.527-2.827.527-.815 1.377-.815m0 1.137q-.332 0-.532.44-.196.44-.196 2.08t.196 2.08q.2.434.532.434.337 0 .532-.439.195-.44.195-2.075 0-1.64-.195-2.08t-.532-.44"/></g><g aria-label="AAA"><path d="M43.655 23.691h-2.771l-.381 1.3h-2.487l2.96-7.874h2.652l2.96 7.874h-2.546Zm-.51-1.703-.87-2.83-.865 2.83ZM53.091 23.691H50.32l-.381 1.3h-2.487l2.96-7.874h2.652l2.96 7.874h-2.546Zm-.51-1.703-.87-2.83-.865 2.83Zm9.946 1.703h-2.771l-.381 1.3h-2.487l2.96-7.874H62.5l2.96 7.874h-2.546Zm-.51-1.703-.87-2.83-.865 2.83Z"/></g><path d="M4.063 11.767H5.61q.246 0 .4.112.163.113.219.295l1.378 5.393q.12.422.225.978.056-.275.113-.52.056-.254.133-.465l1.631-5.386q.057-.161.218-.28.162-.127.387-.127h.541q.247 0 .394.112.155.105.218.295l1.631 5.393q.07.204.127.45.063.24.12.507.049-.268.098-.507.056-.239.112-.443l1.379-5.4q.049-.161.21-.28.17-.128.394-.128h1.449l-2.77 9.338h-1.674l-1.85-6.209q-.041-.12-.084-.267-.035-.147-.07-.31-.035.163-.077.31-.042.148-.078.267L8.5 21.104H6.834Zm16.931-.106q.647 0 1.16.19.521.19.88.52.358.324.548.767.197.436.197.935 0 .443-.099.78-.09.338-.274.59-.183.254-.45.43t-.604.288q1.596.541 1.596 2.159 0 .71-.26 1.251-.254.535-.69.9-.428.366-1.005.549-.57.182-1.202.182-.668 0-1.182-.154-.506-.155-.893-.464-.38-.317-.66-.78-.275-.465-.472-1.077l.746-.316q.295-.12.548-.056.26.056.366.274.126.24.267.45.14.204.316.366.183.154.415.246.232.091.535.091.372 0 .646-.12.282-.126.464-.323.183-.204.275-.457.091-.253.091-.506 0-.324-.063-.59-.056-.268-.267-.458-.204-.19-.605-.295-.4-.106-1.09-.106v-1.202q.577-.007.942-.105.373-.099.584-.275.21-.182.288-.428.078-.247.078-.549 0-.64-.324-.963-.316-.324-.893-.324-.513 0-.858.289-.344.288-.478.71-.112.323-.302.422-.183.098-.528.042l-.892-.155q.098-.682.372-1.188.274-.513.69-.85.414-.345.941-.514.535-.176 1.147-.176m9.837 7.179q.148 0 .253.112l.739.795q-.507.71-1.273 1.083-.76.372-1.807.372-.95 0-1.709-.351-.759-.359-1.293-.992-.528-.64-.816-1.511-.281-.88-.281-1.92 0-1.047.302-1.92.31-.878.865-1.511t1.329-.984q.773-.352 1.701-.352.943 0 1.667.338.724.33 1.21.878l-.62.865q-.063.078-.147.14-.078.064-.225.064t-.289-.112q-.133-.113-.337-.246-.197-.134-.5-.246-.302-.113-.773-.113-.513 0-.935.218-.422.21-.724.626-.302.408-.471 1.005-.162.59-.162 1.35 0 .767.183 1.364t.492 1.013q.317.408.738.626.422.21.907.21.289 0 .52-.028.233-.035.43-.112.204-.085.38-.211.175-.127.35-.316.071-.057.142-.092.077-.042.154-.042" aria-label="W3C" transform="translate(0 -1)" fill="#005a9c"/></svg>