<svg xmlns="http://www.w3.org/2000/svg" viewBox="0 0 877.7142857142858 1024" width="14" height="14">
	<title>refresh</title>
	<path fill="currentColor" d="M863.429 603.429q0 2.857-0.571 4-36.571 153.143-153.143 248.286t-273.143 95.143q-83.429 0-161.429-31.429t-139.143-89.714l-73.714 73.714q-10.857 10.857-25.714 10.857t-25.714-10.857-10.857-25.714v-256q0-14.857 10.857-25.714t25.714-10.857h256q14.857 0 25.714 10.857t10.857 25.714-10.857 25.714l-78.286 78.286q40.571 37.714 92 58.286t106.857 20.571q76.571 0 142.857-37.143t106.286-102.286q6.286-9.714 30.286-66.857 4.571-13.143 17.143-13.143h109.714q7.429 0 12.857 5.429t5.429 12.857zM877.714 146.286v256q0 14.857-10.857 25.714t-25.714 10.857h-256q-14.857 0-25.714-10.857t-10.857-25.714 10.857-25.714l78.857-78.857q-84.571-78.286-199.429-78.286-76.571 0-142.857 37.143t-106.286 102.286q-6.286 9.714-30.286 66.857-4.571 13.143-17.143 13.143h-113.714q-7.429 0-12.857-5.429t-5.429-12.857v-4q37.143-153.143 154.286-248.286t274.286-95.143q83.429 0 162.286 31.714t140 89.429l74.286-73.714q10.857-10.857 25.714-10.857t25.714 10.857 10.857 25.714z"></path>
</svg>