<svg enable-background="new 0 0 75 60" viewBox="0 0 75 60" xmlns="http://www.w3.org/2000/svg"><path d="m72.5 49.5h-45.1l-19.9 6.6 8.4-6.7h-13.4c-1.3 0-2.3-1-2.3-2.3v-36.8c0-1.3 1-2.3 2.3-2.3h70c1.3 0 2.3 1 2.3 2.3v36.9c0 1.2-1 2.3-2.3 2.3z" fill="#15385f"/><path d="m28.8 10.2h10.4c2.1 0 4 .4 5.7 1.3s3.2 2.1 4.5 3.6 2.2 3.3 2.9 5.4 1 4.3 1 6.8v.1c0 2.4-.3 4.7-1 6.8s-1.7 3.9-2.9 5.5c-1.3 1.5-2.8 2.8-4.5 3.6-1.7.9-3.7 1.3-5.7 1.3h-10.4zm10.4 28.6c1.2 0 2-.2 3-.9.9-.7 2.1-2.1 2.8-3s1.2-2 1.6-3.2.6-2.6.6-4.2v-.1c0-1.5-.2-2.9-.6-4.2s-.9-2.4-1.6-3.3-1.8-1.9-2.6-2.7-2-1.3-3.2-1.3h-4.5v22.9z" fill="#fff"/><path d="m52.8 11.1c6.5 5.2 8.4 21.7.9 31.7" fill="none" stroke="#fff" stroke-linecap="round" stroke-miterlimit="10" stroke-width="3"/><path d="m18.2 10.2 7.3-.1-.1 34.6h-5.4v-7.5l-9-.1-3.5 7.7h-6zm1.8 22.2.4-12.1-6.3 12z" fill="#fff"/><g fill="none" stroke="#fff" stroke-linecap="round" stroke-miterlimit="10" stroke-width="3"><path d="m59.5 11.1c6.5 5.2 8.4 21.7.9 31.7"/><path d="m66.2 11.1c6.5 5.2 8.4 21.7.9 31.7"/></g></svg>