<svg enable-background="new 0 0 75 60" viewBox="0 0 75 60" xmlns="http://www.w3.org/2000/svg"><path d="m71.8 53.6h-68.8c-1.7 0-3-1.3-3-3v-42.1c0-1.7 1.3-3 3-3h68.8c1.7 0 3 1.3 3 3v42.1c0 1.6-1.3 3-3 3z" fill="#15385f"/><path d="m44.4 49.7h-18c-1.8 0-3.2-1.5-3.2-3.4v-14.3c0-1.9 1.4-3.4 3.2-3.4h18c1.8 0 3.2 1.5 3.2 3.4v2.6l4.9-3.2v14.9l-5-2.8v2.8c.1 1.8-1.3 3.4-3.1 3.4z" fill="#fff"/><g fill="none" stroke="#fff" stroke-miterlimit="10"><path d="m35.4 53.7v-5.7" stroke-width="4"/><path d="m-.6 30.8 49.3-20.8" stroke-width="2"/><path d="m41.3 8.2 20.6 14.9" stroke-linecap="round" stroke-width="3"/><path d="m53.3 17.2 8.7 6.2" stroke-linecap="round" stroke-width="7"/><path d="m41.2 8s-6.5-2.4-8.6 2.9c-1.2 2.9-1.7 5.2-2.2 7.1-1.7 6.4-9.2 3.6-9.2 3.6s-5.9-2.3-10.1 4.3c-2.5 4-7.5 4-9.6 4.1" stroke-linecap="round"/></g></svg>