<svg id="Artwork" xmlns="http://www.w3.org/2000/svg" viewBox="0 0 150 150"><defs><style>.cls-1{fill:#036;}.cls-2{fill:#fff;}</style></defs><circle class="cls-1" cx="75" cy="75" r="75"/><circle class="cls-2" cx="75" cy="38.51" r="10.13"/><path class="cls-2" d="M85.57,67.31l22.21-6.12a5.36,5.36,0,0,0,3.77-6.61h0a5.44,5.44,0,0,0-6.68-3.73L80.51,57.64a18,18,0,0,1-11,0L45.13,50.85a5.44,5.44,0,0,0-6.68,3.73h0a5.36,5.36,0,0,0,3.77,6.61l22.21,6.12a4.05,4.05,0,0,1,3,3.89v7.31a23.62,23.62,0,0,1-2.36,10.31L53.14,113.48a5.33,5.33,0,0,0,2.55,7.15h0a5.44,5.44,0,0,0,7.23-2.53L75,93.2l12.12,24.9a5.44,5.44,0,0,0,7.23,2.53h0a5.33,5.33,0,0,0,2.55-7.15L85,88.82a23.62,23.62,0,0,1-2.36-10.31V71.2A4.05,4.05,0,0,1,85.57,67.31Z"/></svg>
