<svg id="Artwork" xmlns="http://www.w3.org/2000/svg" viewBox="0 0 150 150"><defs><style>.cls-1{fill:#036;}.cls-2{fill:#fff;}</style></defs><circle class="cls-1" cx="75" cy="75" r="75"/><path class="cls-2" d="M81,132.49h-.18A2,2,0,0,1,79,130.32c.35-4,1.43-9.58,4.61-13.51,4.76-5.88,16.85-5.74,20.82-5.7h.55c2.72,0,4.56-.8,5.61-2.46.79-1.24.5-2,0-3.12a7.31,7.31,0,0,1-.56-1.73c-.25-1.5.66-3,1.63-4.55a15.38,15.38,0,0,0,1.18-2.17,7.33,7.33,0,0,0-2.52-.89,2,2,0,0,1,0-4,16.33,16.33,0,0,0,3.84-1.06,14.23,14.23,0,0,0-.37-1.46,17.14,17.14,0,0,1-.66-3c-.28-2.47,2-3.44,3.43-4,2-.82,2.83-1.33,2.95-2.76.19-2.31-2.43-5.88-4.34-8.49-1.48-2-2.64-3.62-3-5a21.72,21.72,0,0,1-.24-5.36c.08-4.35.21-10.3-1.85-16.1-1.64-4.62-11.48-27.38-44.83-22.58-11.71,1.69-20.82,7-26.35,15.3s-7,19.09-4.14,30.22c1.41,5.45,3.75,8.68,6,11.81,3.43,4.73,6.67,9.2,5.85,19.58a56.13,56.13,0,0,1-4.3,17.25c-.33.84-.62,1.57-.81,2.14a2,2,0,0,1-3.8-1.27c.23-.68.54-1.46.9-2.35a52.07,52.07,0,0,0,4-16.09c.7-8.9-1.86-12.44-5.1-16.92A36,36,0,0,1,30.84,69c-3.18-12.26-1.52-24.13,4.68-33.44s16.25-15.19,29.11-17C101.06,13.2,112,38.53,113.8,43.66c2.3,6.49,2.16,13.13,2.07,17.53A23.66,23.66,0,0,0,116,65.4a19.77,19.77,0,0,0,2.4,3.71c2.41,3.3,5.4,7.39,5.1,11.19-.33,4-3.51,5.33-5.41,6.12-.27.12-.64.27-.91.4a17.35,17.35,0,0,0,.45,1.79,6.51,6.51,0,0,1,.26,4.26A3.85,3.85,0,0,1,116,94.68a3.44,3.44,0,0,1,.78,1.73c.23,1.65-.79,3.32-1.79,4.93a15,15,0,0,0-1.06,1.93c.06.2.17.47.28.74a6.65,6.65,0,0,1-.33,6.79c-1.26,2-3.83,4.31-9,4.31h-.6c-11.69-.13-16,2.22-17.66,4.22-2.68,3.3-3.49,8.52-3.73,11.33A2,2,0,0,1,81,132.49Zm33-29.13Z"/><path class="cls-2" d="M62.5,92.91h-.06l-3.21-.11a2,2,0,0,1-1.86-2.53c1.56-5.65,2.15-10.32,1.7-13.43-6.18.69-10.28-1.42-12.71-3.43-4-3.32-6.34-8.68-6.34-14.72A28.29,28.29,0,0,1,48.48,38.9c4.33-4.34,12.14-9.51,24.74-9.51,20.58,0,29.85,12.25,29.85,20.94,0,13.05-10.59,14.15-17,14.25a11.51,11.51,0,0,1-4.82,7.35,10.32,10.32,0,0,1-8.22,1c-3.31,3.7-5.77,10.38-8.6,18.62A2,2,0,0,1,62.5,92.91ZM60.59,72.59A2,2,0,0,1,62.49,74c.95,2.79.85,6.47.32,10.1,2.44-6.61,4.82-11.63,8.21-14.82a2,2,0,0,1,2-.44c2.46.81,4.5.73,6.06-.25,1.72-1.08,2.92-3.34,3.29-6.21a2,2,0,0,1,2-1.74c9.31,0,14.71-1.68,14.71-10.26,0-6.83-8.22-16.94-25.85-16.94-11.23,0-18.11,4.53-21.91,8.34a24.25,24.25,0,0,0-7.29,17c0,4.85,1.78,9.09,4.88,11.65,2.88,2.37,6.8,3.17,11.31,2.29Z"/></svg>
