<svg enable-background="new 0 0 75 60" viewBox="0 0 75 60" xmlns="http://www.w3.org/2000/svg"><path d="m.3 6.5h74.4v49.3h-74.4z" fill="#15385f"/><path d="m69.9 53.4h-64.8c-1.2 0-2.2-1-2.2-2.2v-40c0-1.2 1-2.2 2.2-2.2h64.8c1.2 0 2.2 1 2.2 2.2v40.1c0 1.2-1 2.1-2.2 2.1z" fill="#fff"/><g fill="#14828c"><path d="m22.9 48.4c-2.4 0-4.7-.4-6.8-1.3s-3.9-2.1-5.4-3.6-2.7-3.4-3.6-5.5-1.3-4.3-1.3-6.7v-.1c0-2.4.4-4.6 1.3-6.7s2-3.9 3.6-5.5c1.5-1.6 3.3-2.8 5.5-3.7 2.1-.9 4.5-1.4 7-1.4 1.6 0 3 .1 4.3.4s2.5.6 3.5 1 2 1 2.9 1.6 1.7 1.3 2.5 2.1l-4.7 5.4c-1.3-1.2-2.6-2.1-4-2.8s-2.9-1-4.5-1c-1.4 0-2.7.3-3.9.8-1.3.6-2.3 1.3-3.1 2.3-.9 1-1.5 2.1-2 3.3-.5 1.3-.7 2.6-.7 4v.1c0 1.4.2 2.8.7 4 .5 1.3 1.1 2.4 2 3.3.8 1 1.9 1.7 3 2.3 1.2.6 2.5.8 3.9.8 1.9 0 3.5-.3 4.8-1s2.6-1.7 3.9-2.9l4.7 4.7c-.9.9-1.7 1.7-2.7 2.5-.9.7-1.9 1.4-3 1.9s-2.3.9-3.6 1.2c-1.2.3-2.7.5-4.3.5z"/><path d="m55.6 48.4c-2.4 0-4.7-.4-6.8-1.3s-3.9-2.1-5.4-3.6-2.7-3.4-3.6-5.5-1.3-4.3-1.3-6.7v-.1c0-2.4.4-4.6 1.3-6.7s2-3.9 3.6-5.5c1.5-1.6 3.3-2.8 5.5-3.7 2.1-.9 4.5-1.4 7-1.4 1.6 0 3 .1 4.3.4s2.5.6 3.5 1 2 1 2.9 1.6 1.7 1.3 2.5 2.1l-4.7 5.4c-1.3-1.2-2.6-2.1-4-2.8s-2.9-1-4.5-1c-1.4 0-2.7.3-3.9.8s-2.2 1.3-3.1 2.2c-.9 1-1.5 2.1-2 3.3-.5 1.3-.7 2.6-.7 4v.1c0 1.4.2 2.8.7 4 .5 1.3 1.1 2.4 2 3.3.8 1 1.9 1.7 3 2.3 1.2.6 2.5.8 3.9.8 1.9 0 3.5-.3 4.8-1s2.6-1.7 3.9-2.9l4.7 4.7c-.9.9-1.7 1.7-2.7 2.5-.9.7-1.9 1.4-3 1.9s-2.3.9-3.6 1.2c-1.2.4-2.7.6-4.3.6z"/></g></svg>