<svg id="Artwork" xmlns="http://www.w3.org/2000/svg" viewBox="0 0 150 150"><defs><style>.cls-1{fill:#036;}.cls-2{fill:#fff;}</style></defs><circle class="cls-1" cx="75" cy="75" r="75"/><path class="cls-2" d="M66.42,116.19A16.4,16.4,0,0,1,55,111.7a15.69,15.69,0,0,1-4-6.38,2,2,0,1,1,3.8-1.24,11.89,11.89,0,0,0,3,4.79,12.55,12.55,0,0,0,12.56,2.68c6.09-2,7.66-5.28,9.81-12.32,1.74-5.75,6.06-9.8,10.63-14.09,6-5.62,12.18-11.43,12.43-21.59.37-14.61-6.44-23.31-20.24-25.84-7.83-1.44-15.24.09-20.86,4.3-5.87,4.39-9.47,11.51-10.42,20.58a2,2,0,1,1-4-.41C48.87,52,53,43.88,59.8,38.8c6.53-4.88,15-6.67,24-5C99.59,36.68,107.72,47,107.3,63.65,107,75.48,99.89,82.16,93.61,88.06,89.44,92,85.5,95.67,84.06,100.4c-2.23,7.32-4.29,12.31-12.39,15A17,17,0,0,1,66.42,116.19Z"/><path class="cls-2" d="M73,85.26a2,2,0,0,1-1.73-1A2,2,0,0,1,72,81.53,27.45,27.45,0,0,0,78.31,77c.43-.4.91-.85,1.5-1.37,5.59-5,8.29-10.93,7.22-16a9.65,9.65,0,0,0-6.77-7.25,11.79,11.79,0,0,0-10.35,1.09,14.59,14.59,0,0,0-6.28,10,2,2,0,1,1-4-.49A18.54,18.54,0,0,1,67.75,50.1a15.72,15.72,0,0,1,13.73-1.53A13.55,13.55,0,0,1,90.94,58.8c1.39,6.58-1.7,13.8-8.48,19.82-.56.49-1,.92-1.44,1.31A31.13,31.13,0,0,1,74,85,2,2,0,0,1,73,85.26Z"/></svg>
