<svg id="Artwork" xmlns="http://www.w3.org/2000/svg" viewBox="0 0 150 150"><defs><style>.cls-1{fill:#036;}.cls-2{fill:#fff;}</style></defs><circle class="cls-1" cx="75" cy="75" r="75"/><path class="cls-2" d="M62.77,123.84h-.1a2,2,0,0,1-1.9-2.1c.08-1.43.1-2.47.07-3.26a8.33,8.33,0,0,0-2.6-5.52c-.29-.3-.75-.7-1.29-1.17a48.7,48.7,0,0,1-7.89-8.47,76.28,76.28,0,0,1-5.21-8.67,61.29,61.29,0,0,0-4.65-7.7,10.36,10.36,0,0,0-5.45-4,6.74,6.74,0,0,1-2.35-1.21,5.72,5.72,0,0,1-1.5-6c1-3.21,5-6,10.6-4.89,4.44.9,7.91,4.82,10,7.16.44.5,1,1.07,1.15,1.24a14.79,14.79,0,0,1,1.22,1.19c1.35,1.42,2.63,2.65,3.53,2.21,2.58-1.26,4.17-4.07,4.46-7.91C61.2,70,60.6,60.57,60.12,53l0-.61c-.49-7.74-.23-18.08,1.06-21.3a4.76,4.76,0,0,1,4.45-3.35,5,5,0,0,1,4.46,3.78,151.84,151.84,0,0,1,3.78,18.75c.18,1.71.61,4.92,1,8.06C76,54.48,77.3,50.13,78.13,47l.38-1.44C81.46,34.06,84.83,22.88,90.7,23.2l.15,0a5.46,5.46,0,0,1,3.84,2.05c1.25,1.6,1.61,3.87,1.16,7.35-.26,2.1-.84,5.84-1.45,9.49,1.33-2.57,2.67-4.85,3.42-6.09,1.74-2.86,5.11-4.14,7.84-3,2,.88,5.07,3.52,2.35,11.28-.68,1.92-1.63,4.68-2.58,7.44-.85,2.46-1.7,4.92-2.36,6.8-.23.66-.47,1.39-.74,2.16-.11.32-.22.65-.34,1,2.41-2.59,6-6.29,9.66-6.42a5.35,5.35,0,0,1,4,1.53c4.66,4.37.39,10.34-1.21,12.59l-.33.46C108.72,77.4,105.32,82.49,104,85c-1.66,3.08-4.11,9.72-5.89,14.58-.46,1.23-.87,2.35-1.22,3.28-2.17,5.77-3.77,9.91-4.51,11.43-.58,1.21-1.49,2.78-2,3.55,0,.75,0,2.23,0,4a2,2,0,0,1-2,2h0a2,2,0,0,1-2-2c0-2.64,0-4.61,0-4.61a2,2,0,0,1,.3-1s1.35-2.22,2.06-3.68c.8-1.67,3.2-8,4.36-11.1.35-.93.75-2,1.2-3.25,1.83-5,4.33-11.77,6.12-15.1,1.43-2.64,4.91-7.86,10.36-15.53l.33-.47c2.31-3.22,3.48-5.7,1.73-7.35a1.49,1.49,0,0,0-1.08-.44c-2.16.08-5.36,3.53-7.08,5.38l-.33.35c-2.56,2.74-7.18,8.86-7.23,8.92a2,2,0,0,1-3.39-2.09,115.62,115.62,0,0,0,4.79-12.42c.26-.78.52-1.51.75-2.18l2.35-6.79c.95-2.76,1.91-5.53,2.58-7.45.57-1.63,1.69-5.49-.16-6.28a2.56,2.56,0,0,0-2.83,1.36,76.8,76.8,0,0,0-6,11.89c-1.39,4-5.18,13.88-5.34,14.3a2,2,0,0,1-3.77-1.34c.4-1.23,1.61-7.19,2.33-10.76L89,49.75C89.73,46,91.39,36,91.89,32.11c.35-2.8,0-3.93-.36-4.39a1.44,1.44,0,0,0-1.09-.52c-1,0-3.62,2.07-8.06,19.31L82,48c-1.55,5.89-5,17.25-6.06,19.92a2,2,0,0,1-3.84-.45c-.07-.51-1.8-12.65-2.25-16.77a151.25,151.25,0,0,0-3.59-17.91c-.27-.8-.67-1.06-.78-1.06s-.37.2-.62.83c-.81,2-1.33,11-.79,19.57l0,.6c.51,8.13,1.1,17.34.72,22.35-.41,5.3-2.78,9.28-6.69,11.19-3.61,1.77-6.59-1.36-8.18-3a10.88,10.88,0,0,0-.86-.85,17.26,17.26,0,0,1-1.62-1.69c-1.74-2-4.65-5.26-7.77-5.89-3.8-.77-5.67,1.11-6,2.13a1.78,1.78,0,0,0,.36,1.85,6.38,6.38,0,0,0,1,.43,14.41,14.41,0,0,1,7.29,5.35,64.48,64.48,0,0,1,5,8.19A72,72,0,0,0,52.3,101a44.39,44.39,0,0,0,7.28,7.81c.63.54,1.12,1,1.52,1.38a12.17,12.17,0,0,1,3.73,8.16c0,.92,0,2.07-.06,3.63A2,2,0,0,1,62.77,123.84Z"/></svg>
