<svg enable-background="new 0 0 40.2 20" viewBox="0 0 40.2 20" xmlns="http://www.w3.org/2000/svg"><path d="m.1 0h40v20h-40z" fill="#15385f"/><path d="m38.4 19.6h-36.5c-.8 0-1.4-.4-1.4-1v-17.2c0-.6.5-1 1.4-1h36.5c.8 0 1.4.4 1.4 1v17.1c0 .6-.6 1.1-1.4 1.1z" fill="#fff"/><g fill="#933"><path d="m6.7 6.7c.6 0 1.1.1 1.5.3s.8.5 1.1.9c.3.3.6.7.7 1.2.2.5.2 1 .2 1.5s-.1 1-.2 1.5c-.2.5-.4.9-.7 1.2-.3.4-.7.7-1.1.9s-.9.3-1.5.3-1.1-.1-1.5-.3-.8-.5-1.1-.8c-.3-.4-.5-.8-.7-1.2-.2-.5-.2-1-.2-1.5s.1-1 .2-1.5c.2-.5.4-.9.7-1.2.3-.5.7-.8 1.1-1s.9-.3 1.5-.3zm0 1.1c-.4 0-.7.1-1 .2-.3.2-.6.4-.7.7-.2.2-.4.5-.4.9-.1.3-.1.7-.1 1 0 .4 0 .7.1 1s.2.6.4.9.4.5.7.6c.3.2.6.2 1 .2s.7-.1 1-.2c.3-.2.5-.4.7-.6.2-.3.3-.6.4-.9s.2-.6.2-1 0-.7-.1-1c-.2-.4-.3-.7-.5-.9-.2-.3-.4-.5-.7-.7-.3-.1-.6-.2-1-.2z"/><path d="m11.3 6.9h1.4l3.4 5.5v-5.5h1.2v7.5h-1.3l-3.4-5.5v5.5h-1.2v-7.5z"/><path d="m23.6 6.9h1.4l2.9 7.5h-1.4l-.7-2h-3l-.7 2h-1.3zm-.5 4.5h2.3l-1.1-3.2z"/><path d="m28.5 6.9h1.3v7.5h-1.3z"/><path d="m31.3 6.9h3.6c.8 0 1.4.2 1.8.5.4.4.6.9.6 1.5 0 .4-.1.6-.2.9-.1.2-.2.4-.4.6-.1.1-.3.2-.4.3s-.2.1-.3.1c.1 0 .2 0 .4.1.1.1.2.1.4.3.1.1.2.3.3.5s.1.4.1.7c0 .4 0 .8.1 1.2s.2.6.3.8h-1.4c-.1-.2-.2-.4-.2-.6s0-.4 0-.6c0-.3 0-.6-.1-.9 0-.2-.1-.5-.2-.6-.1-.2-.3-.3-.5-.4s-.4-.1-.7-.1h-1.9v3.1h-1.3zm1.3 3.4h2.1c.4 0 .7-.1 1-.3.2-.2.3-.5.3-.9 0-.2 0-.4-.1-.6-.1-.1-.2-.3-.3-.4-.1 0-.3-.1-.4-.1-.2 0-.3 0-.5 0h-2.1z"/></g></svg>