<svg enable-background="new 0 0 75 60" viewBox="0 0 75 60" xmlns="http://www.w3.org/2000/svg"><path d="m.1 14.4.1 42.5 17.9-8.3-.1-42.8z" fill="#14828c"/><path d="m38 14.3.2 42.5 17.8-8.3v-42.8z" fill="#14828c"/><path d="m74.9 14.2-.1 42.5-17.9-8.3.1-42.8z" fill="#14828c"/><path d="m37 14.2-.1 42.5-17.9-8.3.1-42.8z" fill="#14828c"/><path d="m8.4 42.4 10.3-16.7 7.2-2.6 8.3 11.2h3.4l9-7.4 10.1 7.2h4.6l4.8-7.5" fill="none" stroke="#fff" stroke-linecap="round" stroke-miterlimit="10"/><g fill="#fff"><circle cx="8.3" cy="42.8" r="1.4"/><circle cx="26.2" cy="23.1" r="1.4"/><circle cx="46.8" cy="26.9" r="1.4"/><circle cx="34.5" cy="34.4" r="1.4"/><circle cx="61.3" cy="34" r="1.4"/><path d="m65.9 27.6s10.6-12.6.6-14.3c-9.9 1.5-.6 14.3-.6 14.3z"/></g><path d="m66 25.5s8.1-9.5.4-10.8c-7.5 1.1-.4 10.8-.4 10.8z" fill="#15385f"/><circle cx="66.3" cy="18.1" fill="#fff" r="1.8"/></svg>