<svg enable-background="new 0 0 75 60" viewBox="0 0 75 60" xmlns="http://www.w3.org/2000/svg"><g fill="#15385f"><path d="m24 40 5.3 1.7 3.7-2.5s-1-6.7 2.4-8.6 3.6 9.4 3.6 9.4l-5.9 9.1-8.8 5.6h-21.9s-3.1-20.5-1.9-25.8c.6-2.6 1.9-10.2 2.8-14.4l7.2-6.1s2.6-.5 1.5 2.3-4.4 6.3-4.4 6.3l-.5 8.7 6.1-10.9s11.8-10.5 13.2-6.3c.8 2.4-8.9 8.8-8.9 8.8l-3.9 10.7 6.9-9.9s12.2-9.7 13.5-6.4-8.8 8.3-8.8 8.3l-4.9 9.7s8.6-8.3 11.4-7.6c1.8.5 6.9 4.8 3.6 7.4-1.3 1-4.5-1.8-4.5-1.8l-5.5 6.1z"/><path d="m51 19.6-5.3-1.7-3.7 2.5s1 6.7-2.4 8.6-3.6-9.4-3.6-9.4l5.9-9.1 8.8-5.6h21.9s3.1 20.5 1.9 25.8c-.6 2.6-1.9 10.2-2.8 14.4l-7.2 6.1s-2.6.5-1.5-2.3c1-2.8 4.4-6.3 4.4-6.3l.5-8.7-6.1 10.9s-11.8 10.5-13.2 6.3c-.8-2.4 8.9-8.8 8.9-8.8l3.8-10.7-6.9 9.9s-12.2 9.7-13.5 6.4 8.8-8.4 8.8-8.4l4.9-9.7s-8.6 8.3-11.4 7.6c-1.8-.5-6.9-4.8-3.6-7.4 1.3-1 4.5 1.8 4.5 1.8l5.5-6.1z"/></g></svg>