<svg id="Artwork" xmlns="http://www.w3.org/2000/svg" viewBox="0 0 150 150"><defs><style>.cls-1{fill:#036;}.cls-2{fill:#fff;}</style></defs><circle class="cls-1" cx="75" cy="75" r="75"/><path class="cls-2" d="M38.14,122.16H38A2,2,0,0,1,36.15,120c.39-4.5,1.6-10.78,5.17-15.19,4.93-6.09,16.61-5.17,22.23-4.72.79.06,1.48.11,1.8.11,3.19,0,5.35-1,6.6-2.91,1-1.53.59-2.43,0-3.79a8.89,8.89,0,0,1-.61-1.91c-.27-1.6.74-3.24,1.81-5a15.88,15.88,0,0,0,1.38-2.55,22.46,22.46,0,0,0-6.49-2.34,2,2,0,0,1,.07-3.91,40.31,40.31,0,0,0,7.93-2.17,12.93,12.93,0,0,0-.43-1.81,19.72,19.72,0,0,1-.74-3.32c-.29-2.62,2.13-3.62,3.72-4.28,2.29-1,3.38-1.59,3.52-3.35.22-2.72-2.78-6.83-5-9.83-1.66-2.26-3-4-3.4-5.6a15.7,15.7,0,0,1-.25-4.4,30.51,30.51,0,0,0-3.06-15.5,17.87,17.87,0,0,0-3.91-5.26,2,2,0,0,1,2.69-3,21.94,21.94,0,0,1,4.84,6.51,34.5,34.5,0,0,1,3.44,17.32,14.06,14.06,0,0,0,.11,3.23,22.08,22.08,0,0,0,2.77,4.3c2.7,3.7,6.07,8.3,5.73,12.51-.36,4.39-3.87,5.85-6,6.72-.38.16-.91.38-1.23.55a19.09,19.09,0,0,0,.55,2.26c.45,1.54.91,3.14.3,4.65-.21.52-.6,1.52-4.1,2.7,1.75.94,2.72,2,2.89,3.21.26,1.78-.88,3.63-2,5.42A14.17,14.17,0,0,0,75.33,91a7.3,7.3,0,0,0,.35,1,7.3,7.3,0,0,1-.36,7.45c-2,3.17-5.37,4.77-10,4.77-.48,0-1.17,0-2.12-.13-4.15-.32-15.19-1.2-18.8,3.26-3.08,3.81-4,9.79-4.3,13A2,2,0,0,1,38.14,122.16Z"/><path class="cls-2" d="M95.76,97a2,2,0,0,1-1.35-3.47,19.41,19.41,0,0,0,5.41-13.19,18.87,18.87,0,0,0-5.4-13,2,2,0,0,1,2.67-3,22.62,22.62,0,0,1,6.73,16,23.12,23.12,0,0,1-6.71,16.14A2,2,0,0,1,95.76,97Z"/><path class="cls-2" d="M113,116.94a2,2,0,0,1-1.35-3.47A47.55,47.55,0,0,0,125,80.94a46.18,46.18,0,0,0-13.39-32.2,2,2,0,1,1,2.67-3A49.6,49.6,0,0,1,129,80.94a50.72,50.72,0,0,1-14.71,35.48A2,2,0,0,1,113,116.94Z"/><path class="cls-2" d="M103.8,107.39a2,2,0,0,1-1.36-3.47A34,34,0,0,0,112,80.67a33.17,33.17,0,0,0-9.56-23,2,2,0,0,1,2.67-3,36.65,36.65,0,0,1,10.89,26,37.52,37.52,0,0,1-10.87,26.2A2,2,0,0,1,103.8,107.39Z"/></svg>
