<?xml version="1.0" encoding="UTF-8"?>
<svg width="68px" height="34px" viewBox="0 0 68 34" version="1.1" xmlns="http://www.w3.org/2000/svg" xmlns:xlink="http://www.w3.org/1999/xlink">
  <title>w3c</title>
  <g id="w3c" fill-rule="nonzero" fill="#FFFFFF">
      <path d="M16.117,1.006 L21.876,20.586 L27.635,1.006 L31.805,1.006 L43.249,1.006 L43.249,2.952 L37.37,13.08 C39.435,13.743 40.997,14.948 42.056,16.695 C43.115,18.443 43.645,20.494 43.645,22.85 C43.645,25.764 42.87,28.213 41.321,30.198 C39.772,32.183 37.766,33.176 35.304,33.176 C33.45,33.176 31.835,32.587 30.459,31.409 C29.082,30.231 28.063,28.636 27.401,26.623 L30.657,25.273 C31.134,26.491 31.763,27.451 32.544,28.152 C33.325,28.854 34.245,29.204 35.304,29.204 C36.416,29.204 37.356,28.582 38.124,27.338 C38.892,26.093 39.276,24.598 39.276,22.849 C39.276,20.916 38.865,19.42 38.045,18.361 C37.091,17.117 35.595,16.494 33.556,16.494 L31.968,16.494 L31.968,14.588 L37.528,4.976 L30.816,4.976 L30.434,5.626 L22.271,33.174 L21.874,33.174 L15.916,13.237 L9.959,33.174 L9.562,33.174 L0.032,1.006 L4.202,1.006 L9.961,20.586 L13.853,7.401 L11.947,1.006 L16.117,1.006 L16.117,1.006 Z"></path>
      <path d="M64.92,1.006 C64.101,1.006 63.366,1.301 62.809,1.867 C62.218,2.467 61.889,3.243 61.889,4.045 C61.889,4.847 62.202,5.59 62.776,6.173 C63.359,6.764 64.11,7.085 64.921,7.085 C65.714,7.085 66.483,6.764 67.082,6.182 C67.656,5.625 67.969,4.882 67.969,4.046 C67.969,3.235 67.648,2.476 67.091,1.91 C66.507,1.318 65.747,1.006 64.92,1.006 Z M67.563,4.071 C67.563,4.772 67.292,5.422 66.795,5.903 C66.271,6.41 65.621,6.68 64.903,6.68 C64.228,6.68 63.561,6.402 63.063,5.895 C62.565,5.388 62.286,4.738 62.286,4.046 C62.286,3.354 62.573,2.678 63.088,2.155 C63.569,1.665 64.219,1.404 64.928,1.404 C65.654,1.404 66.304,1.675 66.811,2.189 C67.301,2.678 67.563,3.336 67.563,4.071 Z M65.004,2.264 L63.704,2.264 L63.704,5.709 L64.354,5.709 L64.354,4.24 L64.996,4.24 L65.697,5.709 L66.423,5.709 L65.654,4.139 C66.152,4.037 66.439,3.7 66.439,3.21 C66.439,2.585 65.967,2.264 65.004,2.264 Z M64.886,2.686 C65.494,2.686 65.772,2.855 65.772,3.277 C65.772,3.682 65.494,3.826 64.902,3.826 L64.353,3.826 L64.353,2.686 L64.886,2.686 L64.886,2.686 Z"></path>
      <path d="M59.807,0.825 L60.483,4.932 L58.092,9.507 C58.092,9.507 57.174,7.566 55.649,6.492 C54.364,5.587 53.527,5.39 52.218,5.66 C50.537,6.007 48.631,8.017 47.799,10.495 C46.804,13.46 46.794,14.895 46.759,16.213 C46.703,18.326 47.036,19.575 47.036,19.575 C47.036,19.575 45.584,16.889 45.598,12.955 C45.607,10.147 46.049,7.601 47.348,5.088 C48.491,2.879 50.19,1.553 51.698,1.397 C53.257,1.236 54.489,1.987 55.441,2.8 C56.441,3.654 57.451,5.521 57.451,5.521 L59.807,0.825 Z"></path>
      <path d="M60.102,24.063 C60.102,24.063 59.045,25.952 58.387,26.68 C57.728,27.408 56.55,28.69 55.095,29.331 C53.64,29.972 52.877,30.093 51.439,29.955 C50.002,29.817 48.667,28.985 48.199,28.638 C47.731,28.291 46.535,27.269 45.859,26.316 C45.183,25.363 44.126,23.457 44.126,23.457 C44.126,23.457 44.715,25.367 45.084,26.178 C45.296,26.645 45.948,28.072 46.873,29.314 C47.736,30.473 49.412,32.468 51.959,32.918 C54.506,33.369 56.256,32.225 56.689,31.948 C57.122,31.671 58.035,30.906 58.613,30.288 C59.216,29.643 59.787,28.82 60.103,28.326 C60.334,27.966 60.71,27.234 60.71,27.234 L60.102,24.063 Z"></path>
  </g>
</svg>
