<?xml version="1.0" encoding="utf-8"?>
<!-- Generated by IcoMoon.io -->
<!DOCTYPE svg PUBLIC "-//W3C//DTD SVG 1.1//EN" "http://www.w3.org/Graphics/SVG/1.1/DTD/svg11.dtd">
<svg version="1.1" xmlns="http://www.w3.org/2000/svg" xmlns:xlink="http://www.w3.org/1999/xlink" width="41" height="32" viewBox="0 0 41 32">
<path fill="#fff" d="M9 17.75h3.054l-0.018-4.732zM27.321 15.982q0-1.554-0.902-2.5t-2.616-0.946h-0.964v6.929h0.929q1.625 0 2.589-1.018t0.964-2.464zM17.071 9.25l0.018 13.5q0 0.25-0.17 0.429t-0.42 0.179h-3.857q-0.25 0-0.42-0.179t-0.17-0.429v-1.107h-5.196l-0.982 1.446q-0.179 0.268-0.5 0.268h-4.768q-0.375 0-0.545-0.321t0.063-0.625l9.929-13.518q0.161-0.25 0.482-0.25h5.929q0.25 0 0.429 0.179t0.179 0.429zM31.839 15.982q0 3.446-2.241 5.411t-5.795 1.964h-4.821q-0.25 0-0.429-0.179t-0.179-0.429v-13.5q0-0.25 0.179-0.429t0.429-0.179h4.786q3.571 0 5.821 1.946t2.25 5.393zM34.625 16q0 0.196-0.009 0.518t-0.143 1.277-0.384 1.821-0.795 1.929-1.313 1.83h-0.911q0.679-0.804 1.188-1.866t0.741-2 0.375-1.75 0.161-1.295l0.018-0.482q0-0.143-0.009-0.402t-0.134-1.071-0.357-1.634-0.732-1.991-1.179-2.223h0.768q0.732 0.839 1.286 1.911t0.813 1.991 0.411 1.714 0.188 1.259zM37.911 16q0 0.196-0.009 0.518t-0.143 1.277-0.384 1.821-0.804 1.929-1.321 1.83h-0.911q0.679-0.804 1.188-1.866t0.741-2 0.375-1.75 0.161-1.295l0.018-0.482q0-0.143-0.009-0.402t-0.134-1.071-0.348-1.634-0.723-1.991-1.179-2.223h0.768q0.732 0.839 1.286 1.911t0.813 1.991 0.411 1.714 0.188 1.259zM41.143 16q0 0.196-0.009 0.518t-0.143 1.277-0.384 1.821-0.795 1.929-1.313 1.83h-0.911q0.679-0.804 1.179-1.866t0.732-2 0.375-1.75 0.161-1.295l0.018-0.482q0-0.143-0.009-0.402t-0.134-1.071-0.348-1.634-0.723-1.991-1.179-2.223h0.768q0.732 0.839 1.286 1.911t0.813 1.991 0.411 1.714 0.17 1.259z"></path>
</svg>
