<?xml version="1.0" standalone="no"?><!DOCTYPE svg PUBLIC "-//W3C//DTD SVG 1.1//EN" "http://www.w3.org/Graphics/SVG/1.1/DTD/svg11.dtd"><svg width="100%" height="100%" viewBox="0 0 208 152" version="1.1" xmlns="http://www.w3.org/2000/svg" xmlns:xlink="http://www.w3.org/1999/xlink" xml:space="preserve" style="fill-rule:evenodd;clip-rule:evenodd;stroke-linejoin:round;stroke-miterlimit:1.41421;"><g id="Layer 1"><path id="path3638" d="M37.473,151.832c-20.576,0 -37.244,-34.009 -37.244,-75.99c0,-41.955 16.668,-75.964 37.244,-75.964l132.853,0c20.576,0 37.244,34.009 37.244,75.964c0,41.981 -16.668,75.99 -37.244,75.99l-132.853,0Z" style="fill:#000;fill-rule:nonzero;"/><path id="path3642" d="M107.992,58.11c9.861,0 17.807,7.998 17.807,17.807c0,9.835 -7.946,17.833 -17.807,17.833l-4.659,0l0,-35.64l4.659,0ZM109.803,109.331c18.454,0 33.466,-14.986 33.466,-33.414c0,-18.506 -14.856,-33.466 -33.31,-33.466l-0.207,0l-20.473,0l0,66.906l20.524,0" style="fill:#fff;fill-rule:nonzero;"/><path id="path3646" d="M82.363,109.367l-14.649,0l0,-8.851l-24.536,0l-5.643,8.851l-21.508,0l48.038,-66.931l18.298,0l0,66.931Z" style="fill:#fff;fill-rule:nonzero;"/><path id="path3650" d="M67.804,86.57l-15.425,0l15.425,-23.967l0,23.967Z" style="fill:#000;fill-rule:nonzero;"/><path id="path3654" d="M182.454,42.387l-2.122,0l-3.986,0l-2.122,0c9.292,9.24 14.649,21.896 14.649,35.044c0,11.673 -4.193,22.828 -11.621,31.68l7.894,0c6.6,-9.085 10.301,-20.214 10.301,-31.68c0,-12.915 -4.71,-25.338 -12.993,-35.044" style="fill:#fff;fill-rule:nonzero;"/><path id="path3658" d="M165.621,42.387l-2.123,0l-3.986,0l-2.122,0c9.292,9.24 14.649,21.896 14.649,35.044c0,11.673 -4.193,22.828 -11.621,31.68l7.843,0c6.651,-9.085 10.352,-20.214 10.352,-31.68c0,-12.915 -4.71,-25.338 -12.992,-35.044" style="fill:#fff;fill-rule:nonzero;"/><path id="path3662" d="M148.736,42.387l-2.071,0l-4.038,0l-2.07,0c9.291,9.24 14.597,21.896 14.597,35.044c0,11.673 -4.193,22.828 -11.569,31.68l7.842,0c6.652,-9.085 10.301,-20.214 10.301,-31.68c0,-12.915 -4.658,-25.338 -12.992,-35.044" style="fill:#fff;fill-rule:nonzero;"/></g></svg>