<svg xmlns="http://www.w3.org/2000/svg" xml:space="preserve" viewBox="0 0 88 31" fill-rule="evenodd" clip-rule="evenodd" stroke-linejoin="round" stroke-miterlimit="2"><path d="M35 0h48v31H35z" transform="matrix(1.125 0 0 1 -5.375 0)" fill="#fc6"/><path d="M0 0h35v31H0z" fill="#fff"/><path d="M0 0h83v31H0zl.5.5v30h82V.5H.5z" transform="scale(1.06024 1)" fill-rule="nonzero"/><g aria-label="2.2 AAA"><path d="M43.332 23.633v1.275h-4.81q.078-.723.469-1.367.39-.65 1.543-1.72.927-.863 1.137-1.171.284-.425.284-.84 0-.459-.25-.703-.244-.25-.678-.25-.43 0-.684.26-.254.259-.293.86l-1.367-.138q.122-1.132.767-1.626.644-.493 1.611-.493 1.06 0 1.665.572.606.57.606 1.42 0 .484-.176.923-.171.435-.547.913-.25.318-.899.913-.649.596-.825.791-.17.196-.278.381ZM45.053 24.908v-1.372h1.372v1.372Zm7.619-1.275v1.275h-4.81q.078-.723.469-1.367.39-.65 1.543-1.72.927-.863 1.137-1.171.284-.425.284-.84 0-.459-.25-.703-.244-.25-.678-.25-.43 0-.684.26-.254.259-.293.86l-1.367-.138q.122-1.132.767-1.626.644-.493 1.611-.493 1.06 0 1.665.572.606.57.606 1.42 0 .484-.176.923-.171.435-.547.913-.25.318-.899.913-.649.596-.825.791-.17.196-.278.381zm11.093 1.275h-1.573l-.625-1.626h-2.861l-.59 1.626h-1.534l2.788-7.158h1.528zm-2.662-2.832-.986-2.657-.967 2.657zm10.383 2.832h-1.573l-.625-1.626h-2.861l-.59 1.626h-1.534l2.788-7.158h1.528zm-2.662-2.832-.986-2.657-.967 2.657Zm10.384 2.832h-1.573l-.625-1.626H74.15l-.59 1.626h-1.534l2.788-7.158h1.528zm-2.662-2.832-.986-2.657-.967 2.657z"/></g><g aria-label="WCAG"><path d="M38.5 6.214h2.1l.756 4 1.104-4h2.095l1.108 4 .757-4h2.09l-1.577 7.159h-2.168L43.51 8.866l-1.25 4.507h-2.168ZM54.332 10.448l1.938.586q-.195.815-.615 1.362t-1.045.825q-.62.278-1.582.278-1.167 0-1.909-.336-.737-.342-1.274-1.197-.537-.854-.537-2.187 0-1.778.942-2.73.947-.957 2.676-.957 1.352 0 2.124.547.776.547 1.152 1.68l-1.953.434q-.103-.327-.215-.478-.185-.254-.454-.39-.269-.137-.6-.137-.753 0-1.153.605-.303.45-.303 1.411 0 1.192.362 1.636.361.44 1.015.44.635 0 .957-.357.327-.357.474-1.035m7.917 1.743h-2.52l-.347 1.182h-2.26l2.69-7.159h2.412l2.69 7.159H62.6zm-.464-1.548-.791-2.573-.786 2.573zm7.756.137V9.29h3.418v3.052q-.982.67-1.738.913-.752.24-1.787.24-1.275 0-2.08-.435-.801-.435-1.246-1.294-.44-.86-.44-1.973 0-1.171.484-2.036.484-.869 1.416-1.318.728-.347 1.958-.347 1.187 0 1.773.215.59.215.976.669.39.45.586 1.143l-2.134.38q-.131-.405-.449-.62-.312-.214-.8-.214-.728 0-1.163.507-.43.503-.43 1.597 0 1.162.435 1.66.44.498 1.22.498.372 0 .709-.107.337-.108.771-.366v-.674z"/></g><path d="M.063-9.337H1.61q.246 0 .4.112.163.113.219.295l1.378 5.393q.12.422.225.978.056-.275.113-.52.056-.254.133-.465L5.71-8.93q.057-.161.218-.28.162-.127.387-.127h.541q.247 0 .394.112.155.105.218.295l1.631 5.393q.07.204.127.45.063.24.12.507.049-.268.098-.507.056-.239.112-.443l1.379-5.4q.049-.161.21-.28.17-.127.394-.127h1.449L10.217 0H8.542l-1.85-6.209q-.041-.12-.084-.267-.035-.147-.07-.31-.035.163-.077.31-.042.148-.078.267L4.5 0H2.834Zm16.931-.106q.647 0 1.16.19.521.19.88.52.358.324.548.767.197.436.197.935 0 .443-.099.78-.09.338-.274.59-.183.254-.45.43t-.604.288q1.596.541 1.596 2.159 0 .71-.26 1.251-.254.535-.69.9-.428.366-1.005.549-.57.182-1.202.182-.668 0-1.182-.154-.506-.155-.893-.464-.38-.317-.66-.78-.275-.465-.472-1.077l.746-.316q.295-.12.548-.056.26.056.366.274.126.24.267.45.14.204.316.366.183.154.415.246.232.091.535.091.372 0 .646-.12.282-.126.464-.323.183-.204.275-.457.091-.253.091-.506 0-.324-.063-.59-.056-.268-.267-.458-.204-.19-.605-.295-.4-.106-1.09-.106v-1.202q.577-.007.942-.105.373-.099.584-.275.21-.182.288-.428.078-.247.078-.549 0-.64-.324-.963-.316-.324-.893-.324-.513 0-.858.289-.344.288-.478.71-.112.323-.302.422-.183.098-.528.042l-.892-.155q.098-.682.372-1.188.274-.513.69-.85.414-.345.941-.514.535-.176 1.147-.176m9.837 7.179q.148 0 .253.112l.739.795q-.507.71-1.273 1.083-.76.372-1.807.372-.95 0-1.709-.351-.759-.359-1.293-.992-.528-.64-.816-1.511-.281-.88-.281-1.92 0-1.047.302-1.92.31-.878.865-1.511t1.329-.984q.773-.352 1.701-.352.943 0 1.667.338.724.33 1.21.878l-.62.865q-.063.078-.147.14-.078.064-.225.064t-.289-.112q-.133-.113-.337-.246-.197-.134-.5-.247-.302-.112-.773-.112-.513 0-.935.218-.422.21-.724.626-.302.408-.471 1.005-.162.59-.162 1.35 0 .767.183 1.364t.492 1.013q.317.408.738.626.422.21.907.21.289 0 .52-.028.233-.035.43-.112.204-.085.38-.211.175-.127.35-.316.071-.057.142-.092.077-.042.154-.042" aria-label="W3C" transform="translate(3.527 20.272)" fill="#005a9c"/></svg>