<svg style="position: absolute; width: 0; height: 0;" width="0" height="0" version="1.1" xmlns="http://www.w3.org/2000/svg" xmlns:xlink="http://www.w3.org/1999/xlink">
	<defs>
	  <symbol id="designing" viewBox="0 0 40 40">
			<title>Designing</title>
	    <g id="text">
	        <rect x="3.06" y="21.43" width="16.81" height="0.2"/><rect x="3.06" y="25.83" width="16.81" height="0.2"/><rect x="3.06" y="30.22" width="16.81" height="0.2"/><rect x="3.06" y="34.62" width="16.81" height="0.2"/>
	    </g>
	    <g id="person">
	        <path d="M6.91,12.07 L4.56,12.07 C3.97,12.07 3.50,11.66 3.50,11.19 L3.86,8.61 C3.86,8.13 4.33,7.71 4.90,7.71 L6.57,7.71 C7.15,7.71 7.61,8.13 7.61,8.61 L7.95,11.19 C7.95,11.66 7.49,12.07 6.91,12.07 Z

	"/><ellipse cx="5.83" cy="5.07" rx="1.4" ry="1.4"/>
	    </g>
	    <path d="M39.51,19.02 C39.51,18.44 39.04,17.95 38.46,17.95 L27.43,17.95 C26.85,17.95 26.38,18.44 26.38,19.02 L26.38,37.25 C26.38,37.86 26.85,38.33 27.43,38.33 L38.46,38.33 C39.04,38.33 39.51,37.86 39.51,37.25 L39.51,19.02 Z" style="fill:none;"/>
	    <path d="M10.80,2.75 C10.80,2.14 10.31,1.65 9.71,1.65 L1.63,1.65 C1.03,1.65 0.51,2.14 0.51,2.75 L0.51,12.41 C0.51,13.01 1.03,13.50 1.63,13.50 L9.71,13.50 C10.31,13.50 10.80,13.01 10.80,12.41 L10.80,2.75 Z" style="fill:none;"/>
	    <path d="M22.61,19.15 C22.61,18.50 22.10,17.97 21.45,17.97 L1.70,17.97 C1.05,17.97 0.51,18.50 0.51,19.15 L0.51,37.17 C0.51,37.81 1.05,38.35 1.70,38.35 L21.45,38.35 C22.10,38.35 22.61,37.81 22.61,37.17 L22.61,19.15 Z" style="fill:none;"/>
	    <path d="M39.46,2.75 C39.46,2.14 38.97,1.67 38.37,1.67 L15.80,1.67 C15.20,1.67 14.71,2.14 14.71,2.75 L14.71,12.39 C14.71,12.99 15.20,13.48 15.80,13.48 L38.37,13.48 C38.97,13.48 39.46,12.99 39.46,12.39 L39.46,2.75 Z" style="fill:none;"/>
	  </symbol>

		<symbol id="designing-small" viewBox="0 0 40 40">
			<title>Designing</title>
	    <path d="M39.51,19.02 C39.51,18.44 39.04,17.95 38.46,17.95 L27.43,17.95 C26.85,17.95 26.38,18.44 26.38,19.02 L26.38,37.25 C26.38,37.86 26.85,38.33 27.43,38.33 L38.46,38.33 C39.04,38.33 39.51,37.86 39.51,37.25 L39.51,19.02 ZM10.80,2.75 C10.80,2.14 10.31,1.65 9.71,1.65 L1.63,1.65 C1.03,1.65 0.51,2.14 0.51,2.75 L0.51,12.41 C0.51,13.01 1.03,13.50 1.63,13.50 L9.71,13.50 C10.31,13.50 10.80,13.01 10.80,12.41 L10.80,2.75 ZM22.61,19.15 C22.61,18.50 22.10,17.97 21.45,17.97 L1.70,17.97 C1.05,17.97 0.51,18.50 0.51,19.15 L0.51,37.17 C0.51,37.81 1.05,38.35 1.70,38.35 L21.45,38.35 C22.10,38.35 22.61,37.81 22.61,37.17 L22.61,19.15 ZM39.46,2.75 C39.46,2.14 38.97,1.67 38.37,1.67 L15.80,1.67 C15.20,1.67 14.71,2.14 14.71,2.75 L14.71,12.39 C14.71,12.99 15.20,13.48 15.80,13.48 L38.37,13.48 C38.97,13.48 39.46,12.99 39.46,12.39 L39.46,2.75 Z" style="fill:none"/>
	  </symbol>

	  <symbol id="writing" viewBox="0 0 1792 1792">
			<title>Writing</title>
			<path d="M491 1536l91-91-235-235-91 91v107h128v128h107zm523-928q0-22-22-22-10 0-17 7l-542 542q-7 7-7 17 0 22 22 22 10 0 17-7l542-542q7-7 7-17zm-54-192l416 416-832 832h-416v-416zm683 96q0 53-37 90l-166 166-416-416 166-165q36-38 90-38 53 0 91 38l235 234q37 39 37 91z"></path>
	  </symbol>

	  <symbol id="developing" viewBox="0 0 1792 1792">
			<title>Developing</title>
			<path d="M553 1399l-50 50q-10 10-23 10t-23-10l-466-466q-10-10-10-23t10-23l466-466q10-10 23-10t23 10l50 50q10 10 10 23t-10 23l-393 393 393 393q10 10 10 23t-10 23zm591-1067l-373 1291q-4 13-15.5 19.5t-23.5 2.5l-62-17q-13-4-19.5-15.5t-2.5-24.5l373-1291q4-13 15.5-19.5t23.5-2.5l62 17q13 4 19.5 15.5t2.5 24.5zm657 651l-466 466q-10 10-23 10t-23-10l-50-50q-10-10-10-23t10-23l393-393-393-393q-10-10-10-23t10-23l50-50q10-10 23-10t23 10l466 466q10 10 10 23t-10 23z"/>
	  </symbol>

	  <symbol id="evaluating" viewBox="0 0 1792 1792">
			<title>Evaluating</title>
	    <path d="M1696 960q0 26-19 45t-45 19h-224q0 171-67 290l208 209q19 19 19 45t-19 45q-18 19-45 19t-45-19l-198-197q-5 5-15 13t-42 28.5-65 36.5-82 29-97 13v-896h-128v896q-51 0-101.5-13.5t-87-33-66-39-43.5-32.5l-15-14-183 207q-20 21-48 21-24 0-43-16-19-18-20.5-44.5t15.5-46.5l202-227q-58-114-58-274h-224q-26 0-45-19t-19-45 19-45 45-19h224v-294l-173-173q-19-19-19-45t19-45 45-19 45 19l173 173h844l173-173q19-19 45-19t45 19 19 45-19 45l-173 173v294h224q26 0 45 19t19 45zm-480-576h-640q0-133 93.5-226.5t226.5-93.5 226.5 93.5 93.5 226.5z"/>
	  </symbol>

	  <symbol id="managing" viewBox="0 0 1792 1792">
			<title>Managing</title>
	    <path d="M832 896q0-106-75-181t-181-75-181 75-75 181 75 181 181 75 181-75 75-181zm768 512q0-52-38-90t-90-38-90 38-38 90q0 53 37.5 90.5t90.5 37.5 90.5-37.5 37.5-90.5zm0-1024q0-52-38-90t-90-38-90 38-38 90q0 53 37.5 90.5t90.5 37.5 90.5-37.5 37.5-90.5zm-384 421v185q0 10-7 19.5t-16 10.5l-155 24q-11 35-32 76 34 48 90 115 7 10 7 20 0 12-7 19-23 30-82.5 89.5t-78.5 59.5q-11 0-21-7l-115-90q-37 19-77 31-11 108-23 155-7 24-30 24h-186q-11 0-20-7.5t-10-17.5l-23-153q-34-10-75-31l-118 89q-7 7-20 7-11 0-21-8-144-133-144-160 0-9 7-19 10-14 41-53t47-61q-23-44-35-82l-152-24q-10-1-17-9.5t-7-19.5v-185q0-10 7-19.5t16-10.5l155-24q11-35 32-76-34-48-90-115-7-11-7-20 0-12 7-20 22-30 82-89t79-59q11 0 21 7l115 90q34-18 77-32 11-108 23-154 7-24 30-24h186q11 0 20 7.5t10 17.5l23 153q34 10 75 31l118-89q8-7 20-7 11 0 21 8 144 133 144 160 0 9-7 19-12 16-42 54t-45 60q23 48 34 82l152 23q10 2 17 10.5t7 19.5zm640 533v140q0 16-149 31-12 27-30 52 51 113 51 138 0 4-4 7-122 71-124 71-8 0-46-47t-52-68q-20 2-30 2t-30-2q-14 21-52 68t-46 47q-2 0-124-71-4-3-4-7 0-25 51-138-18-25-30-52-149-15-149-31v-140q0-16 149-31 13-29 30-52-51-113-51-138 0-4 4-7 4-2 35-20t59-34 30-16q8 0 46 46.5t52 67.5q20-2 30-2t30 2q51-71 92-112l6-2q4 0 124 70 4 3 4 7 0 25-51 138 17 23 30 52 149 15 149 31zm0-1024v140q0 16-149 31-12 27-30 52 51 113 51 138 0 4-4 7-122 71-124 71-8 0-46-47t-52-68q-20 2-30 2t-30-2q-14 21-52 68t-46 47q-2 0-124-71-4-3-4-7 0-25 51-138-18-25-30-52-149-15-149-31v-140q0-16 149-31 13-29 30-52-51-113-51-138 0-4 4-7 4-2 35-20t59-34 30-16q8 0 46 46.5t52 67.5q20-2 30-2t30 2q51-71 92-112l6-2q4 0 124 70 4 3 4 7 0 25-51 138 17 23 30 52 149 15 149 31z"/>
	  </symbol>

	  <symbol id="advocating" viewBox="0 0 422.889 422.889">
			<title>Advocating</title>
	  	<path  d="M320.572,91.899c-0.911-3.685-3.962-6.161-7.59-6.161c-1.435,0-2.885,0.401-4.191,1.16L47.237,238.565c-3.823,2.216-5.906,7.124-4.847,11.416l14.284,57.798c1.062,4.29,5.191,7.662,9.606,7.842l24.188,0.99c0,0,3.143-0.083,4.298,3.211c3.519,10.031,7.259,20.026,14.652,28.055c10.999,11.947,25.992,18.895,42.218,19.565l73.656,3.041c0.853,0.035,1.697,0.053,2.543,0.053c26.787,0,51.116-16.718,57.604-41.385c1.172-4.456,5.126-4.348,5.126-4.348l77.809,3.185c0.126,0.005,0.25,0.008,0.374,0.008c2.543,0,4.854-1.088,6.341-2.986c1.495-1.909,1.998-4.437,1.381-6.936L320.572,91.899zM226.323,345.504l-73.656-3.041c-9.554-0.395-18.381-4.485-24.857-11.52c-2.615-2.84-4.627-6.067-6.269-9.44c-2.096-4.309,3.39-3.481,3.39-3.481l132.177,5.411c0,0,4.212-0.489,1.748,4.164C252.829,338.979,240.214,346.071,226.323,345.504zM422.456,325.886l-64.83-262.321c-1.631-6.601-7.515-11.211-14.309-11.211c-1.189,0-2.383,0.146-3.545,0.433c-3.824,0.945-7.052,3.323-9.087,6.695c-2.036,3.373-2.636,7.335-1.69,11.159l64.83,262.322c1.632,6.601,7.516,11.21,14.309,11.21c1.189,0,2.383-0.146,3.545-0.433C419.572,341.79,424.407,333.78,422.456,325.886zM29.726,252.477c-1.668-6.751-7.686-11.466-14.634-11.466c-1.217,0-2.438,0.149-3.626,0.443c-8.074,1.996-13.02,10.187-11.023,18.261l14.272,57.75c1.668,6.751,7.686,11.466,14.634,11.466c1.218,0,2.438-0.149,3.626-0.443c3.911-0.966,7.212-3.398,9.294-6.847c2.082-3.449,2.696-7.502,1.729-11.414L29.726,252.477z"/>
	  </symbol>

	  <symbol id="cart-plus" viewBox="0 0 1792 1792">
			<title>Add to cart</title>
	    <path d="M1280 704q0-26-19-45t-45-19h-128v-128q0-26-19-45t-45-19-45 19-19 45v128h-128q-26 0-45 19t-19 45 19 45 45 19h128v128q0 26 19 45t45 19 45-19 19-45v-128h128q26 0 45-19t19-45zm-576 832q0 53-37.5 90.5t-90.5 37.5-90.5-37.5-37.5-90.5 37.5-90.5 90.5-37.5 90.5 37.5 37.5 90.5zm896 0q0 53-37.5 90.5t-90.5 37.5-90.5-37.5-37.5-90.5 37.5-90.5 90.5-37.5 90.5 37.5 37.5 90.5zm128-1088v512q0 24-16 42.5t-41 21.5l-1044 122q1 7 4.5 21.5t6 26.5 2.5 22q0 16-24 64h920q26 0 45 19t19 45-19 45-45 19h-1024q-26 0-45-19t-19-45q0-14 11-39.5t29.5-59.5 20.5-38l-177-823h-204q-26 0-45-19t-19-45 19-45 45-19h256q16 0 28.5 6.5t20 15.5 13 24.5 7.5 26.5 5.5 29.5 4.5 25.5h1201q26 0 45 19t19 45z"/>
	  </symbol>

	  <symbol id="bars" viewBox="0 0 1792 1792">
			<title>Menu</title>
	    <path d="M1664 1344v128q0 26-19 45t-45 19h-1408q-26 0-45-19t-19-45v-128q0-26 19-45t45-19h1408q26 0 45 19t19 45zm0-512v128q0 26-19 45t-45 19h-1408q-26 0-45-19t-19-45v-128q0-26 19-45t45-19h1408q26 0 45 19t19 45zm0-512v128q0 26-19 45t-45 19h-1408q-26 0-45-19t-19-45v-128q0-26 19-45t45-19h1408q26 0 45 19t19 45z"/>
	  </symbol>

		<symbol id="tick" viewBox="0 0 1792 1792">
			<title>Good</title>
			<circle cx="896" cy="896" r="896"/>
			<path fill="#03651a" transform="matrix(0.8, 0, 0, 0.8, 180, 210)" d="M1671 566q0 40-28 68l-724 724-136 136q-28 28-68 28t-68-28l-136-136-362-362q-28-28-28-68t28-68l136-136q28-28 68-28t68 28l294 295 656-657q28-28 68-28t68 28l136 136q28 28 28 68z"/>
		</symbol>

		<symbol id="cross" viewBox="0 0 1792 1792">
			<title>Bad</title>
			<circle cx="896" cy="896" r="896"/>
			<path fill="#c43938" transform="matrix(0.8, 0, 0, 0.8, 180, 180)" d="M1490 1322q0 40-28 68l-136 136q-28 28-68 28t-68-28l-294-294-294 294q-28 28-68 28t-68-28l-136-136q-28-28-28-68t28-68l294-294-294-294q-28-28-28-68t28-68l136-136q28-28 68-28t68 28l294 294 294-294q28-28 68-28t68 28l136 136q28 28 28 68t-28 68l-294 294 294 294q28 28 28 68z"/>
		</symbol>

		<symbol id="markup" viewBox="0 0 1792 1792">
			<title>Mark-up</title>
			<circle cx="896" cy="896" r="896"/>
			<path fill="#000000" transform="matrix(0.7, 0, 0, 0.7, 260, 250)" d="M553 1399l-50 50q-10 10-23 10t-23-10l-466-466q-10-10-10-23t10-23l466-466q10-10 23-10t23 10l50 50q10 10 10 23t-10 23l-393 393 393 393q10 10 10 23t-10 23zm591-1067l-373 1291q-4 13-15.5 19.5t-23.5 2.5l-62-17q-13-4-19.5-15.5t-2.5-24.5l373-1291q4-13 15.5-19.5t23.5-2.5l62 17q13 4 19.5 15.5t2.5 24.5zm657 651l-466 466q-10 10-23 10t-23-10l-50-50q-10-10-10-23t10-23l393-393-393-393q-10-10-10-23t10-23l50-50q10-10 23-10t23 10l466 466q10 10 10 23t-10 23z"/>
		</symbol>

		<symbol id="screen" viewBox="0 0 1792 1792">
			<title>Screen</title>
			<circle cx="896" cy="896" r="896"/>
		  <path fill="#000000" transform="matrix(0.6, 0, 0, 0.6, 355, 445)" d="M1728 992v-832q0-13-9.5-22.5t-22.5-9.5h-1600q-13 0-22.5 9.5t-9.5 22.5v832q0 13 9.5 22.5t22.5 9.5h1600q13 0 22.5-9.5t9.5-22.5zm128-832v1088q0 66-47 113t-113 47h-544q0 37 16 77.5t32 71 16 43.5q0 26-19 45t-45 19h-512q-26 0-45-19t-19-45q0-14 16-44t32-70 16-78h-544q-66 0-113-47t-47-113v-1088q0-66 47-113t113-47h1600q66 0 113 47t47 113z"/>
		</symbol>

		<symbol id="error" viewBox="0 0 1792 1792">
			<title>Error</title>
		  <path d="M1024 1375v-190q0-14-9.5-23.5t-22.5-9.5h-192q-13 0-22.5 9.5t-9.5 23.5v190q0 14 9.5 23.5t22.5 9.5h192q13 0 22.5-9.5t9.5-23.5zm-2-374l18-459q0-12-10-19-13-11-24-11h-220q-11 0-24 11-10 7-10 21l17 457q0 10 10 16.5t24 6.5h185q14 0 23.5-6.5t10.5-16.5zm-14-934l768 1408q35 63-2 126-17 29-46.5 46t-63.5 17h-1536q-34 0-63.5-17t-46.5-46q-37-63-2-126l768-1408q17-31 47-49t65-18 65 18 47 49z"/>
		</symbol>
	</defs>
</svg>