<?xml version="1.0" encoding="UTF-8"?>
<svg id="Layer_1" data-name="Layer 1" xmlns="http://www.w3.org/2000/svg" viewBox="0 0 490 280">
  <defs>
    <style>
      .cls-1 {
        fill: none;
      }

      .cls-1, .cls-2, .cls-3, .cls-4, .cls-5, .cls-6 {
        stroke-width: 0px;
      }

      .cls-3 {
        fill: #196cac;
      }

      .cls-4 {
        fill: #d0e1f1;
      }

      .cls-5 {
        fill: #bccbd3;
      }

      .cls-6 {
        fill: #fff;
      }
    </style>
  </defs>
  <rect class="cls-5" x="59.99" y="8.19" width="387.69" height="271.81" rx="5" ry="5"/>
  <rect class="cls-1" x=".64" width="490" height="280"/>
  <g>
    <rect class="cls-6" x="54.3" y="2.5" width="382.69" height="266.81" rx="2.5" ry="2.5"/>
    <path class="cls-2" d="m434.49,5v261.81H56.8V5h377.69M434.49,0H56.8C54.05,0,51.8,2.25,51.8,5v261.81c0,2.75,2.25,5,5,5h377.69c2.75,0,5-2.25,5-5V5C439.49,2.25,437.24,0,434.49,0h0Z"/>
  </g>
  <path class="cls-3" d="m290.32,50.19c-16.37,0-31.67,4.59-44.68,12.55,24.61,15.06,41.04,42.19,41.04,73.16s-16.43,58.1-41.04,73.16c13.01,7.96,28.31,12.55,44.68,12.55,47.34,0,85.72-38.38,85.72-85.72s-38.38-85.72-85.72-85.72Z"/>
  <path class="cls-3" d="m286.68,135.9c0-30.97-16.43-58.1-41.04-73.16-24.61,15.06-41.04,42.19-41.04,73.16s16.43,58.1,41.04,73.16c24.61-15.06,41.04-42.19,41.04-73.16Z"/>
  <g>
    <path class="cls-4" d="m244.45,208.31c.03-.52-.08-1.05-.35-1.53-.52-.91-1.47-1.43-2.44-1.43-.4,0-.8.09-1.19.27-21.71-15.55-35.87-40.98-35.87-69.73,0-30.97,16.43-58.1,41.04-73.16-2.9-1.77-5.92-3.37-9.03-4.8-.04-.02-.08-.05-.12-.07-.24-.11-.48-.21-.72-.32-.21-.09-.42-.18-.62-.27-.27-.12-.54-.24-.81-.36,0,0,0,0,0,0-.06-.02-.11-.05-.17-.07,0,0,0,0,0,0,0,0-.01,0-.02,0,0,0,0,0-.01,0,0,0,0,0-.01,0,0,0-.01,0-.02,0,0,0,0,0-.01,0,0,0-.01,0-.02,0,0,0,0,0-.01,0,0,0-.01,0-.02,0,0,0,0,0-.01,0,0,0-.01,0-.02,0,0,0,0,0-.01,0,0,0-.01,0-.02,0,0,0,0,0,0,0h-.02s0-.01,0-.01c0,0-.02,0-.03-.01h0s-.02,0-.03-.01h0c-.34-.14-.68-.28-1.03-.42-.01,0-.03-.01-.04-.02-.11-.04-.22-.09-.32-.13-.03-.01-.06-.02-.09-.03-4.53-1.79-9.26-3.2-14.13-4.2-.03,0-.06-.02-.09-.03-.73-.15-1.46-.29-2.2-.42-.02,0-.03,0-.05,0-.68-.12-1.37-.23-2.06-.34-.04,0-.09,0-.13,0-4.17-.62-8.43-.95-12.77-.95h0s-.04,0-.06,0h-.02s-.01,0-.02,0h-.01s-.01,0-.02,0c0,0,0,0-.01,0h-.02s0,0,0,0c0,0-.02,0-.02,0,0,0,0,0,0,0,0,0-.02,0-.03,0h0s-.02,0-.03,0c0,0,0,0,0,0,0,0-.02,0-.03,0h0s-.02,0-.03,0c0,0,0,0,0,0,0,0-.02,0-.03,0,0,0,0,0,0,0,0,0-.02,0-.03,0,0,0,0,0,0,0,0,0-.02,0-.03,0,0,0,0,0,0,0,0,0-.02,0-.03,0,0,0,0,0,0,0,0,0-.02,0-.02,0,0,0,0,0,0,0,0,0-.02,0-.03,0,0,0,0,0,0,0,0,0-.02,0-.03,0,0,0,0,0,0,0,0,0-.02,0-.03,0,0,0,0,0,0,0,0,0-.02,0-.03,0,0,0,0,0,0,0,0,0-.02,0-.03,0,0,0,0,0,0,0,0,0-.02,0-.03,0,0,0,0,0,0,0-.01,0-.02,0-.03,0,0,0,0,0,0,0-.01,0-.02,0-.03,0,0,0,0,0,0,0-.01,0-.02,0-.03,0,0,0,0,0,0,0-.01,0-.02,0-.03,0,0,0,0,0,0,0-.01,0-.02,0-.03,0h0s-.02,0-.03,0c0,0,0,0,0,0-.01,0-.02,0-.03,0,0,0,0,0,0,0-.01,0-.02,0-.03,0,0,0,0,0,0,0-.01,0-.02,0-.03,0,0,0,0,0,0,0-.01,0-.02,0-.03,0h0s-.02,0-.03,0c0,0,0,0,0,0-.01,0-.02,0-.03,0h0c-.18,0-.36.01-.54.01-.36,0-.71.02-1.07.03-.19,0-.37,0-.56.01,0,0,0,0,0,0-.01,0-.02,0-.03,0,0,0,0,0,0,0-.01,0-.02,0-.03,0,0,0,0,0,0,0,0,0-.02,0-.02,0,0,0,0,0-.01,0,0,0-.01,0-.02,0,0,0-.01,0-.02,0,0,0-.01,0-.02,0,0,0-.01,0-.02,0,0,0-.01,0-.02,0,0,0-.01,0-.02,0,0,0-.01,0-.01,0,0,0-.02,0-.02,0,0,0,0,0,0,0,0,0-.02,0-.03,0,0,0,0,0,0,0,0,0-.02,0-.03,0,0,0,0,0,0,0-.01,0-.02,0-.03,0h0c-.23,0-.45.02-.68.03,0,0,0,0,0,0-5.04.25-9.96.94-14.73,2.03-.02,0-.03,0-.05,0-.06.01-.12.03-.18.04-.03,0-.05.01-.08.02-.11.03-.23.05-.34.08,0,0-.01,0-.02,0,0,0,0,0-.01,0,0,0-.01,0-.02,0,0,0-.01,0-.02,0,0,0,0,0-.01,0,0,0-.02,0-.02,0,0,0,0,0,0,0-.02,0-.04,0-.06.01h0s-.02,0-.03,0h0c-.22.05-.45.11-.67.17-.39.1-.78.19-1.17.3-.11.03-.23.06-.34.09,0,0-.02,0-.03,0,0,0,0,0,0,0,0,0-.02,0-.03,0,0,0,0,0,0,0-.4.11-.8.22-1.19.33,0,0,0,0,0,0-4.82,1.36-9.47,3.14-13.91,5.29,0,0-.02,0-.03.01-.4.19-.8.39-1.19.59h0s-.02.01-.03.01c0,0,0,0,0,0h-.03s0,.02,0,.02c0,0-.02,0-.03.01h0s-.02.01-.03.01h0s-.02.01-.03.02c0,0,0,0,0,0,0,0-.02,0-.02.01,0,0,0,0,0,0,0,0-.02,0-.02.01h0s-.01.01-.02.01c-.02.01-.04.02-.06.03,0,0,0,0,0,0,0,0-.02,0-.02.01,0,0,0,0,0,0,0,0-.02,0-.02.01,0,0,0,0,0,0,0,0-.02,0-.02.01,0,0,0,0,0,0,0,0-.02,0-.02.01,0,0,0,0,0,0,0,0-.02,0-.02.01,0,0,0,0,0,0,0,0-.01,0-.02.01,0,0,0,0,0,0,0,0-.01,0-.02.01,0,0,0,0,0,0,0,0,0,0,0,0,0,0,0,0,0,0,0,0-.02,0-.03.01,0,0,0,0,0,0-.04.02-.09.05-.13.07-.63.32-1.25.65-1.86.99-.05.03-.11.05-.16.08-.01,0-.02.02-.03.02-4.35,2.39-8.47,5.15-12.31,8.23-.02.01-.04.02-.06.04,0,0,0,0,0,0,0,0-.01,0-.02.01,0,0,0,0-.01,0h-.01s0,.02-.01.02c0,0,0,0-.01,0,0,0-.01,0-.02.01,0,0,0,0,0,0,0,0-.01,0-.02.01,0,0,0,0,0,0,0,0-.01.01-.02.02h0c-.07.06-.14.12-.21.18-.83.67-1.65,1.36-2.46,2.07-.05.04-.1.09-.15.13,0,0,0,0,0,0,0,0-.01.01-.02.02,0,0,0,0,0,0,0,0-.01.01-.02.02,0,0,0,0,0,0,0,0-.01.01-.02.02,0,0,0,0,0,0,0,0,0,0-.02.01h-.01s-.01.02-.01.02c0,0,0,0,0,0,0,0-.01,0-.01.01,0,0,0,0,0,0,0,0-.01,0-.01.01,0,0,0,0-.01,0,0,0,0,0-.01.01,0,0,0,0-.01.01,0,0,0,0-.01,0,0,0,0,0-.01.01,0,0,0,0,0,0,0,0,0,0-.01.01,0,0,0,0-.01,0,0,0-.01.01-.02.02h0s-.02.02-.02.02c0,0,0,0,0,0-.02.02-.03.03-.05.05-.02.01-.03.03-.04.04-3.7,3.29-7.11,6.9-10.19,10.78,0,0-.02.02-.02.02-.04.04-.07.09-.1.14-.48.6-.95,1.21-1.41,1.83,0,0-.01.01-.02.02,0,0,0,0,0,0,0,0,0,.01-.02.02,0,0,0,0,0,0,0,0-.01.01-.02.02,0,0,0,0,0,0,0,0,0,.01-.01.02,0,0,0,0,0,0,0,0-.01.01-.01.02,0,0,0,0,0,0,0,0,0,.01-.01.02,0,0,0,0,0,.01,0,0,0,.01-.01.01,0,0,0,0,0,.01,0,0,0,0-.01.01,0,0,0,.01-.01.02,0,0,0,0,0,0,0,0-.01.01-.02.02,0,0,0,0,0,0-.31.42-.62.84-.92,1.27,0,0,0,0,0,.01-2.87,4.02-5.4,8.31-7.55,12.81,0,.01-.01.02-.02.03-.25.53-.49,1.05-.74,1.58,0,0,0,0,0,0,0,0,0,0,0,.01,0,0,0,0,0,.01,0,0,0,0,0,0,0,0,0,0,0,0,0,0,0,.01-.01.02,0,0,0,0,0,0,0,0,0,.02-.01.02h0s0,.02-.01.03h0s0,.02-.01.03c0,0,0,0,0,0,0,0,0,.02-.01.03,0,0,0,0,0,0,0,0,0,.02-.01.03,0,0,0,0,0,0,0,0,0,.02-.01.03h0s0,.02-.01.03h0c-.17.38-.34.77-.51,1.15h0s0,.02-.01.03h0s0,.02,0,.03c0,0,0,.01,0,.01,0,0,0,.01,0,.02,0,0,0,.01,0,.02,0,0,0,0,0,.01,0,0,0,.01,0,.02,0,0,0,0,0,.01,0,0,0,.02,0,.02,0,0,0,0,0,0,0,0,0,.01-.01.02,0,0,0,0,0,0,0,0,0,.02-.01.03,0,0,0,0,0,0,0,0,0,.02-.01.03,0,0,0,0,0,0-.03.06-.05.12-.08.19-.02.04-.03.08-.05.12-.06.14-.12.27-.17.41,0,.02,0,.03-.01.05-1.88,4.52-3.38,9.24-4.47,14.12,0,.02-.01.04-.02.06-.04.17-.07.33-.11.5,0,0,0,.02,0,.03h0s0,.02,0,.03c0,0,0,0,0,0,0,0,0,.01,0,.02,0,0,0,0,0,.01,0,0,0,.01,0,.02,0,0,0,.01,0,.02,0,0,0,0,0,0,0,0,0,.02,0,.02,0,0,0,0,0,0-.03.13-.05.27-.08.4-.05.25-.1.51-.15.77-.08.41-.16.81-.23,1.22-.05.26-.09.52-.14.78-.03.15-.05.3-.08.44,0,.02,0,.04,0,.06-.78,4.66-1.2,9.44-1.2,14.32,0,.15,0,.3,0,.45,0,.02,0,.03,0,.04,0,.53.01,1.06.02,1.58h0s0,.02,0,.03h0s0,.02,0,.03h0s0,.02,0,.03c0,0,0,0,0,0,0,0,0,.02,0,.02,0,0,0,0,0,0,0,0,0,0,0,0,0,0,0,.01,0,.02,0,0,0,0,0,.01,0,0,0,.02,0,.02,0,0,0,0,0,0,0,0,0,.02,0,.03,0,0,0,0,0,0,0,0,0,.02,0,.03,0,0,0,0,0,0,0,0,0,.02,0,.03,0,0,0,0,0,0,0,0,0,.02,0,.03,0,0,0,0,0,0,0,0,0,.02,0,.03,0,0,0,0,0,0,0,0,0,.02,0,.03,0,0,0,0,0,0,0,0,0,.02,0,.03,0,0,0,0,0,0,0,0,0,.02,0,.03,0,0,0,0,0,0,0,.01,0,.02,0,.03,0,0,0,0,0,0,0,.01,0,.02,0,.03,0,0,0,0,0,0,0,.05,0,.09,0,.13h0c0,.3.03.6.04.9.01.32.03.65.04.97,0,.08,0,.16.01.23,0,.02,0,.03,0,.05.28,5.02,1,9.93,2.11,14.68,0,0,0,.02,0,.03.06.27.13.53.2.79.1.39.19.78.29,1.17.08.31.17.62.25.93.1.38.21.76.31,1.14.02.06.03.13.05.19,0,.02.01.03.02.05,1.39,4.79,3.19,9.41,5.35,13.82,0,.02.01.03.02.05.16.33.33.66.5.99.05.11.11.21.16.32.01.03.03.06.04.09,0,0,0,0,0,0,0,0,0,.02.01.02,0,0,0,0,0,0,0,0,0,.01.01.02,0,0,0,0,0,.01,0,0,0,.01,0,.02,0,0,0,0,0,.01,0,0,0,.01,0,.02,0,0,0,0,0,.01,0,0,0,.01,0,.02,0,0,0,0,0,.01,0,0,0,0,0,.01,0,0,0,.01,0,.02,0,0,0,0,0,.01,0,0,0,.01,0,.02,0,0,0,0,0,0,0,0,0,.01.01.02,0,0,0,0,0,0,0,0,0,.02.01.02,0,0,0,0,0,0,0,0,0,.02.01.03,0,0,0,0,0,0,.16.31.32.61.49.91.1.19.2.38.3.57.02.04.04.08.06.12,0,0,0,0,0,0,.07.13.14.26.22.4,0,0,0,0,0,0,0,0,0,.02.01.03,0,0,0,0,0,0,0,0,0,.02.01.02,0,0,0,0,0,0,0,0,0,.02.01.02,0,0,0,0,0,0,0,0,0,.01.01.02,0,0,0,0,0,0,0,0,0,.01.01.02,0,0,0,0,0,0,0,0,0,0,0,.01.01.03.03.05.05.08,2.41,4.32,5.19,8.41,8.28,12.23.01.01.02.03.03.05.07.09.14.17.21.25.25.31.5.61.76.91.2.24.4.48.61.72.26.31.53.61.8.91.16.18.31.36.47.53,0,0,.02.01.03.02,3.32,3.69,6.96,7.09,10.87,10.16,0,0,0,0,0,0,.51.4,1.02.79,1.53,1.17.09.07.18.13.28.2.42.31.84.62,1.27.93,0,0,0,0,0,0,0,0,0,0,.01,0,0,0,0,0,.01,0,0,0,0,0,.01,0,0,0,.01,0,.02.01,0,0,0,0,0,0,0,0,.01,0,.02.01,0,0,0,0,0,0,0,0,.02.01.02.02,0,0,0,0,0,0,0,0,0,0,.01,0,0,0,0,0,0,0,.09.07.19.13.28.2.01,0,.03.02.04.03,4.03,2.84,8.31,5.33,12.8,7.45.02,0,.03.02.05.03.18.09.36.16.55.25.35.16.7.32,1.05.48.3.13.61.27.91.4.35.15.7.3,1.06.45.15.06.3.13.45.19.02,0,.04.01.06.02,4.53,1.85,9.25,3.32,14.13,4.38.02,0,.04.02.06.02.04,0,.09.02.13.03h0s.02,0,.03,0h0s.02,0,.03,0c0,0,0,0,0,0,0,0,.02,0,.03,0,0,0,0,0,0,0,0,0,.02,0,.03,0,0,0,0,0,0,0,0,0,.02,0,.03,0h0s.02,0,.03,0c0,0,0,0,0,0,0,0,.02,0,.03,0,0,0,0,0,0,0,0,0,.02,0,.02,0,0,0,0,0,.01,0,0,0,.01,0,.02,0,0,0,0,0,.01,0,0,0,.01,0,.02,0,0,0,.01,0,.01,0,0,0,.01,0,.02,0,0,0,.01,0,.01,0,0,0,.01,0,.02,0,0,0,0,0,.02,0,0,0,0,0,.01,0,0,0,0,0,.02,0,0,0,0,0,.01,0,0,0,.01,0,.02,0,0,0,0,0,.01,0,0,0,0,0,.02,0,0,0,0,0,.01,0,0,0,.01,0,.02,0,0,0,0,0,.01,0,0,0,.01,0,.02,0,0,0,0,0,0,0,0,0,.02,0,.02,0h0s.02,0,.03,0c0,0,0,0,0,0,.02,0,.05,0,.07.01.13.03.27.05.4.08.51.1,1.03.2,1.55.3.23.04.45.08.68.12.27.05.54.1.81.14.03,0,.05,0,.08,0,4.5.73,9.11,1.11,13.81,1.11.29,0,.58-.01.87-.02.03,0,.06,0,.1,0,0,0,.02,0,.03,0,.41,0,.81-.01,1.22-.02h0c.14,0,.27-.01.41-.02.56-.02,1.11-.05,1.67-.07.36-.02.72-.02,1.07-.05.03,0,.06-.01.09-.01,4.95-.31,9.79-1.04,14.48-2.16.07-.01.13-.02.2-.04.15-.03.29-.07.43-.11.2-.05.4-.1.6-.15.7-.18,1.39-.36,2.08-.56.2-.06.4-.11.6-.17.17-.05.34-.09.5-.14.04-.01.07-.03.11-.05,4.7-1.4,9.24-3.19,13.56-5.33.07-.03.14-.05.21-.09.49-.25.99-.5,1.47-.76,0,0,0,0,0,0,.08-.04.17-.08.25-.13,0,0,0,0,0,0,0,0,.02,0,.03-.01,0,0,0,0,0,0,0,0,.01,0,.02-.01,0,0,0,0,0,0,0,0,.01,0,.02-.01,0,0,0,0,0,0,0,0,.01,0,.02-.01,0,0,0,0,0,0,0,0,.02,0,.02-.01,0,0,0,0,0,0,0,0,.02,0,.02-.01,0,0,0,0,.01,0,0,0,.01,0,.02,0,0,0,0,0,.01,0,0,0,.01,0,.02,0,0,0,0,0,.01,0,0,0,0,0,.01,0,0,0,.01,0,.02,0,0,0,0,0,.01,0,0,0,.01,0,.02-.01,0,0,0,0,.01,0,0,0,.01,0,.02-.01,0,0,0,0,0,0,0,0,.02-.01.03-.02h0c.59-.32,1.18-.64,1.76-.97.01,0,.02-.02.04-.03.86-.49,1.72-.99,2.57-1.51-.4-.25-.79-.5-1.19-.75Z"/>
    <path class="cls-4" d="m256.76,194.43c-.67,0-1.35.24-1.89.73-1,.91-2.04,1.81-3.08,2.67-1.2.98-1.37,2.75-.39,3.94.55.67,1.36,1.02,2.17,1.02.62,0,1.25-.21,1.77-.63,1.13-.93,2.23-1.88,3.31-2.86,1.14-1.04,1.22-2.81.18-3.95-.55-.61-1.31-.92-2.07-.92Z"/>
    <path class="cls-4" d="m253.53,71.71c.94-1.23.71-2.99-.52-3.93-.14-.1-.27-.21-.41-.31h0s-.02-.01-.03-.02h0s-.04-.03-.05-.04h0c-.13-.1-.25-.19-.38-.29h0c-.15-.11-.29-.22-.44-.32h0c-.48-.35-.95-.69-1.44-1.03,0,0,0,0,0,0-.02-.01-.04-.03-.05-.04h0s-.02-.01-.03-.02h0s-.02-.01-.03-.02c0,0,0,0,0,0,0,0-.02-.01-.03-.02h0s-.02-.01-.03-.02h0s-.04-.03-.05-.04h0s-.07-.05-.11-.08c0,0,0,0,0,0,0,0-.02-.01-.03-.02,0,0,0,0,0,0,0,0-.02-.01-.03-.02h0s-.01-.01-.02-.02c0,0,0,0,0,0,0,0-.01,0-.02-.01,0,0,0,0,0,0,0,0-.01,0-.02-.01,0,0,0,0,0,0,0,0-.01,0-.02-.01,0,0,0,0-.01,0,0,0-.01,0-.02-.01,0,0,0,0-.01,0,0,0,0,0-.01,0,0,0-.01,0-.01-.01,0,0,0,0-.01,0,0,0-.01,0-.01-.01,0,0,0,0-.01,0,0,0-.01,0-.02-.01,0,0,0,0-.01,0,0,0-.01,0-.02-.01,0,0,0,0,0,0,0,0-.01,0-.02-.01,0,0,0,0,0,0,0,0-.02-.01-.02-.02t0,0s-.05-.04-.08-.06c-.48-.33-1.04-.49-1.58-.49-.89,0-1.77.42-2.31,1.21-.88,1.28-.55,3.02.72,3.9,1.11.77,2.22,1.57,3.3,2.39.51.39,1.11.58,1.7.58.84,0,1.68-.38,2.23-1.1Z"/>
    <path class="cls-4" d="m277.67,112.71c.39,1.29.75,2.61,1.08,3.93.32,1.28,1.46,2.13,2.72,2.13.22,0,.45-.03.67-.08,1.5-.37,2.42-1.89,2.05-3.39-.03-.12-.06-.24-.09-.36,0,0,0,0,0,0,0,0,0-.01,0-.02-.32-1.29-.68-2.57-1.06-3.83-.37-1.21-1.48-1.99-2.68-1.99-.27,0-.54.04-.81.12-1.48.45-2.32,2.01-1.87,3.49Z"/>
    <path class="cls-4" d="m266.54,85.08c1.19-.99,1.35-2.75.37-3.94-.43-.51-.86-1.02-1.3-1.52,0,0,0,0,0,0-.11-.12-.21-.24-.32-.36,0,0,0,0,0,0,0,0-.01-.01-.02-.02,0,0,0,0,0,0,0,0-.01-.01-.02-.02,0,0,0,0,0,0,0,0-.01-.01-.02-.02,0,0,0,0,0,0,0,0-.01-.01-.02-.02,0,0,0,0,0,0,0,0-.01-.01-.02-.02,0,0,0,0,0,0,0,0-.01-.01-.02-.02,0,0,0,0,0,0,0,0-.01-.01-.02-.02,0,0,0,0,0,0-.37-.42-.74-.83-1.12-1.24-.55-.6-1.3-.9-2.06-.9-.68,0-1.36.25-1.9.74-1.14,1.05-1.21,2.82-.16,3.96.92,1,1.82,2.03,2.68,3.07.55.67,1.35,1.01,2.16,1.01.63,0,1.27-.21,1.79-.65Z"/>
    <path class="cls-4" d="m283.31,146.1c-.15-.02-.29-.03-.44-.03-1.36,0-2.55.99-2.77,2.37-.21,1.34-.46,2.68-.73,4.01-.32,1.52.65,3,2.17,3.32.19.04.39.06.58.06,1.3,0,2.46-.91,2.74-2.23.27-1.31.52-2.62.73-3.95h0s0-.02,0-.03h0s0-.02,0-.03c0,0,0,0,0-.01,0,0,0-.01,0-.02,0,0,0,0,0-.01,0,0,0-.01,0-.02,0,0,0-.01,0-.02,0,0,0-.01,0-.02,0,0,0-.01,0-.02,0,0,0,0,0-.01,0,0,0-.02,0-.02,0,0,0,0,0,0,0,0,0-.02,0-.03,0,0,0,0,0,0,0-.01,0-.02,0-.03h0s0-.04,0-.06c.24-1.53-.81-2.96-2.33-3.2Z"/>
    <path class="cls-4" d="m278.97,164.23c-.34-.14-.7-.2-1.05-.2-1.11,0-2.16.66-2.6,1.76-.5,1.25-1.05,2.51-1.62,3.74-.65,1.4-.04,3.07,1.37,3.72.38.18.78.26,1.18.26,1.06,0,2.07-.6,2.55-1.63.08-.16.15-.33.23-.49h0s0-.02,0-.03c0,0,0,0,0-.02,0,0,0,0,0-.01,0,0,0-.01,0-.02,0,0,0,0,0,0,0,0,0-.02.01-.03,0,0,0,0,0,0,0,0,0-.02.01-.03,0,0,0,0,0,0,.5-1.11.98-2.23,1.44-3.37.57-1.44-.12-3.06-1.56-3.64Z"/>
    <path class="cls-4" d="m286.63,132.8s0,0,0,0c0,0,0-.02,0-.03,0,0,0,0,0,0,0,0,0-.02,0-.03,0,0,0-.01,0-.02,0,0,0,0,0-.01,0,0,0-.02,0-.03,0,0,0,0,0,0,0,0,0-.02,0-.03,0,0,0,0,0,0,0-.02,0-.04,0-.07h0c-.03-.68-.06-1.36-.1-2.04,0,0,0,0,0,0,0-.01,0-.02,0-.03,0,0,0,0,0,0,0,0,0-.02,0-.03,0,0,0,0,0,0,0,0,0-.02,0-.03,0,0,0,0,0,0,0,0,0-.02,0-.03,0,0,0,0,0-.01,0,0,0-.01,0-.02,0,0,0-.01,0-.02,0,0,0-.01,0-.02,0,0,0-.02,0-.02,0,0,0,0,0-.01,0,0,0-.02,0-.03,0,0,0,0,0,0,0-.01,0-.02,0-.03h0c0-.06,0-.12-.01-.18-.1-1.48-1.33-2.61-2.79-2.61-.06,0-.13,0-.19,0-1.54.1-2.71,1.44-2.61,2.99.09,1.35.15,2.72.17,4.07.03,1.53,1.28,2.75,2.8,2.75.02,0,.03,0,.05,0,1.55-.03,2.78-1.3,2.75-2.85,0-.54-.02-1.08-.04-1.61Z"/>
    <path class="cls-4" d="m270.66,180.92c-.49-.34-1.05-.5-1.6-.5-.89,0-1.76.42-2.3,1.2-.77,1.11-1.58,2.21-2.41,3.28-.95,1.22-.72,2.98.5,3.93.51.4,1.11.59,1.71.59.84,0,1.66-.37,2.22-1.09.51-.65,1-1.31,1.49-1.98,0,0,0,0,0,0,0,0,.01-.01.02-.02,0,0,0,0,0,0,0,0,0-.01.01-.02,0,0,0,0,0,0,0,0,0-.01.01-.02,0,0,0,0,0,0,0,0,0-.01.01-.02,0,0,0,0,0-.01,0,0,0,0,0-.01h.01s0-.02,0-.03c0,0,0-.01.01-.02,0,0,0,0,0-.01,0,0,0-.01.01-.02,0,0,0,0,0,0,0,0,.01-.01.02-.02h0s.01-.02.02-.03h0c.31-.42.61-.85.91-1.28.88-1.27.57-3.02-.7-3.9Z"/>
    <path class="cls-4" d="m276.25,101c1.38-.7,1.93-2.38,1.24-3.76-.65-1.28-1.32-2.54-2.03-3.77,0,0,0,0,0,0,0,0,0-.01,0-.02,0,0,0,0,0-.01,0,0,0,0,0-.02,0,0,0,0,0-.01,0,0,0,0,0,0-.52-.9-1.46-1.41-2.43-1.41-.47,0-.95.12-1.39.37-1.34.77-1.81,2.48-1.04,3.82.67,1.17,1.32,2.38,1.93,3.59.49.98,1.48,1.54,2.5,1.54.43,0,.86-.1,1.26-.3Z"/>
  </g>
</svg>