<?xml version="1.0" encoding="UTF-8"?>
<svg id="Layer_1" data-name="Layer 1" xmlns="http://www.w3.org/2000/svg" viewBox="0 0 490 280">
  <defs>
    <style>
      .cls-1 {
        stroke: #000;
        stroke-linecap: round;
        stroke-linejoin: round;
        stroke-width: 5px;
      }

      .cls-1, .cls-2 {
        fill: #fff;
      }

      .cls-3 {
        fill: none;
      }

      .cls-3, .cls-4, .cls-5, .cls-6, .cls-7, .cls-8, .cls-2 {
        stroke-width: 0px;
      }

      .cls-5 {
        fill: #196cac;
      }

      .cls-6 {
        fill: #231f20;
      }

      .cls-7 {
        fill: #d0e1f1;
      }

      .cls-8 {
        fill: #bccbd3;
      }
    </style>
  </defs>
  <rect class="cls-3" x="0" width="490" height="280"/>
  <rect class="cls-8" x="59.99" y="8.19" width="387.69" height="271.81" rx="5" ry="5"/>
  <g>
    <rect class="cls-2" x="54.3" y="2.5" width="382.69" height="266.81" rx="2.5" ry="2.5"/>
    <path class="cls-4" d="m434.49,5v261.81H56.8V5h377.69M434.49,0H56.8C54.05,0,51.8,2.25,51.8,5v261.81c0,2.75,2.25,5,5,5h377.69c2.75,0,5-2.25,5-5V5C439.49,2.25,437.24,0,434.49,0h0Z"/>
  </g>
  <g>
    <rect class="cls-7" x="78.6" y="22.36" width="339" height="165.99" rx="2.5" ry="2.5"/>
    <path class="cls-4" d="m415.1,24.86v160.99H81.1V24.86h334m0-5H81.1c-2.75,0-5,2.25-5,5v160.99c0,2.75,2.25,5,5,5h334c2.75,0,5-2.25,5-5V24.86c0-2.75-2.25-5-5-5h0Z"/>
  </g>
  <polygon class="cls-1" points="273.6 103.84 225.88 79.65 225.88 128.02 273.6 103.84"/>
  <g>
    <path class="cls-8" d="m373.41,145.17h-176.33c-4.18,0-7.57,3.49-7.57,7.8v101.02c0,4.31,3.39,7.8,7.57,7.8h262.22c4.18,0,7.57-3.49,7.57-7.8v-101.02c0-4.31-3.39-7.8-7.57-7.8h-85.89Z"/>
    <g>
      <path class="cls-5" d="m188.88,251.1c-2.79,0-5.07-2.11-5.07-4.7v-95.98c0-2.59,2.27-4.7,5.07-4.7h129.77l-.4-37.15,32.27,37.15h100.59c2.79,0,5.07,2.11,5.07,4.7v95.98c0,2.59-2.27,4.7-5.07,4.7H188.88Z"/>
      <path class="cls-6" d="m320.82,115.34l27.06,31.15,1.49,1.72h101.73c1.42,0,2.57.99,2.57,2.2v95.98c0,1.21-1.15,2.2-2.57,2.2H188.88c-1.42,0-2.57-.99-2.57-2.2v-95.98c0-1.21,1.15-2.2,2.57-2.2h132.29l-.05-5.05-.3-27.82m-5.15-13.55l.44,41.42h-127.24c-4.18,0-7.57,3.22-7.57,7.2v95.98c0,3.98,3.39,7.2,7.57,7.2h262.22c4.18,0,7.57-3.22,7.57-7.2v-95.98c0-3.98-3.39-7.2-7.57-7.2h-99.45l-35.98-41.42h0Z"/>
    </g>
    <rect class="cls-2" x="202.5" y="164.81" width="78.17" height="15.67" rx=".96" ry=".96"/>
    <rect class="cls-2" x="290.54" y="164.81" width="123.63" height="15.67" rx=".96" ry=".96"/>
    <rect class="cls-2" x="202.5" y="217.12" width="236.99" height="15.67" rx=".96" ry=".96"/>
    <rect class="cls-2" x="202.5" y="190.96" width="197.83" height="15.67" rx=".96" ry=".96"/>
  </g>
</svg>