<?xml version="1.0" encoding="UTF-8"?>
<svg id="Layer_1" data-name="Layer 1" xmlns="http://www.w3.org/2000/svg" viewBox="0 0 490 280">
  <defs>
    <style>
      .cls-1, .cls-2, .cls-3, .cls-4, .cls-5 {
        stroke-width: 0px;
      }

      .cls-1, .cls-6 {
        fill: none;
      }

      .cls-7 {
        fill: #196cac;
        stroke: #000;
        stroke-miterlimit: 10;
        stroke-width: 4px;
      }

      .cls-3 {
        fill: #d0e1f1;
      }

      .cls-4 {
        fill: #bccbd3;
      }

      .cls-5 {
        fill: #fff;
      }

      .cls-6 {
        stroke: #fff;
        stroke-linecap: round;
        stroke-linejoin: round;
        stroke-width: 6px;
      }
    </style>
  </defs>
  <rect class="cls-4" x="59.99" y="8.19" width="387.69" height="271.81" rx="5" ry="5"/>
  <rect class="cls-1" x=".64" width="490" height="280"/>
  <g>
    <rect class="cls-5" x="54.3" y="2.5" width="382.69" height="266.81" rx="2.5" ry="2.5"/>
    <path class="cls-2" d="m434.49,5v261.81H56.8V5h377.69M434.49,0H56.8C54.05,0,51.8,2.25,51.8,5v261.81c0,2.75,2.25,5,5,5h377.69c2.75,0,5-2.25,5-5V5C439.49,2.25,437.24,0,434.49,0h0Z"/>
  </g>
  <rect class="cls-1" x=".64" width="490" height="280"/>
  <rect class="cls-3" x="87.4" y="209.96" width="216.69" height="12.61" rx=".96" ry=".96"/>
  <rect class="cls-3" x="87.4" y="231" width="201.22" height="12.61" rx=".96" ry=".96"/>
  <rect class="cls-3" x="87.4" y="186.75" width="180.88" height="12.61" rx=".96" ry=".96"/>
  <path class="cls-4" d="m364.72,201.06c12.04,9.48,24.08,12.82,40.6,12.82,39.09,0,70.77-31.69,70.77-70.77s-31.69-70.77-70.77-70.77-70.77,31.69-70.77,70.77c0,14.68,2.51,23.83,10.16,35.13l-13.57,39.4,33.58-16.58Z"/>
  <path class="cls-7" d="m360.05,188.89c11.28,8.88,25.49,14.19,40.96,14.19,36.6,0,66.27-29.67,66.27-66.27s-29.67-66.27-66.27-66.27-66.27,29.67-66.27,66.27c0,13.75,4.19,26.52,11.35,37.1l-11.35,29.17,25.31-14.19Z"/>
  <path class="cls-5" d="m426.58,147.29c0-1.75.24-3.28.71-4.58.47-1.3,1.26-2.53,2.36-3.69,1.1-1.16,2.54-2.36,4.34-3.59,1.54-1.04,2.8-2.02,3.78-2.95.97-.92,1.69-1.93,2.17-3.02.47-1.09.71-2.42.71-3.98,0-1.94-.74-3.5-2.21-4.69-1.47-1.18-3.58-1.78-6.32-1.78-2.34,0-4.52.3-6.54.89-2.02.59-4.13,1.39-6.32,2.38l-2.84-6.04c2.29-1.04,4.67-1.91,7.14-2.59,2.47-.69,5.32-1.03,8.56-1.03s6.07.5,8.49,1.49c2.42,1,4.3,2.42,5.65,4.26,1.35,1.85,2.02,4.1,2.02,6.75,0,2.13-.3,3.98-.9,5.54-.6,1.56-1.51,2.97-2.73,4.23-1.22,1.26-2.8,2.57-4.75,3.94-1.75,1.23-3.08,2.29-4,3.16-.92.88-1.55,1.75-1.87,2.63-.33.88-.49,1.98-.49,3.3v1.07h-6.95v-1.71Zm3.74,17.48c-1.55,0-2.82-.43-3.81-1.28-1-.85-1.5-2.18-1.5-3.98,0-1.89.5-3.24,1.5-4.05,1-.8,2.27-1.21,3.81-1.21s2.8.42,3.78,1.24c.97.83,1.46,2.17,1.46,4.01s-.49,3.07-1.46,3.94c-.97.88-2.23,1.31-3.78,1.31Z"/>
  <g>
    <line class="cls-6" x1="358.07" y1="114.78" x2="405.04" y2="114.78"/>
    <line class="cls-6" x1="381.55" y1="106.23" x2="381.55" y2="112.15"/>
    <path class="cls-6" d="m365.11,118.07s15.04,43.28,39.92,49.33"/>
    <path class="cls-6" d="m398.34,118.07s-15.17,43.28-40.28,49.33"/>
  </g>
  <g>
    <path class="cls-4" d="m54.3,45.88V5c0-1.38,1.12-2.5,2.5-2.5h376.69c1.93,0,3.5,1.57,3.5,3.5v39.88H54.3Z"/>
    <path class="cls-2" d="m433.49,5c.55,0,1,.45,1,1v37.38H56.8V5h376.69M433.49,0H56.8C54.03,0,51.8,2.24,51.8,5v43.38h387.69V6C439.49,2.69,436.8,0,433.49,0h0Z"/>
  </g>
  <path class="cls-4" d="m144.95,136.26c9.48-12.04,12.82-24.08,12.82-40.6,0-39.09-31.69-70.77-70.77-70.77S16.22,56.57,16.22,95.65s31.69,70.77,70.77,70.77c14.68,0,23.83-2.51,35.13-10.16l39.4,13.57-16.58-33.58Z"/>
  <path class="cls-7" d="m134.57,133.53c8.88-11.28,14.19-25.49,14.19-40.96,0-36.6-29.67-66.27-66.27-66.27S16.22,55.97,16.22,92.57s29.67,66.27,66.27,66.27c13.75,0,26.52-4.19,37.1-11.35l29.17,11.35-14.19-25.31Z"/>
  <g>
    <polyline class="cls-6" points="46.12 121.12 58.14 64.52 66.67 64.52 77.14 121.12"/>
    <line class="cls-6" x1="51.79" y1="94.42" x2="71.12" y2="94.42"/>
  </g>
  <path class="cls-5" d="m95.33,100.84c0-1.75.24-3.28.71-4.58.47-1.3,1.26-2.53,2.36-3.69,1.1-1.16,2.54-2.36,4.34-3.59,1.54-1.04,2.8-2.02,3.78-2.95.97-.92,1.69-1.93,2.17-3.02.47-1.09.71-2.42.71-3.98,0-1.94-.74-3.5-2.21-4.69-1.47-1.18-3.58-1.78-6.32-1.78-2.34,0-4.52.3-6.54.89-2.02.59-4.13,1.39-6.32,2.38l-2.84-6.04c2.29-1.04,4.67-1.91,7.14-2.59,2.47-.69,5.32-1.03,8.56-1.03s6.07.5,8.49,1.49c2.42,1,4.3,2.42,5.65,4.26,1.35,1.85,2.02,4.1,2.02,6.75,0,2.13-.3,3.98-.9,5.54-.6,1.56-1.51,2.97-2.73,4.23-1.22,1.26-2.8,2.57-4.75,3.94-1.75,1.23-3.08,2.29-4,3.16-.92.88-1.55,1.75-1.87,2.63-.33.88-.49,1.98-.49,3.3v1.07h-6.95v-1.71Zm3.74,17.48c-1.55,0-2.82-.43-3.81-1.28-1-.85-1.5-2.18-1.5-3.98,0-1.89.5-3.24,1.5-4.05,1-.8,2.27-1.21,3.81-1.21s2.8.42,3.78,1.24c.97.83,1.46,2.17,1.46,4.01s-.49,3.07-1.46,3.94c-.97.88-2.23,1.31-3.78,1.31Z"/>
</svg>