<?xml version="1.0" encoding="UTF-8"?>
<svg id="Layer_1" data-name="Layer 1" xmlns="http://www.w3.org/2000/svg" viewBox="0 0 490 280">
  <defs>
    <style>
      .cls-1 {
        font-family: NotoSansMono-Black, 'Noto Sans Mono';
        font-size: 43.68px;
        font-variation-settings: 'wght' 900, 'wdth' 100;
        font-weight: 800;
      }

      .cls-1, .cls-2 {
        fill: #fff;
      }

      .cls-3 {
        letter-spacing: .05em;
      }

      .cls-4, .cls-5, .cls-6 {
        fill: none;
      }

      .cls-4, .cls-7, .cls-8, .cls-9, .cls-10, .cls-2 {
        stroke-width: 0px;
      }

      .cls-5, .cls-6 {
        stroke: #000;
        stroke-miterlimit: 10;
        stroke-width: 5px;
      }

      .cls-11 {
        letter-spacing: -.1em;
      }

      .cls-6 {
        stroke-linecap: round;
      }

      .cls-8 {
        fill: #196cac;
      }

      .cls-9 {
        fill: #d0e1f1;
      }

      .cls-10 {
        fill: #bccbd3;
      }
    </style>
  </defs>
  <rect class="cls-4" y="0" width="490" height="280"/>
  <rect class="cls-10" x="59.99" y="8.19" width="387.69" height="271.81" rx="5" ry="5"/>
  <g>
    <rect class="cls-2" x="54.3" y="2.5" width="382.69" height="266.81" rx="2.5" ry="2.5"/>
    <path class="cls-7" d="m434.49,5v261.81H56.8V5h377.69M434.49,0H56.8C54.05,0,51.8,2.25,51.8,5v261.81c0,2.75,2.25,5,5,5h377.69c2.75,0,5-2.25,5-5V5C439.49,2.25,437.24,0,434.49,0h0Z"/>
  </g>
  <path class="cls-6" d="m348.75,118.63s-13.53-14.4-34.16-2.95"/>
  <g>
    <path class="cls-10" d="m477.49,183.99c.95-1.35.63-3.23-.72-4.18l-83.38-58.87c-1.35-.95-3.79-1.53-5.42-1.29l-35.32,5.23c-1.63.24-2.63,1.75-2.22,3.34l8.38,32.52c.41,1.6,1.85,3.68,3.2,4.64l83.38,58.87c1.35.95,3.23.63,4.18-.72l27.92-39.54Z"/>
    <path class="cls-8" d="m476.49,176.46c.95-1.35.63-3.23-.72-4.18l-83.63-59.05c-1.35-.95-3.78-1.52-5.41-1.26l-35.8,5.68c-1.63.26-2.64,1.78-2.24,3.38l8.15,33.06c.4,1.6,1.82,3.69,3.17,4.64l83.63,59.05c1.35.95,3.23.63,4.18-.72l28.67-40.61Z"/>
    <text class="cls-1" transform="translate(376.27 154.86) rotate(35.41)"><tspan class="cls-3" x="0" y="0">A</tspan><tspan class="cls-11" x="28.39" y="0">L</tspan><tspan class="cls-3" x="50.23" y="0">T</tspan></text>
  </g>
  <g>
    <rect class="cls-10" x="97.87" y="78.71" width="217.04" height="152.23"/>
    <g>
      <path class="cls-8" d="m162.87,149.32c-1.05-1.27-2.77-1.27-3.83,0l-35.09,42.37c-1.05,1.27-.56,2.31,1.09,2.31h71.84c1.65,0,2.14-1.04,1.09-2.31l-35.09-42.37Z"/>
      <path class="cls-5" d="m162.87,149.32c-1.05-1.27-2.77-1.27-3.83,0l-35.09,42.37c-1.05,1.27-.56,2.31,1.09,2.31h71.84c1.65,0,2.14-1.04,1.09-2.31l-35.09-42.37Z"/>
    </g>
    <g>
      <path class="cls-9" d="m227.76,117.97c-1.05-1.27-2.77-1.27-3.83,0l-61.06,73.72c-1.05,1.27-.56,2.31,1.09,2.31h123.78c1.65,0,2.14-1.04,1.09-2.31l-61.06-73.72Z"/>
      <path class="cls-5" d="m227.76,117.97c-1.05-1.27-2.77-1.27-3.83,0l-61.06,73.72c-1.05,1.27-.56,2.31,1.09,2.31h123.78c1.65,0,2.14-1.04,1.09-2.31l-61.06-73.72Z"/>
    </g>
  </g>
  <g>
    <path class="cls-10" d="m54.3,45.88V5c0-1.38,1.12-2.5,2.5-2.5h376.69c1.93,0,3.5,1.57,3.5,3.5v39.88H54.3Z"/>
    <path class="cls-7" d="m433.49,5c.55,0,1,.45,1,1v37.38H56.8V5h376.69M433.49,0H56.8C54.03,0,51.8,2.24,51.8,5v43.38h387.69V6C439.49,2.69,436.8,0,433.49,0h0Z"/>
  </g>
</svg>