<?xml version="1.0" encoding="UTF-8"?>
<svg id="Layer_1" data-name="Layer 1" xmlns="http://www.w3.org/2000/svg" viewBox="0 0 490 280">
  <defs>
    <style>
      .cls-1 {
        fill: none;
      }

      .cls-1, .cls-2, .cls-3, .cls-4, .cls-5, .cls-6 {
        stroke-width: 0px;
      }

      .cls-7 {
        font-family: NotoSansMono-Bold, 'Noto Sans Mono';
        font-size: 24.46px;
        font-variation-settings: 'wght' 700, 'wdth' 100;
        font-weight: 700;
      }

      .cls-7, .cls-6 {
        fill: #fff;
      }

      .cls-3 {
        fill: #196cac;
      }

      .cls-4 {
        fill: #d0e1f1;
      }

      .cls-5 {
        fill: #bccbd3;
      }
    </style>
  </defs>
  <rect class="cls-1" x="0" width="490" height="280"/>
  <rect class="cls-5" x="59.99" y="8.19" width="387.69" height="271.81" rx="5" ry="5"/>
  <g>
    <rect class="cls-6" x="54.3" y="2.5" width="382.69" height="266.81" rx="2.5" ry="2.5"/>
    <path class="cls-2" d="m434.49,5v261.81H56.8V5h377.69M434.49,0H56.8C54.05,0,51.8,2.25,51.8,5v261.81c0,2.75,2.25,5,5,5h377.69c2.75,0,5-2.25,5-5V5C439.49,2.25,437.24,0,434.49,0h0Z"/>
  </g>
  <g>
    <path class="cls-5" d="m54.3,45.88V5c0-1.38,1.12-2.5,2.5-2.5h376.69c1.93,0,3.5,1.57,3.5,3.5v39.88H54.3Z"/>
    <path class="cls-2" d="m433.49,5c.55,0,1,.45,1,1v37.38H56.8V5h376.69M433.49,0H56.8C54.03,0,51.8,2.24,51.8,5v43.38h387.69V6C439.49,2.69,436.8,0,433.49,0h0Z"/>
  </g>
  <g>
    <rect class="cls-4" x="195.78" y="75.58" width="181.22" height="115.26" rx=".62" ry=".62"/>
    <path class="cls-2" d="m374.5,78.08v110.26h-176.22v-110.26h176.22m1.88-5h-179.99c-1.72,0-3.12,1.4-3.12,3.12v114.03c0,1.72,1.4,3.12,3.12,3.12h179.99c1.72,0,3.12-1.4,3.12-3.12v-114.03c0-1.72-1.4-3.12-3.12-3.12h0Z"/>
  </g>
  <g>
    <path class="cls-4" d="m196.4,208.28h179.99c.34,0,.62.28.62.62v32.19c0,.34-.28.62-.62.62h-179.98c-.34,0-.62-.28-.62-.62v-32.19c0-.34.28-.62.62-.62Z"/>
    <path class="cls-2" d="m374.5,210.78v28.42h-176.22v-28.42h176.22m1.88-5h-179.99c-1.72,0-3.12,1.4-3.12,3.12v32.19c0,1.72,1.4,3.12,3.12,3.12h179.99c1.72,0,3.12-1.4,3.12-3.12v-32.19c0-1.72-1.4-3.12-3.12-3.12h0Z"/>
  </g>
  <rect class="cls-3" x="82.5" y="209.66" width="100.37" height="30.28" rx="5" ry="5"/>
  <text class="cls-7" transform="translate(96 234.35)"><tspan x="0" y="0">Label</tspan></text>
  <rect class="cls-3" x="82.5" y="82.11" width="100.37" height="30.28" rx="5" ry="5"/>
  <text class="cls-7" transform="translate(96 106.8)"><tspan x="0" y="0">Label</tspan></text>
  <g>
    <path class="cls-2" d="m213.91,108.73c0,.51-.41.92-.92.92h-1.89c-1.51,0-1.51-1.56-1.51-1.56,0,0,0,1.56-1.51,1.56h-1.89c-.51,0-.92-.41-.92-.92h0c0-.51.41-.92.92-.92h6.79c.51,0,.92.41.92.92h0Z"/>
    <path class="cls-2" d="m205.29,85.78c0-.51.41-.92.92-.92h1.89c1.51,0,1.51,1.56,1.51,1.56,0,0,0-1.56,1.51-1.56h1.89c.51,0,.92.41.92.92h0c0,.51-.41.92-.92.92h-6.79c-.51,0-.92-.41-.92-.92h0Z"/>
    <path class="cls-2" d="m208.42,97.25s1.18,10.56-1.4,10.56h5.15c-2.57,0-1.4-10.56-1.4-10.56,0,0-1.18-10.56,1.4-10.56h-5.15c2.57,0,1.4,10.56,1.4,10.56Z"/>
  </g>
</svg>