<svg id="brain-icon" xmlns="http://www.w3.org/2000/svg" viewBox="0 0 150 150"><defs><style>.cls-1{fill:#005A6A;}</style></defs><path class="cls-1" d="M81,133h-.22a2.5,2.5,0,0,1-2.28-2.7c.36-4.07,1.46-9.76,4.73-13.79,4.9-6.06,17.17-5.92,21.2-5.88h.55c2.54,0,4.24-.73,5.19-2.23.65-1,.45-1.5,0-2.66a8.83,8.83,0,0,1-.59-1.84c-.28-1.68.68-3.24,1.7-4.9.29-.47.73-1.18,1-1.69a8.37,8.37,0,0,0-2-.61,2.5,2.5,0,0,1,0-4.93,19.22,19.22,0,0,0,3.35-.86c-.08-.32-.19-.71-.28-1a17.72,17.72,0,0,1-.68-3.06c-.32-2.85,2.32-4,3.73-4.53,1.94-.81,2.56-1.24,2.65-2.34.17-2.12-2.38-5.61-4.24-8.16-1.51-2.06-2.7-3.69-3.11-5.18a21.39,21.39,0,0,1-.26-5.5c.08-4.31.21-10.21-1.82-15.92-1.61-4.55-11.33-27-44.29-22.26C53.71,24.58,44.71,29.8,39.26,38s-6.92,18.82-4.07,29.82a31.75,31.75,0,0,0,5.94,11.63c3.33,4.6,6.78,9.36,5.94,19.92a56.45,56.45,0,0,1-4.32,17.39c-.33.84-.62,1.56-.81,2.12a2.5,2.5,0,1,1-4.74-1.59c.23-.69.54-1.47.9-2.38a51,51,0,0,0,4-15.94c.69-8.72-1.82-12.19-5-16.58a36.6,36.6,0,0,1-6.73-13.32c-3.21-12.39-1.52-24.41,4.75-33.84S51.55,19.84,64.56,18c36.81-5.31,47.87,20.33,49.71,25.52,2.33,6.58,2.2,13.28,2.1,17.71a23.36,23.36,0,0,0,.1,4.07,21.08,21.08,0,0,0,2.31,3.55c2.46,3.36,5.52,7.54,5.2,11.52-.36,4.31-3.84,5.76-5.72,6.54l-.53.23c.1.46.23.91.36,1.36.43,1.48.87,3,.24,4.59a3.58,3.58,0,0,1-1.56,1.78,3.84,3.84,0,0,1,.54,1.5c.26,1.83-.81,3.58-1.85,5.27a17.24,17.24,0,0,0-1,1.67c.06.17.15.37.22.54a7.2,7.2,0,0,1-.38,7.25c-1.32,2.07-4,4.54-9.41,4.54h-.6c-11.49-.1-15.72,2.12-17.27,4-2.59,3.21-3.38,8.31-3.62,11.07A2.51,2.51,0,0,1,81,133Zm32.69-41.61Zm.43-.75Z"/><path class="cls-1" d="M62.5,93.41h-.08l-3.21-.11a2.5,2.5,0,0,1-1.93-1,2.54,2.54,0,0,1-.4-2.15c1.45-5.23,2.06-9.71,1.75-12.75A16.83,16.83,0,0,1,46,73.8c-4.14-3.42-6.52-8.93-6.52-15.11a28.8,28.8,0,0,1,8.61-20.14c4.39-4.41,12.32-9.66,25.09-9.66,20.93,0,30.35,12.54,30.35,21.44,0,13.19-10.76,14.59-17.15,14.74a11.84,11.84,0,0,1-4.94,7.28,10.69,10.69,0,0,1-8.32,1.15C70,77.17,67.62,83.7,64.87,91.72A2.51,2.51,0,0,1,62.5,93.41ZM60.59,72.09A2.51,2.51,0,0,1,63,73.78a18.32,18.32,0,0,1,.71,6.65c2-5,4.17-8.89,7-11.56a2.5,2.5,0,0,1,2.5-.56c2.32.77,4.22.71,5.64-.19,1.6-1,2.71-3.14,3.07-5.85a2.49,2.49,0,0,1,2.48-2.18c9.21,0,14.21-1.56,14.21-9.76,0-6.63-8.06-16.44-25.35-16.44-11.06,0-17.83,4.45-21.56,8.19a23.8,23.8,0,0,0-7.14,16.6c0,4.7,1.71,8.8,4.7,11.26,2.76,2.28,6.53,3,10.9,2.19A2.56,2.56,0,0,1,60.59,72.09Z"/></svg>
