<svg id="calendara" xmlns="http://www.w3.org/2000/svg" viewBox="0 0 1280.000000 1272.000000">
<g transform="translate(0.000000,1272.000000) scale(0.100000,-0.100000)"
fill="#003366" stroke="none">
<path d="M1731 12705 c-121 -34 -218 -115 -269 -223 l-27 -57 0 -1115 0 -1115
32 -66 c41 -82 111 -150 201 -192 63 -30 74 -32 208 -35 148 -4 212 6 294 48
66 34 138 108 172 178 l33 67 3 1090 c2 1069 2 1091 -18 1155 -35 115 -121
204 -240 252 -73 28 -305 36 -389 13z"/>
<path d="M4721 12704 c-124 -33 -238 -131 -283 -241 l-23 -58 -3 -1059 c-2
-701 1 -1077 8 -1115 27 -148 127 -259 279 -311 87 -29 295 -29 383 1 152 51
250 158 277 304 15 78 15 2089 1 2166 -30 158 -155 283 -318 318 -73 15 -256
13 -321 -5z"/>
<path d="M7702 12704 c-140 -37 -248 -141 -286 -275 -15 -50 -16 -170 -14
-1145 l3 -1089 27 -55 c55 -113 141 -185 261 -222 58 -17 88 -20 210 -16 135
3 145 5 209 35 85 40 156 106 199 186 l34 62 0 1120 0 1120 -27 57 c-52 111
-150 190 -273 223 -75 19 -270 19 -343 -1z"/>
<path d="M10691 12705 c-121 -34 -218 -115 -269 -223 l-27 -57 0 -1120 0
-1120 31 -60 c41 -77 116 -148 202 -188 67 -32 67 -32 232 -32 149 0 170 2
223 23 115 47 203 140 239 254 17 57 18 117 18 1128 0 1011 -1 1071 -18 1128
-36 113 -127 208 -244 254 -71 28 -304 36 -387 13z"/>
<path d="M319 10986 c-144 -39 -261 -167 -304 -333 -13 -50 -15 -667 -15
-5113 0 -5519 -4 -5114 56 -5232 50 -98 112 -151 272 -231 l145 -72 6001 0
6001 0 68 33 c120 59 206 169 242 309 13 50 15 667 15 5113 0 5519 4 5114 -56
5232 -50 98 -112 151 -272 231 l-145 72 -419 3 -418 3 0 -439 c0 -482 -2 -500
-62 -594 -70 -111 -221 -210 -373 -243 -103 -23 -474 -17 -553 9 -73 24 -161
111 -205 203 l-32 68 -5 460 -5 460 -72 3 -73 3 0 34 0 35 -800 0 -800 0 0
-432 c0 -460 -2 -485 -50 -578 -37 -74 -137 -163 -232 -209 -136 -65 -191 -73
-439 -69 -268 6 -296 13 -384 101 -72 73 -113 150 -125 238 -6 35 -10 246 -9
469 l0 405 -71 3 -70 3 0 34 0 35 -800 -2 -801 -3 1 -396 c0 -220 -4 -428 -10
-468 -25 -178 -158 -319 -367 -387 -87 -29 -91 -29 -318 -29 -285 0 -318 8
-407 93 -40 38 -70 79 -96 131 l-37 75 -3 458 -3 458 -74 0 -75 0 0 35 0 35
-800 0 -799 0 -3 -463 -3 -462 -33 -67 c-64 -130 -225 -245 -397 -283 -102
-23 -474 -17 -552 8 -70 24 -159 111 -204 203 l-34 69 -5 460 -5 460 -72 3
-73 3 0 34 0 35 -397 -1 c-282 0 -411 -4 -444 -13z m11445 -2265 c52 -7 64
-12 93 -46 18 -21 43 -59 55 -84 l23 -46 0 -3805 0 -3805 -29 -53 c-38 -67
-102 -126 -174 -160 l-57 -27 -5349 0 -5348 0 -34 39 c-18 21 -44 60 -56 85
l-23 46 0 3805 0 3805 27 50 c33 63 113 139 175 166 27 11 75 24 108 29 76 10
10509 11 10589 1z"/>
<path d="M10950 8306 c0 -3 -1 -99 -1 -213 l0 -208 23 0 c16 0 23 6 22 18 -1
9 2 17 7 17 5 0 9 -4 9 -8 0 -15 49 -32 91 -32 121 0 162 225 53 296 -32 21
-96 21 -128 0 l-25 -16 -3 73 c-3 66 -5 72 -25 75 -13 2 -23 1 -23 -2z m189
-182 c16 -21 21 -41 21 -91 0 -55 -4 -67 -25 -88 -15 -16 -36 -25 -55 -25 -19
0 -40 9 -55 25 -21 21 -25 33 -25 88 0 83 23 117 80 117 30 0 43 -6 59 -26z"/>
<path d="M8982 8088 l3 -203 25 0 25 0 0 163 c0 89 2 162 5 162 3 0 37 -62 75
-136 103 -200 100 -196 138 -192 l32 3 3 203 2 202 -25 0 -25 0 0 -167 c0 -98
-4 -163 -9 -157 -5 5 -46 80 -92 167 l-84 157 -38 0 -37 0 2 -202z"/>
<path d="M9481 8193 c-68 -13 -104 -68 -105 -158 0 -103 48 -155 142 -155 85
0 132 57 132 162 0 103 -75 169 -169 151z m90 -69 c20 -22 24 -35 24 -91 0
-59 -3 -67 -28 -89 -45 -38 -98 -31 -122 17 -29 54 -11 167 27 182 34 14 75 6
99 -19z"/>
<path d="M10152 8190 c-128 -29 -150 -234 -32 -295 33 -17 126 -20 164 -5 35
13 38 56 4 45 -13 -4 -46 -9 -75 -12 -48 -5 -54 -3 -83 25 -16 17 -30 40 -30
51 0 20 5 21 110 21 l110 0 0 43 c0 45 -27 100 -57 115 -29 15 -75 20 -111 12z
m95 -62 c13 -12 23 -32 23 -45 0 -22 -3 -23 -85 -23 -79 0 -85 1 -85 20 0 60
99 93 147 48z"/>
<path d="M10516 8189 c-15 -4 -37 -16 -47 -25 -18 -16 -19 -16 -19 4 0 17 -6
22 -25 22 l-26 0 3 -152 c3 -148 4 -153 24 -156 21 -3 22 1 26 107 3 99 6 112
27 135 32 34 83 35 105 4 12 -17 16 -49 16 -135 l0 -113 25 0 25 0 0 100 c0
113 14 156 55 166 74 18 95 -20 95 -168 0 -97 0 -99 23 -96 21 3 22 8 25 104
3 128 -10 173 -58 196 -42 21 -95 11 -125 -22 -18 -20 -18 -20 -44 4 -31 28
-66 37 -105 25z"/>
<path d="M11377 8186 c-48 -18 -62 -29 -81 -70 -33 -71 -14 -170 41 -211 56
-40 213 -28 213 17 0 16 -4 19 -22 14 -51 -16 -109 -18 -138 -6 -28 12 -60 54
-60 79 0 6 45 11 113 13 l112 3 -1 42 c-2 93 -88 151 -177 119z m108 -61 c14
-13 25 -33 25 -45 0 -20 -5 -21 -87 -18 -82 3 -88 4 -85 23 9 60 102 86 147
40z"/>
<path d="M11756 8190 c-15 -5 -37 -17 -47 -26 -18 -16 -19 -16 -19 4 0 17 -6
22 -25 22 l-25 0 0 -156 0 -155 23 3 c21 3 22 9 27 108 3 58 10 113 14 123 12
25 38 37 80 37 29 0 36 4 36 19 0 15 -23 35 -33 30 -1 0 -15 -5 -31 -9z"/>
<path d="M9705 8173 c3 -10 27 -71 51 -137 58 -154 59 -156 93 -156 27 0 31 6
57 73 15 39 40 106 56 147 15 41 28 78 28 82 0 5 -11 8 -24 8 -21 0 -28 -12
-65 -112 -23 -62 -45 -118 -49 -125 -5 -7 -26 38 -53 110 -42 113 -48 122 -74
125 -23 3 -27 1 -20 -15z"/>
<path d="M1000 6885 l0 -585 700 0 700 0 0 585 0 585 -700 0 -700 0 0 -585z"/>
<path d="M2550 6885 l0 -585 700 0 700 0 0 585 0 585 -700 0 -700 0 0 -585z"/>
<path d="M4100 6885 l0 -585 700 0 700 0 0 585 0 585 -700 0 -700 0 0 -585z"/>
<path d="M5650 6885 l0 -585 700 0 700 0 0 585 0 585 -700 0 -700 0 0 -585z"/>
<path d="M7200 6885 l0 -585 700 0 700 0 0 585 0 585 -700 0 -700 0 0 -585z"/>
<path d="M8750 6885 l0 -585 700 0 700 0 0 585 0 585 -700 0 -700 0 0 -585z"/>
<path d="M10300 6885 l0 -585 700 0 700 0 0 585 0 585 -700 0 -700 0 0 -585z"/>
<path d="M1000 5555 l0 -585 700 0 700 0 0 585 0 585 -700 0 -700 0 0 -585z"/>
<path d="M2550 5555 l0 -585 700 0 700 0 0 585 0 585 -700 0 -700 0 0 -585z"/>
<path d="M4100 5555 l0 -585 700 0 700 0 0 585 0 585 -700 0 -700 0 0 -585z"/>
<path d="M5650 5555 l0 -585 700 0 700 0 0 585 0 585 -700 0 -700 0 0 -585z"/>
<path d="M7200 5555 l0 -585 700 0 700 0 0 585 0 585 -700 0 -700 0 0 -585z"/>
<path d="M8750 5555 l0 -585 700 0 700 0 0 585 0 585 -700 0 -700 0 0 -585z"/>
<path d="M10300 5555 l0 -585 700 0 700 0 0 585 0 585 -700 0 -700 0 0 -585z"/>
<path d="M1000 4245 l0 -585 700 0 700 0 0 585 0 585 -700 0 -700 0 0 -585z"/>
<path d="M2550 4245 l0 -585 700 0 700 0 0 585 0 585 -700 0 -700 0 0 -585z"/>
<path d="M4100 4245 l0 -585 700 0 700 0 0 585 0 585 -700 0 -700 0 0 -585z"/>
<path d="M5650 4245 l0 -585 700 0 700 0 0 585 0 585 -700 0 -700 0 0 -585z"/>
<path d="M7200 4245 l0 -585 700 0 700 0 0 585 0 585 -700 0 -700 0 0 -585z"/>
<path d="M8750 4245 l0 -585 700 0 700 0 0 585 0 585 -700 0 -700 0 0 -585z"/>
<path d="M10300 4245 l0 -585 700 0 700 0 0 585 0 585 -700 0 -700 0 0 -585z"/>
<path d="M1000 2930 l0 -590 700 0 700 0 0 590 0 590 -700 0 -700 0 0 -590z"/>
<path d="M2550 2930 l0 -590 700 0 700 0 0 590 0 590 -700 0 -700 0 0 -590z"/>
<path d="M4100 2930 l0 -590 700 0 700 0 0 590 0 590 -700 0 -700 0 0 -590z"/>
<path d="M5650 2930 l0 -590 700 0 700 0 0 590 0 590 -700 0 -700 0 0 -590z"/>
<path d="M7200 2930 l0 -590 700 0 700 0 0 590 0 590 -700 0 -700 0 0 -590z"/>
<path d="M8750 2930 l0 -590 700 0 700 0 0 590 0 590 -700 0 -700 0 0 -590z"/>
<path d="M10300 2930 l0 -590 700 0 700 0 0 590 0 590 -700 0 -700 0 0 -590z"/>
<path d="M1000 1605 l0 -585 700 0 700 0 0 585 0 585 -700 0 -700 0 0 -585z"/>
<path d="M2550 1605 l0 -585 700 0 700 0 0 585 0 585 -700 0 -700 0 0 -585z"/>
<path d="M4100 1605 l0 -585 700 0 700 0 0 585 0 585 -700 0 -700 0 0 -585z"/>
<path d="M5650 1605 l0 -585 700 0 700 0 0 585 0 585 -700 0 -700 0 0 -585z"/>
<path d="M7200 1605 l0 -585 700 0 700 0 0 585 0 585 -700 0 -700 0 0 -585z"/>
<path d="M8750 1605 l0 -585 700 0 700 0 0 585 0 585 -700 0 -700 0 0 -585z"/>
<path d="M10300 1605 l0 -585 700 0 700 0 0 585 0 585 -700 0 -700 0 0 -585z"/>
</g>
</svg>
