<svg id="dialogs2" xmlns="http://www.w3.org/2000/svg" viewBox="0 0 150 150">
<path d="M82,82v4c0,3.3-2.7,6-6,6H40.4H39L38,92.8l-13,10V96v-4h-4h-4c-3.3,0-6-2.7-6-6V44c0-3.3,2.7-6,6-6h23v-4H17  c-5.5,0-10,4.5-10,10v42c0,5.5,4.5,10,10,10h4v15l19.4-15H76c5.5,0,10-4.5,10-10v-4H82z" fill="#005A6A"/>
<path d="M111,22c3.3,0,6,2.7,6,6v42c0,3.3-2.7,6-6,6h-4h-4v4v6.9l-13-10L89,76h-1.4H52c-3.3,0-6-2.7-6-6V28  c0-3.3,2.7-6,6-6H111 M111,18H52c-5.5,0-10,4.5-10,10v42c0,5.5,4.5,10,10,10h35.6L107,95V80h4c5.5,0,10-4.5,10-10V28  C121,22.5,116.5,18,111,18L111,18z" fill="#003366"/>
</svg>
