<svg xmlns="http://www.w3.org/2000/svg" xmlns:xlink="http://www.w3.org/1999/xlink" viewBox="0 0 150 150"><defs><style>.cls-1{fill:none;}.cls-2{fill:#005a6a;}.cls-3{fill:url(#New_Pattern_Swatch_2);}.cls-4{fill:url(#New_Pattern_Swatch_2-3);}</style><pattern id="New_Pattern_Swatch_2" data-name="New Pattern Swatch 2" width="107.74" height="107.74" patternTransform="translate(0 36.77)" patternUnits="userSpaceOnUse" viewBox="0 0 107.74 107.74"><rect class="cls-1" width="107.74" height="107.74"/><rect class="cls-2" width="107.74" height="107.74"/></pattern><pattern id="New_Pattern_Swatch_2-3" data-name="New Pattern Swatch 2" width="107.74" height="107.74" patternTransform="translate(-126.97 -500.82) scale(3)" patternUnits="userSpaceOnUse" viewBox="0 0 107.74 107.74"><rect class="cls-1" width="107.74" height="107.74"/><rect class="cls-2" width="107.74" height="107.74"/></pattern></defs><path class="cls-3" d="M62.5,92.91h-.06l-3.21-.11a2,2,0,0,1-1.86-2.53c1.56-5.65,2.15-10.32,1.7-13.42a16.54,16.54,0,0,1-12.71-3.43c-4-3.33-6.34-8.69-6.34-14.73A28.29,28.29,0,0,1,48.48,38.9c4.33-4.34,12.14-9.51,24.74-9.51,20.59,0,29.85,12.25,29.85,20.94,0,13.05-10.59,14.16-17,14.25a11.46,11.46,0,0,1-4.81,7.35,10.29,10.29,0,0,1-8.23,1c-3.3,3.7-5.76,10.38-8.59,18.62A2,2,0,0,1,62.5,92.91ZM60.59,72.59A2,2,0,0,1,62.49,74c.95,2.79.85,6.47.32,10.1,2.44-6.6,4.82-11.63,8.21-14.82a2,2,0,0,1,2-.44c2.47.81,4.51.73,6.07-.25,1.72-1.08,2.92-3.35,3.29-6.21a2,2,0,0,1,2-1.74c9.32,0,14.71-1.68,14.71-10.26,0-6.83-8.21-16.93-25.84-16.93C62,33.4,55.1,37.92,51.31,41.73a24.27,24.27,0,0,0-7.29,17c0,4.85,1.78,9.09,4.88,11.65,2.88,2.37,6.79,3.16,11.31,2.3A1.69,1.69,0,0,1,60.59,72.59Z"/><path class="cls-4" d="M81,132.49h-.18A2,2,0,0,1,79,130.32c.35-4,1.43-9.58,4.61-13.51,4.76-5.88,16.81-5.76,20.82-5.7h.55c2.72,0,4.56-.8,5.61-2.46.79-1.24.5-1.94,0-3.12a7.78,7.78,0,0,1-.55-1.73c-.25-1.5.66-3,1.63-4.56a13.77,13.77,0,0,0,1.17-2.16c-.43-.32-5.18-.73-6.13-.9a2,2,0,0,1,0-3.94c1.48-.24,6.77-.71,7.46-1.06-.06-.36-.24-1-.37-1.46a17.14,17.14,0,0,1-.66-3c-.28-2.48,2-3.44,3.43-4,2-.82,2.83-1.33,2.95-2.76.19-2.31-2.43-5.88-4.34-8.49-1.48-2-2.64-3.62-3-5a21.67,21.67,0,0,1-.24-5.35C112,56.76,112.09,50.8,110,45c-1.64-4.62-11.5-27.4-44.83-22.58-11.71,1.69-20.82,7-26.36,15.3s-7,19.09-4.13,30.22c1.41,5.45,3.75,8.68,6,11.81,3.43,4.73,6.67,9.2,5.85,19.58a56.13,56.13,0,0,1-4.3,17.25c-.33.83-.61,1.54-.82,2.14a2,2,0,0,1-3.79-1.27c.22-.66.53-1.44.9-2.35a52.07,52.07,0,0,0,4-16.09c.7-8.9-1.86-12.44-5.1-16.92a36.08,36.08,0,0,1-6.66-13.15c-3.17-12.25-1.51-24.12,4.69-33.44s16.24-15.18,29.11-17c36.42-5.25,47.35,20.07,49.17,25.2,2.3,6.49,2.17,13.14,2.08,17.54a23,23,0,0,0,.1,4.21,19.58,19.58,0,0,0,2.4,3.7c2.41,3.3,5.41,7.39,5.09,11.19-.32,4-3.5,5.33-5.4,6.12-.27.11-.64.27-.91.4a18,18,0,0,0,.45,1.79,6.51,6.51,0,0,1,.26,4.26A3.85,3.85,0,0,1,116,94.68a3.44,3.44,0,0,1,.78,1.73c.23,1.65-.79,3.32-1.79,4.93a10.82,10.82,0,0,0-1.08,2h0a2.89,2.89,0,0,1,.3.65,6.65,6.65,0,0,1-.33,6.79c-1.26,2-3.83,4.31-9,4.31h-.6c-11.57-.15-16,2.22-17.66,4.21-2.68,3.32-3.49,8.53-3.73,11.34A2,2,0,0,1,81,132.49Z"/><path class="cls-4" d="M62.5,92.91h-.06l-3.21-.11a2,2,0,0,1-1.86-2.53c1.56-5.65,2.15-10.32,1.7-13.42a16.54,16.54,0,0,1-12.71-3.43c-4-3.33-6.34-8.69-6.34-14.73A28.29,28.29,0,0,1,48.48,38.9c4.33-4.34,12.14-9.51,24.74-9.51,20.59,0,29.85,12.25,29.85,20.94,0,13.05-10.59,14.16-17,14.25a11.46,11.46,0,0,1-4.81,7.35,10.29,10.29,0,0,1-8.23,1c-3.3,3.7-5.76,10.38-8.59,18.62A2,2,0,0,1,62.5,92.91ZM60.59,72.59A2,2,0,0,1,62.49,74c.95,2.79.85,6.47.32,10.1,2.44-6.6,4.82-11.63,8.21-14.82a2,2,0,0,1,2-.44c2.47.81,4.51.73,6.07-.25,1.72-1.08,2.92-3.35,3.29-6.21a2,2,0,0,1,2-1.74c9.32,0,14.71-1.68,14.71-10.26,0-6.83-8.21-16.93-25.84-16.93C62,33.4,55.1,37.92,51.31,41.73a24.27,24.27,0,0,0-7.29,17c0,4.85,1.78,9.09,4.88,11.65,2.88,2.37,6.79,3.16,11.31,2.3A1.69,1.69,0,0,1,60.59,72.59Z"/></svg>
