<svg xmlns="http://www.w3.org/2000/svg" xmlns:xlink="http://www.w3.org/1999/xlink" viewBox="0 0 150 150"><defs><style>.cls-1{fill:none;}.cls-2{fill:#005a6a;}.cls-3{fill:url(#New_Pattern_Swatch_2);}</style><pattern id="New_Pattern_Swatch_2" data-name="New Pattern Swatch 2" width="107.74" height="107.74" patternTransform="translate(238.74 178.4)" patternUnits="userSpaceOnUse" viewBox="0 0 107.74 107.74"><rect class="cls-1" width="107.74" height="107.74"/><rect class="cls-2" width="107.74" height="107.74"/></pattern></defs><path class="cls-3" d="M75,103.93c-22.6,0-41.46-19.78-46.71-25.85a4.93,4.93,0,0,1,0-6.16C33.54,65.85,52.4,46.07,75,46.07s41.46,19.78,46.71,25.85h0a4.93,4.93,0,0,1,0,6.16C116.46,84.15,97.6,103.93,75,103.93Zm0-53.86c-20.9,0-38.72,18.72-43.68,24.46a1.1,1.1,0,0,0,0,.94c5,5.74,22.78,24.46,43.68,24.46s38.72-18.72,43.68-24.46a1.1,1.1,0,0,0,0-.94C113.71,68.79,95.9,50.07,75,50.07Z"/><path class="cls-3" d="M75,93.56c-10.57,0-19.17-8.33-19.17-18.56S64.43,56.44,75,56.44,94.17,64.77,94.17,75,85.57,93.56,75,93.56Zm0-33.12C66.63,60.44,59.83,67,59.83,75S66.63,89.56,75,89.56,90.17,83,90.17,75,83.37,60.44,75,60.44Z"/><path class="cls-3" d="M81.41,76a2,2,0,0,1-2-2,3.74,3.74,0,0,0-3.79-3.58,3.91,3.91,0,0,0-1.51.3A2,2,0,0,1,72.58,67a7.92,7.92,0,0,1,3-.6A7.69,7.69,0,0,1,83.41,74,2,2,0,0,1,81.41,76Z"/></svg>
