<svg height="741" viewBox="0 0 810 741" width="810" xmlns="http://www.w3.org/2000/svg"><g fill="none" fill-rule="evenodd" transform="translate(0 -1)"><g transform="translate(0 .49)"><path d="m461.2955.5103h-450.69c-5.833 0-10.605 4.606-10.605 10.236v262.56c0 5.63 4.772 10.236 10.605 10.236h101.455l-19.772 76.116 182.325-76.116h186.682c5.832 0 10.604-4.606 10.604-10.236v-262.56c0-5.63-4.772-10.236-10.604-10.236" fill="#15375f" fill-rule="nonzero"/><path d="m804.1451 482.8701-44.006-127.47c16.598-29.658 26.071-63.844 26.071-100.248 0-113.549-92.049-205.599-205.598-205.599-113.55 0-205.6 92.05-205.6 205.599s92.05 205.599 205.6 205.599c33.069 0 64.308-7.819 91.988-21.692z" fill="#18818a" fill-rule="nonzero"/><path d="m804.1451 482.8701-44.006-127.47c16.598-29.658 26.071-63.844 26.071-100.248 0-113.549-92.049-205.599-205.598-205.599-113.55 0-205.6 92.05-205.6 205.599s92.05 205.599 205.6 205.599c33.069 0 64.308-7.819 91.988-21.692z" stroke="#fefefe" stroke-width="6.698"/></g><path d="m500.968207 220.471908c0 7.731573-2.200574 13.653312-6.601788 17.765395s-10.756642 6.168094-19.066477 6.168094h-13.299952v-46.967464h14.745599c7.667322 0 13.621186 2.023886 17.861771 6.071717 4.240586 4.047832 6.360847 9.701862 6.360847 16.962258zm-10.344407.257004c0-10.087454-4.45469-15.131105-13.364203-15.131105h-5.300706v30.583465h4.27269c9.594861 0 14.392219-5.150735 14.392219-15.45236zm18.889787-21.524077c0-3.191148 1.777593-4.786698 5.332831-4.786698 3.555239 0 5.332831 1.59555 5.332831 4.786698 0 1.520614-.444398 2.703891-1.333208 3.549866-.888809.845976-2.222004 1.268957-3.999623 1.268957-3.555238 0-5.332831-1.606258-5.332831-4.818823zm10.215905 45.200562h-9.798274v-35.916296h9.798274zm18.825536 0-13.685458-35.916296h10.248031l6.939106 20.463936c.706764 2.227378 1.167225 4.6796 1.381396 7.356737h.257004c.128502-2.420132.61038-4.872353 1.445647-7.356737l6.906979-20.463936h10.248031l-13.685458 35.916296zm43.754915-29.6197c-2.077458 0-3.705133.658566-4.883074 1.975717-1.17794 1.317152-1.852569 3.185766-2.023906 5.605898h13.749709c-.042834-2.420132-.674629-4.288746-1.895403-5.605898-1.220775-1.317151-2.869867-1.975717-4.947326-1.975717zm1.381396 30.26221c-5.782616 0-10.301557-1.59555-13.556956-4.786698s-4.883074-7.710088-4.883074-13.556956c0-6.018205 1.504529-10.671 4.513631-13.958525 3.009103-3.287524 7.169312-4.931262 12.480752-4.931262 5.075853 0 9.027249 1.445632 11.854306 4.336941 2.827057 2.891308 4.240564 6.885537 4.240564 11.982807v4.754572h-23.162477c.107086 2.784223.931632 4.958026 2.473663 6.521474 1.542031 1.563449 3.705125 2.345161 6.489348 2.345161 2.163127 0 4.20843-.224876 6.135969-.674635 1.927538-.449759 3.940716-1.167221 6.039591-2.152408v7.581615c-1.713368.856684-3.544502 1.493833-5.493458 1.911467-1.948956.417633-4.326219.626447-7.131859.626447zm42.662649-37.233441c1.32786 0 2.430824.096375 3.308925.289129l-.738886 9.18789c-.792433-.214171-1.756188-.321255-2.891294-.321255-3.126896 0-5.563055.803129-7.308549 2.409412-1.745493 1.606282-2.618227 3.855044-2.618227 6.746352v18.279403h-9.798274v-35.916296h7.420988l1.445647 6.039592h.481882c1.113689-2.013207 2.618218-3.635528 4.513631-4.867012 1.895414-1.231483 3.956779-1.847215 6.184157-1.847215zm34.88828 25.925269c0 3.683741-1.279652 6.489339-3.838996 8.416878-2.559343 1.927539-6.387592 2.891294-11.484862 2.891294-2.612886 0-4.840231-.176689-6.682101-.530071-1.841871-.353382-3.565921-.872739-5.172204-1.558086v-8.095623c1.820454.856684 3.87111 1.574146 6.152031 2.152408 2.280921.578261 4.288744.867388 6.023529.867388 3.555239 0 5.332831-1.028005 5.332831-3.084047 0-.771016-.235584-1.397456-.706761-1.879341-.471176-.481885-1.285013-1.028013-2.441537-1.6384-1.156523-.610387-2.698531-1.322495-4.62607-2.136345-2.762806-1.156523-4.792045-2.227362-6.08778-3.212549-1.295735-.985186-2.238073-2.114921-2.827043-3.389239-.58897-1.274317-.883451-2.843096-.883451-4.706384 0-3.191148 1.236819-5.659431 3.710494-7.404925 2.473675-1.745493 5.980672-2.618227 10.521097-2.618227 4.326254 0 8.534651.942338 12.625317 2.827043l-2.955545 7.067607c-1.799036-.771015-3.480253-1.40281-5.043701-1.895404-1.563449-.492593-3.158998-.738886-4.786698-.738886-2.891308 0-4.336941.781713-4.336941 2.345161 0 .878101.465815 1.638397 1.397459 2.28091.931644.642512 2.971592 1.595559 6.119905 2.859168 2.80564 1.135106 4.861651 2.195237 6.168094 3.180423 1.306443.985187 2.270198 2.120276 2.891294 3.405302s.931639 2.816326.931639 4.593945zm22.519967-18.954038c-2.077458 0-3.705133.658566-4.883074 1.975717-1.17794 1.317152-1.852569 3.185766-2.023906 5.605898h13.749709c-.042834-2.420132-.674629-4.288746-1.895403-5.605898-1.220775-1.317151-2.869867-1.975717-4.947326-1.975717zm1.381396 30.26221c-5.782616 0-10.301557-1.59555-13.556956-4.786698s-4.883074-7.710088-4.883074-13.556956c0-6.018205 1.504529-10.671 4.513631-13.958525 3.009103-3.287524 7.169312-4.931262 12.480752-4.931262 5.075853 0 9.027249 1.445632 11.854306 4.336941 2.827057 2.891308 4.240564 6.885537 4.240564 11.982807v4.754572h-23.162477c.107086 2.784223.931632 4.958026 2.473663 6.521474 1.542031 1.563449 3.705125 2.345161 6.489348 2.345161 2.163127 0 4.20843-.224876 6.135969-.674635 1.927538-.449759 3.940716-1.167221 6.039591-2.152408v7.581615c-1.713368.856684-3.544502 1.493833-5.493458 1.911467-1.948956.417633-4.326219.626447-7.131859.626447z" fill="#f8f8f9" fill-rule="nonzero"/><path d="m93.6435491 140.189285h-21.3634497v-5.654086l5.7183369-2.63429v-30.390712l-5.7183369-2.6342899v-5.654086h21.3634497v5.654086l-5.7183369 2.6342899v30.390712l5.7183369 2.63429zm40.4138639 0h-9.798274v-20.977944c0-2.591469-.46046-4.535041-1.381396-5.830776-.920935-1.295734-2.387984-1.943592-4.401191-1.943592-2.741389 0-4.722441.915567-5.943216 2.746729-1.220774 1.831162-1.831153 4.866991-1.831153 9.107576v16.898007h-9.798274v-35.916296h7.485239l1.317145 4.593945h.546134c1.092272-1.734785 2.5968-3.046563 4.513631-3.935372 1.91683-.88881 4.095987-1.333208 6.537537-1.333208 4.176334 0 7.346017 1.129735 9.509144 3.389239s3.244674 5.520208 3.244674 9.782211zm24.672375.64251c-11.179725 0-16.769504-6.135907-16.769504-18.407905 0-6.103873 1.520591-10.767377 4.561819-13.99065 3.041228-3.223274 7.399542-4.834886 13.075074-4.834886 4.154917 0 7.881436.813837 11.179669 2.441537l-2.891293 7.581615c-1.542032-.621096-2.976956-1.129744-4.304816-1.525961-1.32786-.396216-2.6557-.594321-3.98356-.594321-5.09727 0-7.645867 3.619435-7.645867 10.858415 0 7.024809 2.548597 10.53716 7.645867 10.53716 1.884704 0 3.630172-.251647 5.236454-.754949 1.606283-.503302 3.212541-1.290368 4.818823-2.361223v8.384752c-1.584865 1.006604-3.185769 1.702649-4.80276 2.088157s-3.656939.578259-6.119906.578259zm29.041442-.64251h-9.798274v-49.9872598h9.798274zm34.427236 0-1.317145-4.593945h-.514008c-1.049438 1.670534-2.537904 2.960895-4.465443 3.871122-1.927539.910226-4.122759 1.365333-6.585725 1.365333-4.219168 0-7.39956-1.129735-9.54127-3.389239s-3.212549-5.5095-3.212549-9.750086v-23.419481h9.798274v20.977944c0 2.591469.460461 4.535042 1.381396 5.830776.920935 1.295735 2.387985 1.943592 4.401192 1.943592 2.741389 0 4.722441-.915567 5.943215-2.746729 1.220775-1.831162 1.831153-4.86699 1.831153-9.107576v-16.898007h9.798274v35.916296zm42.855401-10.665662c0 3.683741-1.279652 6.489339-3.838996 8.416878-2.559343 1.927539-6.387592 2.891294-11.484862 2.891294-2.612886 0-4.840231-.176689-6.682101-.530071-1.841871-.353382-3.565921-.872739-5.172204-1.558086v-8.095623c1.820454.856684 3.87111 1.574146 6.152031 2.152408 2.280921.578261 4.288744.867388 6.023529.867388 3.555239 0 5.332831-1.028005 5.332831-3.084047 0-.771016-.235584-1.397456-.70676-1.879341-.471177-.481885-1.285014-1.028013-2.441538-1.6384-1.156523-.610387-2.698531-1.322495-4.62607-2.136345-2.762806-1.156523-4.792045-2.227362-6.08778-3.212549-1.295734-.985186-2.238073-2.114921-2.827043-3.389239-.58897-1.274317-.883451-2.843096-.883451-4.706384 0-3.191148 1.236819-5.659431 3.710494-7.404925 2.473675-1.745493 5.980672-2.618227 10.521097-2.618227 4.326255 0 8.534651.942338 12.625317 2.827043l-2.955545 7.067607c-1.799036-.771015-3.480253-1.40281-5.043701-1.895404-1.563448-.492593-3.158998-.738886-4.786698-.738886-2.891308 0-4.336941.781713-4.336941 2.345161 0 .878101.465815 1.638397 1.397459 2.28091.931644.642512 2.971592 1.595559 6.119905 2.859168 2.80564 1.135106 4.861651 2.195237 6.168094 3.180423 1.306443.985187 2.270198 2.120276 2.891294 3.405302s.931639 2.816326.931639 4.593945zm7.228235-34.5349c0-3.1911478 1.777593-4.7866978 5.332831-4.7866978 3.555239 0 5.332831 1.59555 5.332831 4.7866978 0 1.520614-.444398 2.703891-1.333208 3.5498664-.888809.8459755-2.222004 1.2689568-3.999623 1.2689568-3.555238 0-5.332831-1.6062583-5.332831-4.8188232zm10.215905 45.200562h-9.798274v-35.916296h9.798274zm18.825537 0-13.685459-35.916296h10.248031l6.939106 20.463936c.706764 2.227378 1.167225 4.6796 1.381396 7.356737h.257004c.128502-2.420132.61038-4.872353 1.445647-7.356737l6.90698-20.463936h10.24803l-13.685458 35.916296zm43.754915-29.6197c-2.077459 0-3.705134.658566-4.883075 1.975717-1.17794 1.317152-1.852569 3.185766-2.023905 5.605898h13.749709c-.042835-2.420132-.67463-4.288746-1.895404-5.605898-1.220775-1.317151-2.869867-1.975717-4.947325-1.975717zm1.381396 30.26221c-5.782617 0-10.301557-1.59555-13.556957-4.786698-3.255399-3.191148-4.883074-7.710088-4.883074-13.556956 0-6.018205 1.504529-10.671 4.513631-13.958525 3.009103-3.287524 7.169312-4.931262 12.480753-4.931262 5.075852 0 9.027248 1.445632 11.854305 4.336941 2.827057 2.891308 4.240564 6.885537 4.240564 11.982807v4.754572h-23.162477c.107086 2.784223.931632 4.958026 2.473663 6.521474 1.542031 1.563449 3.705125 2.345161 6.489348 2.345161 2.163127 0 4.20843-.224876 6.135969-.674635s3.940716-1.167221 6.039591-2.152408v7.581615c-1.713368.856684-3.544502 1.493833-5.493458 1.911467-1.948956.417633-4.326218.626447-7.131858.626447z" fill="#f8f8f9" fill-rule="nonzero"/><g transform="translate(186 329.49)"><path d="m359.6363.4716h-274.717c-46.257 0-84.103 37.847-84.103 84.104v155.543c0 46.257 37.846 84.104 84.103 84.104h51.186l15.581 81.762 102.276-81.762h105.674c46.257 0 84.104-37.847 84.104-84.104v-155.543c0-46.257-37.847-84.104-84.104-84.104" fill="#21537f" fill-rule="nonzero"/><path d="m359.6363.4716h-274.717c-46.257 0-84.103 37.847-84.103 84.104v155.543c0 46.257 37.846 84.104 84.103 84.104h51.186l15.581 81.762 102.276-81.762h105.674c46.257 0 84.104-37.847 84.104-84.104v-155.543c0-46.257-37.847-84.104-84.104-84.104z" stroke="#fefefe" stroke-width="6.621"/></g><path d="m247.447158 487.24593h2.724889c2.670406 0 4.641389-.445061 5.913011-1.335196s1.907423-2.288898 1.907423-4.19633c0-1.889266-.649426-3.233531-1.948296-4.032836-1.298871-.799306-3.310728-1.198952-6.035631-1.198952h-2.561396zm0 6.866722v15.286631h-8.447158v-39.837887h11.60803c5.413474 0 9.419022.985492 12.016763 2.956506 2.597741 1.971013 3.896592 4.96382 3.896592 8.978511 0 2.343417-.644884 4.427937-1.934672 6.253622-1.289787 1.825685-3.115445 3.256238-5.477028 4.291701l11.717026 17.357547h-9.373621l-9.509864-15.286631zm40.355615-9.836851c-1.762103 0-3.1427.558597-4.141832 1.675806-.999131 1.117211-1.571352 2.702173-1.716681 4.754933h11.662528c-.036332-2.05276-.572221-3.637722-1.607684-4.754933-1.035464-1.117209-2.434226-1.675806-4.196331-1.675806zm1.171703 25.66846c-4.904825 0-8.737799-1.353348-11.499035-4.060086-2.761235-2.706737-4.141832-6.53971-4.141832-11.499034 0-5.104652 1.276145-9.051161 3.82847-11.839646 2.552327-2.788483 6.081023-4.182705 10.586196-4.182705 4.305348 0 7.656928 1.226188 10.054844 3.678601 2.397915 2.452413 3.596854 5.840325 3.596854 10.163839v4.032836h-19.646455c.09083 2.361583.790212 4.205406 2.098166 5.531526 1.307953 1.32612 3.142693 1.98917 5.504276 1.98917 1.834769 0 3.569598-.190741 5.204539-.572227 1.634942-.381486 3.342524-.990039 5.122793-1.825676v6.430739c-1.453282.726641-3.006453 1.267072-4.659561 1.62131-1.653108.354237-3.669506.531353-6.049255.531353zm40.437362-9.591611c0 3.124555-1.085404 5.504269-3.256243 7.139211s-5.417967 2.4524-9.74148 2.4524c-2.216255 0-4.105493-.149868-5.667771-.449607s-3.024621-.740259-4.387072-1.321571v-6.866722c1.544112.726641 3.283482 1.335193 5.218164 1.825676 1.934681.490482 3.63772.73572 5.109168.73572 3.015559 0 4.523317-.871955 4.523317-2.615894 0-.653977-.199824-1.185325-.599476-1.59406-.399653-.408736-1.089952-.871963-2.070916-1.389694-.980965-.517731-2.288899-1.121743-3.923841-1.812052-2.343417-.980965-4.064622-1.889252-5.163666-2.72489-1.099045-.835636-1.898338-1.793879-2.397903-2.874758-.499565-1.080878-.749345-2.411519-.749345-3.991963 0-2.706738 1.049072-4.80034 3.147248-6.280871 2.098175-1.48053 5.072817-2.220785 8.924013-2.220785 3.669537 0 7.239106.799293 10.708817 2.397903l-2.506899 5.994757c-1.525946-.653976-2.951957-1.189866-4.278076-1.607685-1.32612-.417818-2.679469-.626725-4.060086-.626725-2.452413 0-3.678601.663051-3.678601 1.98917 0 .744807.395105 1.389691 1.185327 1.934672.790221.54498 2.52051 1.353356 5.190915 2.425152 2.379748.962798 4.123661 1.862003 5.231788 2.69764s1.925586 1.798422 2.452401 2.888383c.526814 1.089962.790217 2.388813.790217 3.896593zm23.21606 9.591611c-3.578706 0-6.385315-1.298851-8.419909-3.896592h-.435982c.290656 2.543243.435982 4.014669.435982 4.414321v12.34375h-8.310913v-43.870723h6.757726l1.171702 3.95109h.381485c1.943765-3.01556 4.823036-4.523317 8.6379-4.523317 3.596873 0 6.412564 1.38968 8.447158 4.169082 2.034594 2.779401 3.051877 6.639622 3.051877 11.58078 0 3.251718-.476851 6.076492-1.430567 8.474407-.953717 2.397915-2.311606 4.223573-4.073711 5.477028-1.762103 1.253456-3.832999 1.880174-6.212748 1.880174zm-2.452401-24.93274c-2.05276 0-3.551434.63126-4.496068 1.893798-.944633 1.262539-1.435108 3.347058-1.47144 6.253622v.899213c0 3.269884.485934 5.613266 1.457816 7.030216.971883 1.41695 2.511429 2.125413 4.618688 2.125413 3.724034 0 5.586024-3.070011 5.586024-9.210126 0-2.997394-.458686-5.245406-1.376069-6.744102-.917385-1.498697-2.35702-2.248034-4.318951-2.248034zm27.657631 9.101131c0 3.01556.495016 5.295361 1.485065 6.839474.990048 1.544111 2.602258 2.316155 4.836679 2.316155 2.216254 0 3.810298-.767503 4.782181-2.302532.971882-1.535029 1.457816-3.819371 1.457816-6.853097 0-3.015559-.490475-5.277195-1.471441-6.784975-.980965-1.50778-2.588634-2.261658-4.823054-2.261658-2.216255 0-3.814841.749337-4.795806 2.248034-.980965 1.498696-1.47144 3.764873-1.47144 6.798599zm21.063396 0c0 4.959324-1.307934 8.837711-3.92384 11.635279-2.615908 2.797567-6.258141 4.19633-10.926808 4.19633-2.92473 0-5.504266-.640343-7.738687-1.921047-2.234421-1.280705-3.951083-3.119986-5.150041-5.517902-1.198958-2.397915-1.798427-5.19544-1.798427-8.39266 0-4.97749 1.29885-8.846795 3.896592-11.60803 2.597741-2.761235 6.249056-4.141832 10.954056-4.141832 2.92473 0 5.504266.635801 7.738687 1.907423 2.234421 1.271621 3.951084 3.097279 5.150041 5.477028s1.798427 5.168192 1.798427 8.365411zm34.987583 15.286631h-8.310913v-17.793529c0-2.198089-.390564-3.84663-1.171703-4.945675-.781138-1.099044-2.025492-1.648558-3.733098-1.648558-2.325251 0-4.005582.776585-5.041046 2.32978s-1.553187 4.128191-1.553187 7.725062v14.33292h-8.310914v-30.464266h6.348993l1.117205 3.896592h.463231c.926467-1.471448 2.202611-2.5841 3.82847-3.337989 1.625859-.753891 3.474224-1.13083 5.54515-1.13083 3.542375 0 6.230906.958243 8.065674 2.874759 1.834768 1.916515 2.752138 4.68225 2.752138 8.297289zm29.810293-9.046633c0 3.124555-1.085403 5.504269-3.256243 7.139211-2.170839 1.634942-5.417967 2.4524-9.741481 2.4524-2.216254 0-4.105492-.149868-5.66777-.449607s-3.02462-.740259-4.387072-1.321571v-6.866722c1.544112.726641 3.283482 1.335193 5.218163 1.825676 1.934682.490482 3.637721.73572 5.109168.73572 3.015561 0 4.523317-.871955 4.523317-2.615894 0-.653977-.199823-1.185325-.599476-1.59406-.399652-.408736-1.08995-.871963-2.070916-1.389694-.980965-.517731-2.288899-1.121743-3.923841-1.812052-2.343417-.980965-4.064621-1.889252-5.163665-2.72489-1.099044-.835636-1.898338-1.793879-2.397903-2.874758-.499566-1.080878-.749345-2.411519-.749345-3.991963 0-2.706738 1.049072-4.80034 3.147248-6.280871 2.098175-1.48053 5.072816-2.220785 8.924013-2.220785 3.669537 0 7.239106.799293 10.708816 2.397903l-2.506898 5.994757c-1.525946-.653976-2.951957-1.189866-4.278077-1.607685-1.326119-.417818-2.679467-.626725-4.060085-.626725-2.452413 0-3.678601.663051-3.678601 1.98917 0 .744807.395105 1.389691 1.185327 1.934672.790222.54498 2.520509 1.353356 5.190914 2.425152 2.379749.962798 4.123661 1.862003 5.231789 2.69764 1.108127.835637 1.925586 1.798422 2.4524 2.888383.526815 1.089962.790218 2.388813.790218 3.896593zm6.131002-29.292564c0-2.706738 1.507757-4.060086 4.523317-4.060086s4.523316 1.353348 4.523316 4.060086c0 1.289787-.376939 2.293445-1.130829 3.011002-.753889.717559-1.884708 1.076332-3.392487 1.076332-3.01556 0-4.523317-1.362431-4.523317-4.087334zm8.665149 38.339197h-8.310914v-30.464266h8.310914zm25.66846-31.036493c3.596873 0 6.412564 1.403304 8.447159 4.209955 2.034594 2.80665 3.051876 6.653247 3.051876 11.539907 0 5.031989-1.049073 8.928541-3.147248 11.689777-2.098175 2.761235-4.954739 4.141832-8.569778 4.141832-3.578706 0-6.385314-1.298851-8.419908-3.896592h-.572228l-1.389693 3.351614h-6.348993v-42.399283h8.310914v9.864101c0 1.253455-.108995 3.260771-.326987 6.022006h.326987c1.943764-3.01556 4.823035-4.523317 8.637899-4.523317zm-2.670392 6.648731c-2.05276 0-3.551434.63126-4.496067 1.893798-.944633 1.262539-1.435108 3.347058-1.47144 6.253622v.899213c0 3.269884.485933 5.613266 1.457815 7.030216.971883 1.41695 2.51143 2.125413 4.618688 2.125413 1.707607 0 3.065496-.785668 4.07371-2.357029 1.008215-1.571361 1.512314-3.855703 1.512314-6.853097s-.508641-5.245406-1.525938-6.744102c-1.017297-1.498697-2.406977-2.248034-4.169082-2.248034zm29.347062 24.387762h-8.310914v-42.399283h8.310914zm21.335886-25.123482c-1.762104 0-3.142701.558597-4.141832 1.675806-.999131 1.117211-1.571353 2.702173-1.71668 4.754933h11.662527c-.036332-2.05276-.572221-3.637722-1.607685-4.754933-1.035463-1.117209-2.434226-1.675806-4.19633-1.675806zm1.171703 25.66846c-4.904826 0-8.737799-1.353348-11.499034-4.060086-2.761236-2.706737-4.141833-6.53971-4.141833-11.499034 0-5.104652 1.276144-9.051161 3.82847-11.839646 2.552326-2.788483 6.081023-4.182705 10.586197-4.182705 4.305346 0 7.656927 1.226188 10.054842 3.678601s3.596854 5.840325 3.596854 10.163839v4.032836h-19.646454c.09083 2.361583.790212 4.205406 2.098165 5.531526 1.307954 1.32612 3.142695 1.98917 5.504277 1.98917 1.834769 0 3.569598-.190741 5.20454-.572227s3.342522-.990039 5.122792-1.825676v6.430739c-1.453281.726641-3.006453 1.267072-4.659561 1.62131-1.653108.354237-3.669506.531353-6.049255.531353z" fill="#f8f8f9" fill-rule="nonzero"/></g></svg>