<svg height="684" viewBox="0 0 568 684" width="568" xmlns="http://www.w3.org/2000/svg"><g fill="none" fill-rule="evenodd"><path d="m387.71 177.17-44.27-53.31c-6.303255-7.547618-17.520096-8.584394-25.1-2.32l-2.07 1.71c-7.546701 6.30665-8.587433 17.522441-2.33 25.11l39.22 47.22-6.64 43.32c-1.46555 9.724954 5.202429 18.806275 14.92 20.32l1.69.26c9.727111 1.465837 18.811341-5.200995 20.33-14.92l7.91-51.56c0-.34.07-.67.1-1 1.043354-5.25731-.337824-10.704882-3.76-14.83z" fill="#e8e8e8" fill-rule="nonzero" stroke="#183761" stroke-width="3"/><path d="m14.75 671c.0219229 6.807716 5.5323038 12.322563 12.34 12.35h515.29c6.809968-.021983 12.323533-5.540016 12.34-12.35v-113.49h-540z" fill="#1a818b" fill-rule="nonzero"/><path d="m469.88 217.8h-379.54c-6.8060789.021955-12.3180447 5.533921-12.34 12.34v96.17c.016467 6.809984 5.5300318 12.328017 12.34 12.35h27.77c6.809968-.021983 12.323533-5.540016 12.34-12.35v-65.31h299.32v65.31c.016467 6.809984 5.530032 12.328017 12.34 12.35h27.77c6.809968-.021983 12.323533-5.540016 12.34-12.35v-96.17c-.021955-6.806079-5.533921-12.318045-12.34-12.34z" fill="#183963" fill-rule="nonzero"/><path d="m555.25 323.62h-14.33c-.507786-.060063-1.018674-.090116-1.53-.09h-515.29c-.5113262-.000116-1.0222138.029937-1.53.09h-9.72c-6.79 0-12.34 4.9-12.34 10.88v204c0 5.66 5 10.34 11.25 10.84v1.37h540v-1.31h3.52c6.79 0 12.34-4.9 12.34-10.89v-204c-.03-5.99-5.62-10.89-12.37-10.89z" fill="#1a818b" fill-rule="nonzero"/><path d="m52.8 362.49h176.39" stroke="#fff" stroke-linecap="round" stroke-linejoin="round" stroke-width="6"/><path d="m262.63 362.49h35.48" stroke="#fff" stroke-linecap="round" stroke-linejoin="round" stroke-width="6"/><path d="m160.28 659.56h-118.21c-3.4085623-.010978-6.1690223-2.771438-6.18-6.18v-56.1" stroke="#fff" stroke-linecap="round" stroke-linejoin="round" stroke-width="5"/><path d="m474.35 345h60.25c7.423003.021992 13.433525 6.036983 13.45 13.46v122.31" stroke="#fff" stroke-linecap="round" stroke-linejoin="round" stroke-width="5"/><rect fill="#183963" fill-rule="nonzero" height="87.73" rx="12" width="41.14" x="116.05" y="497.43"/><path d="m131.47 580.63c-5.132529-1.108376-8.802111-5.639187-8.82-10.89v-56.88c.039405-5.236867 3.70256-9.747283 8.82-10.86" stroke="#fff" stroke-linecap="round" stroke-linejoin="round"/><rect fill="#183963" fill-rule="nonzero" height="87.73" rx="12" width="41.14" x="385.02" y="497.43"/><path d="m400.44 580.63c-5.132529-1.108376-8.802111-5.639187-8.82-10.89v-56.88c.039405-5.236867 3.70256-9.747283 8.82-10.86" stroke="#fff" stroke-linecap="round" stroke-linejoin="round"/><path d="m364.67 168.53-.09-.2c-.452717-1.162004-1.004761-2.28282-1.65-3.35l-17.51-35.58-.24-4.33c1.923035-2.222981 2.987176-5.06069 3-8v-23.38c-.021983-6.8099682-5.540016-12.323533-12.35-12.34h-108.35c-6.808351.0164918-12.323508 5.531649-12.34 12.34v23.31c.001682 3.959787 1.902013 7.678635 5.11 10l-12.36 18.8c-2.864251 3.8692-4.410157 8.555995-4.41 13.37v120.69c.027469 8.32095 6.769034 15.058047 15.09 15.08h7.54c8.319333-.02198 15.05802-6.760667 15.08-15.08v3.26c.038446 11.630101 9.459882 21.04707 21.09 21.08h1.37c7.558247-.020204 14.52952-4.077881 18.28-10.64 1.623311 10.245177 10.437089 17.801054 20.81 17.84h1.37c8.44837-.02098 16.073012-5.069995 19.39-12.84 2.845078 8.646963 10.897153 14.508873 20 14.56h1.37c11.663589-.005512 21.118967-9.456415 21.13-21.12v-116.2c-.008368-2.483061-.458728-4.944802-1.33-7.27z" fill="#fff" fill-rule="nonzero" stroke="#183761" stroke-width="3"/><path d="m241.02 287.14v-62.22" stroke="#183761" stroke-width="3"/><path d="m282.17 293.57v-62.22" stroke="#183761" stroke-width="3"/><path d="m323.31 301.63v-62.23" stroke="#183761" stroke-width="3"/><g fill-rule="nonzero"><path d="m196.28 113.93c0 8.29 6.37 15.07 14.14 15.07h140.92c7.78 0 14.14-6.78 14.14-15.07v-5.78h-169.2z" fill="#1a818b"/><path d="m196.28.17v35.93c0-8.29 6.37-15.07 14.14-15.07h140.92c7.78 0 14.14 6.78 14.14 15.07v-35.93z" fill="#183963"/><path d="m351.34 21h-140.92c-7.77 0-14.14 6.78-14.14 15.07v72h169.2v-72c0-8.26-6.36-15.07-14.14-15.07z" fill="#183963"/><circle cx="224.08" cy="32.31" fill="#fff" r="9.11"/><circle cx="224.08" cy="66.79" fill="#fff" r="9.11"/></g></g></svg>