<svg height="911" preserveAspectRatio="xMidYMid meet" viewBox="0 0 7240 9110" width="724" xmlns="http://www.w3.org/2000/svg"><g fill="#143863"><path d="m3531 9093c-50-26-76-66-76-118 0-79 77-144 152-130 48 9 99 60 108 108 19 100-95 187-184 140z"/><path d="m3507 8526c-171-48-243-268-137-414 112-155 342-143 445 22 41 67 47 168 15 244-24 56-83 116-135 138-51 21-134 25-188 10z"/><path d="m3043 7685c-18-8-42-29-53-47-19-31-20-50-20-328s1-297 20-328c38-62 37-62 595-62s557 0 595 62c19 31 20 50 20 328s-1 297-20 328c-38 62-36 62-597 62-414-1-514-3-540-15z"/><path d="m5859 7177c-44-29-74-100-65-150 11-61 45-88 217-172 90-44 166-81 167-82 6-2-206-433-212-433-4 0-79 37-169 81-179 91-223 101-273 63-45-33-67-70-71-121-8-89 2-97 315-251 300-148 332-157 390-116 19 14 82 130 216 399 163 328 189 387 189 428 1 79-11 88-314 239-301 150-327 158-390 115z"/><path d="m1280 7154c-8-3-139-66-291-141-302-149-309-154-309-236 0-39 27-102 183-419 202-412 213-428 292-428 36 0 92 24 324 140 234 116 283 144 296 169 33 65 9 155-55 199-57 38-90 31-277-62l-169-84-108 215c-59 119-106 216-104 218s80 41 175 89c194 97 208 110 208 192 0 56-19 92-66 125-26 19-75 30-99 23z"/><path d="m2670 6391c-105-33-136-74-203-272-30-90-210-624-400-1186-273-807-349-1040-358-1108-53-403 278-779 745-844 107-15 2155-15 2262 0 470 65 805 450 744 855-8 55-123 406-372 1144-198 586-378 1118-400 1184-44 129-73 172-142 209l-41 22-905 2c-498 1-916-2-930-6z"/><path d="m6620 6247c0-2-11-59-25-127l-25-122 55-61c79-86 168-223 230-352 262-545 224-1184-101-1670-87-130-171-221-326-350l-36-30 14-119c7-65 15-120 17-122 12-13 190 128 297 236 268 267 427 587 496 995 21 125 24 439 5 575-41 295-158 601-322 840-87 128-279 338-279 307z"/><path d="m523 6117c-339-359-517-819-517-1337 1-484 153-895 461-1247 89-101 333-296 350-280 9 10 32 241 25 248-4 3-37 29-74 58-250 194-448 534-522 895-102 492 35 1037 360 1427l63 76-23 118c-12 66-27 120-33 122s-46-34-90-80z"/><path d="m5950 3486c-116-26-202-95-253-204-27-59-31-78-31-152s4-93 31-152c54-115 145-185 271-208 247-44 466 175 422 422-29 156-140 268-295 297-69 13-74 13-145-3z"/><path d="m1093 3432c-97-35-161-91-211-186-25-46-27-61-27-161 0-95 3-116 23-157 38-75 96-134 170-170 62-31 74-33 167-33 91 0 105 3 158 29 276 140 270 535-11 664-76 35-194 41-269 14z"/><path d="m2840 2570c-20-20-21-28-18-673l3-652 32-67c42-90 110-160 192-201l66-32h470 470l67 33c107 53 191 158 218 274 6 26 10 294 10 675v632l-22 15c-20 14-107 16-745 16-714 0-723 0-743-20z"/><path d="m3544 827c-2-7-3-114-2-237l3-225h40 40l3 224c2 156-1 228-9 237-14 18-68 18-75 1z"/><path d="m3523 245c-89-39-98-186-13-230 16-8 50-15 75-15 84 0 132 57 122 146-5 51-27 81-74 100-40 17-69 17-110-1z"/></g><g fill="#16838d"><path d="m3531 9093c-50-26-76-66-76-118 0-79 77-144 152-130 48 9 99 60 108 108 19 100-95 187-184 140z"/><path d="m3507 8526c-171-48-243-268-137-414 112-155 342-143 445 22 41 67 47 168 15 244-24 56-83 116-135 138-51 21-134 25-188 10z"/><path d="m2670 6391c-105-33-136-74-203-272-30-90-210-624-400-1186-273-807-349-1040-358-1108-53-403 278-779 745-844 107-15 2155-15 2262 0 470 65 805 450 744 855-8 55-123 406-372 1144-198 586-378 1118-400 1184-44 129-73 172-142 209l-41 22-905 2c-498 1-916-2-930-6z"/><path d="m6895 5744c-60-7-111-13-113-13-1-1 4-14 13-31 12-22 23-30 43-30 39 0 194 19 199 24 4 4-25 67-30 65-1-1-51-7-112-15z"/><path d="m220 5691c-22-42-15-47 93-59l102-12 23 27c13 14 20 29 15 33-7 6-174 30-212 30-6 0-15-9-21-19z"/><path d="m7033 5408c-98-11-105-16-82-60 10-18 17-19 72-13 123 12 137 16 137 35 0 28-11 50-24 49-6-1-53-6-103-11z"/><path d="m87 5355c-19-47-12-51 96-62 56-6 103-10 104-9 2 2 6 16 9 33 7 35 2 36-132 49-61 5-72 4-77-11z"/><path d="m7120 5064c-98-11-101-13-98-47 2-18 8-32 13-32 6 1 52 4 103 9l93 8-3 32c-3 28-6 31-38 32-19 1-51 0-70-2z"/><path d="m15 4998c-4-16-5-32-2-34 6-7 196-28 201-23 2 2 6 17 8 34 3 29 2 30-52 36-157 19-148 19-155-13z"/><path d="m7110 4668c-47-5-85-10-86-11s-5-17-9-36l-7-33 82 7c122 11 134 16 138 53 4 36 14 34-118 20z"/><path d="m10 4619c1-52 7-56 113-67 56-5 104-8 105-7 2 2 1 17-3 33-7 35-16 38-132 48-67 5-83 4-83-7z"/><path d="m7013 4216c-56-6-104-14-105-16-9-11-28-63-26-66 8-7 224 20 235 30 19 18 28 66 12 65-8-1-60-7-116-13z"/><path d="m105 4153c3-16 10-31 14-36 9-9 229-32 237-24 3 3-1 18-10 35-14 28-19 30-116 41-139 15-133 16-125-16z"/><path d="m6786 3836c-96-11-99-12-122-45-13-19-22-36-20-38 1-2 65 4 142 12 131 14 140 17 161 43 13 15 23 30 23 35 0 9-60 7-184-7z"/><path d="m270 3801c0-5 11-23 25-39 23-28 29-29 160-42 74-7 138-10 142-6s-6 20-23 36c-26 26-39 30-124 40-52 6-114 13-137 16-25 3-43 1-43-5z"/><path d="m6650 3524c-8-1-68-8-132-15-112-11-118-13-118-34 0-12 2-24 5-27 3-2 62 2 132 9 120 13 130 16 158 43l30 30-30-1c-17-1-37-3-45-5z"/><path d="m5950 3486c-116-26-202-95-253-204-27-59-31-78-31-152s4-93 31-152c54-115 145-185 271-208 247-44 466 175 422 422-29 156-140 268-295 297-69 13-74 13-145-3z"/><path d="m530 3472c0-5 9-17 21-28 15-13 49-22 132-31 159-17 157-17 157 12s-3 30-155 45c-133 12-155 13-155 2z"/><path d="m1093 3432c-97-35-161-91-211-186-25-46-27-61-27-161 0-95 3-116 23-157 38-75 96-134 170-170 62-31 74-33 167-33 91 0 105 3 158 29 276 140 270 535-11 664-76 35-194 41-269 14z"/><path d="m2840 2570c-20-20-21-28-18-673l3-652 32-67c42-90 110-160 192-201l66-32h470 470l67 33c107 53 191 158 218 274 6 26 10 294 10 675v632l-22 15c-20 14-107 16-745 16-714 0-723 0-743-20z"/><path d="m3523 245c-89-39-98-186-13-230 16-8 50-15 75-15 84 0 132 57 122 146-5 51-27 81-74 100-40 17-69 17-110-1z"/></g><g fill="#f2f4f7"><path d="m6895 5744c-60-7-111-13-113-13-1-1 4-14 13-31 12-22 23-30 43-30 39 0 194 19 199 24 4 4-25 67-30 65-1-1-51-7-112-15z"/><path d="m220 5691c-22-42-15-47 93-59l102-12 23 27c13 14 20 29 15 33-7 6-174 30-212 30-6 0-15-9-21-19z"/><path d="m7033 5408c-98-11-105-16-82-60 10-18 17-19 72-13 123 12 137 16 137 35 0 28-11 50-24 49-6-1-53-6-103-11z"/><path d="m87 5355c-19-47-12-51 96-62 56-6 103-10 104-9 2 2 6 16 9 33 7 35 2 36-132 49-61 5-72 4-77-11z"/><path d="m7120 5064c-98-11-101-13-98-47 2-18 8-32 13-32 6 1 52 4 103 9l93 8-3 32c-3 28-6 31-38 32-19 1-51 0-70-2z"/><path d="m15 4998c-4-16-5-32-2-34 6-7 196-28 201-23 2 2 6 17 8 34 3 29 2 30-52 36-157 19-148 19-155-13z"/><path d="m7110 4668c-47-5-85-10-86-11s-5-17-9-36l-7-33 82 7c122 11 134 16 138 53 4 36 14 34-118 20z"/><path d="m10 4619c1-52 7-56 113-67 56-5 104-8 105-7 2 2 1 17-3 33-7 35-16 38-132 48-67 5-83 4-83-7z"/><path d="m2645 4339c-17-4-44-22-60-39l-30-31v-389-389l30-31c16-16 46-35 66-40 24-7 376-9 993-8 946 3 955 3 982 24 15 11 37 33 48 48 20 27 21 39 21 396s-1 369-21 396c-11 15-33 37-48 48-27 21-35 21-989 23-541 1-975-3-992-8z"/><path d="m7013 4216c-56-6-104-14-105-16-9-11-28-63-26-66 8-7 224 20 235 30 19 18 28 66 12 65-8-1-60-7-116-13z"/><path d="m105 4153c3-16 10-31 14-36 9-9 229-32 237-24 3 3-1 18-10 35-14 28-19 30-116 41-139 15-133 16-125-16z"/><path d="m6786 3836c-96-11-99-12-122-45-13-19-22-36-20-38 1-2 65 4 142 12 131 14 140 17 161 43 13 15 23 30 23 35 0 9-60 7-184-7z"/><path d="m270 3801c0-5 11-23 25-39 23-28 29-29 160-42 74-7 138-10 142-6s-6 20-23 36c-26 26-39 30-124 40-52 6-114 13-137 16-25 3-43 1-43-5z"/><path d="m6650 3524c-8-1-68-8-132-15-112-11-118-13-118-34 0-12 2-24 5-27 3-2 62 2 132 9 120 13 130 16 158 43l30 30-30-1c-17-1-37-3-45-5z"/><path d="m530 3472c0-5 9-17 21-28 15-13 49-22 132-31 159-17 157-17 157 12s-3 30-155 45c-133 12-155 13-155 2z"/><path d="m3174 1654c-93-45-56-194 47-194 29 0 77 27 90 51 6 12 11 36 11 54 0 43-16 72-52 90-36 19-57 19-96-1z"/><path d="m3884 1660c-34-13-64-59-64-97 0-27 8-43 35-70 32-32 40-35 76-30 48 6 74 28 89 72 27 80-57 157-136 125z"/></g></svg>