<svg height="5130" viewBox="0 0 5130 5130" width="5130" xmlns="http://www.w3.org/2000/svg"><g fill="none"><g fill="#143863" transform="translate(-2098)"><path d="m2664 6391c-105-33-136-74-203-272-30-90-210-624-400-1186-273-807-349-1040-358-1108-53-403 278-779 745-844 107-15 2155-15 2262 0 470 65 805 450 744 855-8 55-123 406-372 1144-198 586-378 1118-400 1184-44 129-73 172-142 209l-41 22-905 2c-498 1-916-2-930-6z"/><path d="m6614 6247c0-2-11-59-25-127l-25-122 55-61c79-86 168-223 230-352 262-545 224-1184-101-1670-87-130-171-221-326-350l-36-30 14-119c7-65 15-120 17-122 12-13 190 128 297 236 268 267 427 587 496 995 21 125 24 439 5 575-41 295-158 601-322 840-87 128-279 338-279 307z"/><path d="m5944 3486c-116-26-202-95-253-204-27-59-31-78-31-152s4-93 31-152c54-115 145-185 271-208 247-44 466 175 422 422-29 156-140 268-295 297-69 13-74 13-145-3z"/><path d="m2834 2570c-20-20-21-28-18-673l3-652 32-67c42-90 110-160 192-201l66-32h470 470l67 33c107 53 191 158 218 274 6 26 10 294 10 675v632l-22 15c-20 14-107 16-745 16-714 0-723 0-743-20z"/><path d="m3538 827c-2-7-3-114-2-237l3-225h40 40l3 224c2 156-1 228-9 237-14 18-68 18-75 1z"/><path d="m3517 245c-89-39-98-186-13-230 16-8 50-15 75-15 84 0 132 57 122 146-5 51-27 81-74 100-40 17-69 17-110-1z"/></g><g fill="#16838d" transform="translate(-2094)"><path d="m2660 6391c-105-33-136-74-203-272-30-90-210-624-400-1186-273-807-349-1040-358-1108-53-403 278-779 745-844 107-15 2155-15 2262 0 470 65 805 450 744 855-8 55-123 406-372 1144-198 586-378 1118-400 1184-44 129-73 172-142 209l-41 22-905 2c-498 1-916-2-930-6z"/><path d="m7110 5064c-98-11-101-13-98-47 2-18 8-32 13-32 6 1 52 4 103 9l93 8-3 32c-3 28-6 31-38 32-19 1-51 0-70-2z"/><path d="m7100 4668c-47-5-85-10-86-11s-5-17-9-36l-7-33 82 7c122 11 134 16 138 53 4 36 14 34-118 20z"/><path d="m7003 4216c-56-6-104-14-105-16-9-11-28-63-26-66 8-7 224 20 235 30 19 18 28 66 12 65-8-1-60-7-116-13z"/><path d="m6776 3836c-96-11-99-12-122-45-13-19-22-36-20-38 1-2 65 4 142 12 131 14 140 17 161 43 13 15 23 30 23 35 0 9-60 7-184-7z"/><path d="m6640 3524c-8-1-68-8-132-15-112-11-118-13-118-34 0-12 2-24 5-27 3-2 62 2 132 9 120 13 130 16 158 43l30 30-30-1c-17-1-37-3-45-5z"/><path d="m5940 3486c-116-26-202-95-253-204-27-59-31-78-31-152s4-93 31-152c54-115 145-185 271-208 247-44 466 175 422 422-29 156-140 268-295 297-69 13-74 13-145-3z"/><path d="m2830 2570c-20-20-21-28-18-673l3-652 32-67c42-90 110-160 192-201l66-32h470 470l67 33c107 53 191 158 218 274 6 26 10 294 10 675v632l-22 15c-20 14-107 16-745 16-714 0-723 0-743-20z"/><path d="m3513 245c-89-39-98-186-13-230 16-8 50-15 75-15 84 0 132 57 122 146-5 51-27 81-74 100-40 17-69 17-110-1z"/></g><g fill="#f2f4f7" transform="translate(-2094 1460)"><path d="m7110 3604c-98-11-101-13-98-47 2-18 8-32 13-32 6 1 52 4 103 9l93 8-3 32c-3 28-6 31-38 32-19 1-51 0-70-2z"/><path d="m7100 3208c-47-5-85-10-86-11s-5-17-9-36l-7-33 82 7c122 11 134 16 138 53 4 36 14 34-118 20z"/><path d="m2635 2879c-17-4-44-22-60-39l-30-31v-389-389l30-31c16-16 46-35 66-40 24-7 376-9 993-8 946 3 955 3 982 24 15 11 37 33 48 48 20 27 21 39 21 396s-1 369-21 396c-11 15-33 37-48 48-27 21-35 21-989 23-541 1-975-3-992-8z"/><path d="m7003 2756c-56-6-104-14-105-16-9-11-28-63-26-66 8-7 224 20 235 30 19 18 28 66 12 65-8-1-60-7-116-13z"/><path d="m6776 2376c-96-11-99-12-122-45-13-19-22-36-20-38 1-2 65 4 142 12 131 14 140 17 161 43 13 15 23 30 23 35 0 9-60 7-184-7z"/><path d="m6640 2064c-8-1-68-8-132-15-112-11-118-13-118-34 0-12 2-24 5-27 3-2 62 2 132 9 120 13 130 16 158 43l30 30-30-1c-17-1-37-3-45-5z"/><path d="m3164 194c-93-45-56-194 47-194 29 0 77 27 90 51 6 12 11 36 11 54 0 43-16 72-52 90-36 19-57 19-96-1z"/><path d="m3874 200c-34-13-64-59-64-97 0-27 8-43 35-70 32-32 40-35 76-30 48 6 74 28 89 72 27 80-57 157-136 125z"/></g></g></svg>