<svg height="829" viewBox="0 0 841 829" width="841" xmlns="http://www.w3.org/2000/svg"><g fill="none" fill-rule="evenodd"><g fill-rule="nonzero"><circle cx="518.93" cy="113.2" fill="#1a818b" r="112.87"/><path d="m572.45 43.94-30.37 47.23c7.2 0 13.61.12 20-.06 2.75-.07 3.67.89 3.5 3.56s0 5.62 0 8.8c-1.75.09-3.12.23-4.49.23-7.36 0-14.72 0-22.08 0-5.72 0-7.29 1.35-8.05 6.92-.8 5.8-.46 6.2 5.25 6.2 8.52 0 17.05.09 25.57-.05 2.79 0 3.85.77 3.87 3.71 0 9.21.16 9.21-9.19 9.21h-25.66v45h-16.39c-.09-1.28-.25-2.63-.25-4 0-12-.16-24 .08-36 .07-3.81-.78-5.21-4.88-5-8.51.33-17 .11-25.56.08-1.38 0-2.75-.21-4-.31-1.81-12.54-1.81-12.53 9.91-12.55 7.74 0 15.483333-.033333 23.23-.1.23 0 .46-.19 1.38-.61-.138917-2.806497-.473058-5.599917-1-8.36-.66-2.7-2.5-4.18-5.69-4.1-7.87.19-15.75.06-23.63.06h-4.39v-12.3h23.39l-30.51-47.5c6.69 0 12.31-.19 17.9.16 1.22.07 2.6 1.92 3.42 3.25 8.69 14.18 17.29 28.41 25.92 42.62.72 1.19 1.51 2.33 2.69 4.15 1.11-1.66 2-2.83 2.71-4.07 8.64-14.21 17.35-28.37 25.83-42.68 1.62-2.73 3.42-3.7 6.49-3.54 4.6.22 9.22.05 15 .05z" fill="#fff"/><circle cx="546.57" cy="442.38" fill="#1a818b" r="123.69" stroke="#f9f9fa" stroke-width="2"/><path d="m565.55 374c-1.53-.45-3.06-.88-4.57-1.36-13-4.09-25.07-1.64-36.24 5.62-9.46 6.15-12.51 15.69-8 27.57 3.39 8.89 8.15 17.27 12.51 26.31 1.5-.6 3-1.09 4.38-1.76 7.72-3.68 15.44-7.34 23.08-11.15 2.56-1.28 4-1.29 5.5 1.65 5.13 10.27 5.24 10.22-5.12 15.21l-21 10.1 21.53 44.69c1.47-.72 2.88-1.4 4.29-2.07 15.8-7.61 31.63-15.14 47.35-22.9 3.46-1.71 5.12-1.18 6.79 2.32 5 10.62 5.17 10.56-5.23 15.57-25.87 12.47-51.79 24.86-77.58 37.5-3.76 1.84-5.27 1.14-6.95-2.46-4.9-10.5-5-10.44 5.45-15.49l7.85-3.79-21.54-44.68c-4.26 2.06-8.53 4-12.64 6.15-2.72 1.46-4.09.87-5.47-1.87-5.09-10.1-5.16-10 5-15 8.13-4 7-2.56 3.57-10-4.65-10.13-10.46-19.78-12.12-31.11-2.63-18 5.36-33.74 21.26-42.35 10.621571-5.819948 22.580649-8.760592 34.69-8.53 2.82 0 4.57.74 5.78 3.52 2.57 5.88 5.51 11.59 8.29 17.37z" fill="#fff" stroke="#f9f9fa" stroke-width="2"/><circle cx="658.48" cy="251.41" fill="#1a818b" r="123.82" stroke="#f9f9fa" stroke-width="4"/><path d="m650.9 337.62v-15.53c-7.25-1.76-14.14-3-20.78-5.11-13.91-4.37-13.85-4.54-13.85-18.67v-11.58c5.76 3.69 10.65 7.53 16.12 10.11s11.55 3.93 18.35 6.14v-11.6c0-11.37-.15-22.74.09-34.11.07-3.55-1.1-5.2-4.28-6.85-6.77-3.5-13.72-7.06-19.6-11.83-13.44-10.89-17.34-25.39-12.59-41.81 4.71-16.26 16.81-24.18 32.86-26.93.94-.16 1.88-.27 3.36-.47v-16.83c4.47 0 8.41-.2 12.31.15.88.08 2.18 2 2.25 3.18.27 4.3.11 8.63.11 12.23 8 2.56 15.47 5 23 7.39 5.89 1.89 8.79 5.39 7.92 12.06-.66 5-.13 10.16-.13 16.58-9.44-7.9-18.06-15.32-30.78-15.95v5.17c0 11.53.34 23.07-.15 34.58-.22 5.06 1.71 7.18 6 9.22 6.325214 3.032684 12.380459 6.598923 18.1 10.66 13.14 9.42 17.77 22.68 15.36 38.34-2.35 15.26-11.38 25.36-25.65 30.8-4.31 1.64-8.83 2.72-13.63 4.17v16.49zm14.6-80.12v43.82c9.27.25 17.07-6.34 18.84-15.78 2.42-12.9-4.6-23.46-18.84-28.04zm-15.08-69c-10.71.6-16.85 5.75-17.79 14.68-1.29 12.26 6 22.84 17.79 25.71z" fill="#fff" stroke="#f9f9fa" stroke-width="4"/><circle cx="439.38" cy="264.86" fill="#1a818b" r="155.94" stroke="#f4f4f5" stroke-width="5"/><path d="m353.59 324.44-6.39-17.92c-.146566-.408292-.123257-.85831.064707-1.249275.187964-.390966.524878-.690212.935293-.830725l13.17-4.69c.408752-.142784.7439-.442328.931505-.832546.187604-.390217.212248-.839042.068495-1.247454l-3.9-10.93c-.142784-.408752-.442328-.7439-.832546-.931505-.390217-.187604-.839042-.212248-1.247454-.068495l-13.12 4.68c-.407047.143441-.854504.118532-1.243115-.069203-.38861-.187734-.686246-.522773-.826885-.930797l-6.42-18c-.143441-.407047-.118532-.854504.069203-1.243115.187734-.38861.522773-.686246.930797-.826885l.59-.21c5.34-1.91 10.66-3.85 16-5.68 1.26-.43 1.69-1 1.53-2.31-1.167919-9.524031-.79651-19.173914 1.1-28.58 4.5-21.87 14.65-40.5 31.94-54.95 12.29-10.27 26.4-16.87 41.88-20.74 11.311117-2.901936 22.979695-4.168137 34.65-3.76 1.44.06 1.95.47 2.1 2 1.07 11 2.24 22.05 3.37 33.07.045006.450508-.101754.899146-.404313 1.235956-.302559.336811-.732949.530662-1.185687.534044-2.9 0-5.69 0-8.47.15-10.49.43-20.67 2.29-30.27 6.67-13.61 6.22-22.73 16.49-27.07 30.88-1.342033 5.376768-1.804686 10.935352-1.37 16.46.042171.503861.315781.959624.740654 1.233736s.952898.335533 1.429346.166264l70.11-25c.407047-.143441.854504-.118532 1.243115.069203.38861.187734.686246.522773.826885.930797l6.4 17.94c.143753.408412.119109.857237-.068495 1.247454-.187605.390218-.522753.689762-.931505.832546l-75.2 26.81c-.408752.142784-.7439.442328-.931505.832546-.187604.390217-.212248.839042-.068495 1.247454l3.92 11c.140639.408024.438275.743063.826885.930797.388611.187735.836068.212644 1.243115.069203l75.2-26.81c.408412-.143753.857237-.119109 1.247454.068495.390218.187605.689762.522753.832546.931505l6.4 17.95c.143753.408412.119109.857237-.068495 1.247454-.187605.390218-.522753.689762-.931505.832546l-70.79 25.24c-.469293.170053-.835596.544576-.995193 1.017528-.159597.472951-.095113.992842.175193 1.412472 7.72 11.71 18.06 19.14 32.26 20.74 11.89 1.35 23.07-1.31 33.8-6.27 8.557697-3.934064 16.42528-9.22189 23.3-15.66.359281-.329664.846625-.482359 1.329784-.416649.48316.06571.912025.343009 1.170216.756649 1.23 2 2.44 3.92 3.64 5.85 4.42 7.11 8.81 14.23 13.29 21.31.354775.403102.522409.937506.461435 1.471021-.060973.533516-.344858 1.016317-.781435 1.328979-8.913427 9.189301-19.415911 16.690108-31 22.14-12.955036 6.302357-27.074847 9.85359-41.47 10.43-19.50406.998178-38.797071-4.429299-54.92-15.45-11.292589-7.624498-20.656149-17.772064-27.35-29.64-.8-1.4-1.51-1.77-3.12-1.15-5.07 2-10.22 3.69-15.34 5.52l-.39.14c-.842218.300673-1.768766-.137982-2.07-.98z" fill="#fff" stroke="#f4f4f5" stroke-width="5"/><path d="m837.72 321.85c.010584-1.598753-.146948-3.19419-.47-4.76-2.469119-12.979647-13.787722-22.390856-27-22.45h-534.89c-2.784962-.001845-5.553763.423087-8.21 1.26l-23.08-83.15c-3.943387-12.503108-15.157809-21.303094-28.24-22.16h-173.47c-15.1751163.043938-27.4660616 12.334884-27.51 27.51v12.31c.0439384 15.175116 12.3348837 27.466062 27.51 27.51h149.07l114.12 411.24c1.887284 6.778593 6.30915 12.571774 12.35 16.18 5.336685 5.631138 12.751787 8.8235 20.51 8.83h422.29c15.640651-.049434 28.306082-12.719332 28.35-28.36-.049375-15.638398-12.71162-28.30511-28.35-28.36h-398.76l-10.26-37h409.86c6.570001.0025 12.921032-2.36183 17.89-6.66 6.199925-3.424536 10.54048-9.445544 11.83-16.41l44.74-243.89c1.166295-3.080045 1.762667-6.346535 1.76-9.64v-1.7c-.03-.1-.04-.15-.04-.3zm-555.18 29.51h92.52l4 34.23h-87.06zm31 111.75-13.17-47.47h82.17l5.53 47.47zm22.39 80.66-14.05-50.61h69.69l5.9 50.61zm181.77 0h-72.43l-5.89-50.61h79.55zm1.94-80.66h-83.76l-5.54-47.47h90.46zm1.87-77.52h-94.67l-4-34.23h99.5zm129.09 158.18h-85.4l1.22-50.61h88.37zm6.68-80.66h-90.14l1.14-47.47h92.94zm6.42-77.52h-94.7l.8-33.23c0-.34 0-.67 0-1h96.76zm77.37 158.18h-42.83l4.19-50.61h47.92zm14.78-80.66h-50.93l3.93-47.47h55.71zm14.21-77.52h-58.72l2.84-34.23h62.16z" fill="#183963" stroke="#183963" stroke-width="5"/><circle cx="419.2" cy="763.88" fill="#1a818b" r="64.76"/><circle cx="419.2" cy="763.88" fill="#fff" r="40.18"/><circle cx="680.61" cy="763.88" fill="#1a818b" r="64.76"/><circle cx="680.61" cy="763.88" fill="#fff" r="40.18"/><path d="m162.58 186.06v78.8h-135.66c-14.6670166-.04393-26.54607004-11.922983-26.59-26.59v-25.62c.04392996-14.667017 11.9229834-26.54607 26.59-26.59z" fill="#1a818b"/></g><path d="m162.58 186.06v78.8" stroke="#183963" stroke-width="4"/></g></svg>