<svg height="610" viewBox="0 0 749 610" width="749" xmlns="http://www.w3.org/2000/svg"><g fill="none" transform="translate(-4)"><rect fill="#183963" height="410.07" rx="12" transform="matrix(.48160072 .87639075 -.87639075 .48160072 402.343592 11.298021)" width="47.68" x="167.781743" y="140.709201"/><path d="m508.8 9.13 13.86 25.22-165.66 91.02-13.86-25.22c-3.85-7-2.54-15.17 2.89-18.16l145.87-80.15c5.46-2.99 13.1.29 16.9 7.29z" fill="#183963"/><path d="m401.485926 89.664884h189v184.67h-189z" fill="#1a818b" transform="matrix(.87639075 -.48160072 .48160072 .87639075 -26.342827 261.36405)"/><g fill="#183963"><path d="m645.66 275.11-145.86 80.15c-5.44 3-13-.29-16.88-7.29l-11-20.1 165.64-91 11 20.1c3.84 7.03 2.54 15.15-2.9 18.14z"/><rect height="53.71" rx="12" width="274.22" x="454.94" y="465.09"/><rect height="74.92" rx="12" width="320.49" x="431.81" y="534.35"/></g></g></svg>