<svg id="Layer_1" data-name="Layer 1" xmlns="http://www.w3.org/2000/svg" xmlns:xlink="http://www.w3.org/1999/xlink" viewBox="0 0 88 31"><defs><style>.cls-1,.cls-7{fill:#727271;}.cls-1,.cls-3,.cls-4{clip-rule:evenodd;}.cls-2,.cls-4{fill:none;}.cls-15,.cls-3{fill:#c8c8c8;}.cls-5{fill:#d8e5f0;}.cls-11,.cls-13,.cls-14,.cls-15,.cls-17,.cls-18,.cls-20,.cls-23,.cls-25,.cls-5,.cls-6,.cls-7,.cls-9{fill-rule:evenodd;}.cls-6{fill:#fff;}.cls-8{clip-path:url(#clip-path);}.cls-9{fill:#6a6c6e;}.cls-10{clip-path:url(#clip-path-2);}.cls-11{fill:#3b3b3a;}.cls-12{clip-path:url(#clip-path-3);}.cls-13{fill:#3a3a3a;}.cls-14{fill:#dadada;}.cls-16{clip-path:url(#clip-path-4);}.cls-17{fill:#a6afbc;}.cls-18{fill:#5c5c5b;}.cls-19{clip-path:url(#clip-path-5);}.cls-20{fill:#57585a;}.cls-21{clip-path:url(#clip-path-6);}.cls-22{clip-path:url(#clip-path-7);}.cls-23{fill:#333332;}.cls-24{clip-path:url(#clip-path-8);}.cls-25{fill:#323232;}.cls-26{clip-path:url(#clip-path-9);}.cls-27{fill:#1d1d1b;}.cls-28{fill:#0b5196;}.cls-29{fill:#144072;}</style><clipPath id="clip-path" transform="translate(-262 -381)"><polygon class="cls-1" points="262 411 350 411 350 412 262 412 262 411 262 411"/></clipPath><clipPath id="clip-path-2" transform="translate(-262 -381)"><polygon class="cls-1" points="349 381 350 381 350 411 349 411 349 381 349 381"/></clipPath><clipPath id="clip-path-3" transform="translate(-262 -381)"><polygon class="cls-2" points="349 411 350 411 350 411 349 411 349 411"/></clipPath><clipPath id="clip-path-4" transform="translate(-262 -381)"><polygon class="cls-3" points="264.16 410 349.16 410 349.16 411 264.16 411 264.16 410 264.16 410"/></clipPath><clipPath id="clip-path-5" transform="translate(-262 -381)"><rect class="cls-2" x="264.16" y="411" width="85"/></clipPath><clipPath id="clip-path-6" transform="translate(-262 -381)"><polygon class="cls-4" points="264.16 410 349.16 410 349.16 411 264.16 411 264.16 410 264.16 410"/></clipPath><clipPath id="clip-path-7" transform="translate(-262 -381)"><rect class="cls-2" x="349" y="410" width="0.16" height="1"/></clipPath><clipPath id="clip-path-8" transform="translate(-262 -381)"><polygon class="cls-2" points="349 411 349.16 411 349.16 411 349 411 349 411"/></clipPath><clipPath id="clip-path-9" transform="translate(-262 -381)"><polygon class="cls-3" points="347.96 381 348.96 381 348.96 410 347.96 410 347.96 381 347.96 381"/></clipPath></defs><title>wcag2.1AA-blue-v</title><polygon class="cls-5" points="0 0 88 0 88 31 0 31 0 0 0 0"/><polygon class="cls-6" points="0.37 0 30.37 0 30.37 31 0.37 31 0.37 0 0.37 0"/><polygon class="cls-7" points="0 30 88 30 88 31 0 31 0 30 0 30"/><g class="cls-8"><polygon class="cls-9" points="0 0 88 0 88 31 0 31 0 0 0 0"/><polygon class="cls-7" points="0.37 0 30.37 0 30.37 31 0.37 31 0.37 0 0.37 0"/></g><polygon class="cls-7" points="87 0 88 0 88 30 87 30 87 0 87 0"/><g class="cls-10"><polygon class="cls-9" points="0 0 88 0 88 31 0 31 0 0 0 0"/><polygon class="cls-11" points="0 30 88 30 88 31 0 31 0 30 0 30"/></g><g class="cls-12"><polygon class="cls-13" points="0 0 88 0 88 31 0 31 0 0 0 0"/></g><polygon class="cls-14" points="0 0 1 0 1 31 0 31 0 0 0 0"/><polygon class="cls-15" points="2.16 29 87.16 29 87.16 30 2.16 30 2.16 29 2.16 29"/><g class="cls-16"><polygon class="cls-17" points="0 0 88 0 88 31 0 31 0 0 0 0"/><polygon class="cls-15" points="0.37 0 30.37 0 30.37 31 0.37 31 0.37 0 0.37 0"/><polygon class="cls-18" points="0 30 88 30 88 31 0 31 0 30 0 30"/></g><g class="cls-19"><polygon class="cls-20" points="0 0 88 0 88 31 0 31 0 0 0 0"/><polygon class="cls-18" points="0.37 0 30.37 0 30.37 31 0.37 31 0.37 0 0.37 0"/></g><g class="cls-21"><polygon class="cls-18" points="87 0 88 0 88 30 87 30 87 0 87 0"/></g><g class="cls-22"><polygon class="cls-20" points="0 0 88 0 88 31 0 31 0 0 0 0"/><polygon class="cls-23" points="0 30 88 30 88 31 0 31 0 30 0 30"/></g><g class="cls-24"><polygon class="cls-25" points="0 0 88 0 88 31 0 31 0 0 0 0"/></g><polygon class="cls-15" points="85.96 0 86.96 0 86.96 29 85.96 29 85.96 0 85.96 0"/><g class="cls-26"><polygon class="cls-17" points="0 0 88 0 88 31 0 31 0 0 0 0"/></g><polygon class="cls-14" points="0 0 88 0 88 1 0 1 0 0 0 0"/><path class="cls-27" d="M288.71,390.83l.27,1.64-1,1.83a3.52,3.52,0,0,0-1-1.21,1.53,1.53,0,0,0-1.37-.33,2.89,2.89,0,0,0-1.77,1.93,6.61,6.61,0,0,0-.42,2.29,5.18,5.18,0,0,0,.11,1.34,6,6,0,0,1-.58-2.65,6.64,6.64,0,0,1,.7-3.14,2.5,2.5,0,0,1,1.74-1.48,2,2,0,0,1,1.5.56,4.76,4.76,0,0,1,.8,1.09l.94-1.88Z" transform="translate(-262 -381)"/><path class="cls-27" d="M288.83,400.11a8.1,8.1,0,0,1-.69,1,4.21,4.21,0,0,1-1.32,1.06,2.46,2.46,0,0,1-1.46.25,2.88,2.88,0,0,1-1.29-.53,5.07,5.07,0,0,1-.94-.93c-.27-.38-.69-1.14-.69-1.14s.24.76.38,1.09a7.08,7.08,0,0,0,.72,1.25,3.41,3.41,0,0,0,2,1.44,2.6,2.6,0,0,0,1.89-.39,5.26,5.26,0,0,0,.77-.66,5.87,5.87,0,0,0,.6-.78c.09-.14.24-.44.24-.44l-.24-1.27Z" transform="translate(-262 -381)"/><polygon class="cls-28" points="9.25 9.9 11.55 17.72 13.85 9.9 15.52 9.9 11.71 22.75 11.55 22.75 9.17 14.79 6.79 22.75 6.63 22.75 2.82 9.9 4.49 9.9 6.79 17.72 8.35 12.45 7.58 9.9 9.25 9.9 9.25 9.9"/><path class="cls-28" d="M282.25,399.63a4.63,4.63,0,0,1-.93,2.94A3,3,0,0,1,277,403a4.16,4.16,0,0,1-1.22-1.91l1.3-.54a3,3,0,0,0,.75,1.15,1.6,1.6,0,0,0,1.1.42,1.33,1.33,0,0,0,1.13-.75,3.35,3.35,0,0,0,.46-1.79,2.87,2.87,0,0,0-.49-1.79,2.12,2.12,0,0,0-1.79-.75h-.63v-.76l2.22-3.84h-2.68l-.75,1.27h-.48V390.9h6.19v.78l-2.35,4a3.28,3.28,0,0,1,1.87,1.44,4.66,4.66,0,0,1,.63,2.46Z" transform="translate(-262 -381)"/><path class="cls-27" d="M313.39,395.73H311.6l-1-3.89q-.06-.21-.19-.86t-.15-.87q0,.27-.15.88t-.19.86l-1,3.88h-1.78l-1.89-7.41h1.54l.95,4q.25,1.12.36,1.94,0-.29.14-.89c.07-.4.14-.72.2-.94l1.08-4.15H311l1.08,4.15q.07.28.18.85t.16,1q.05-.4.16-1t.2-1l.94-4h1.55Z" transform="translate(-262 -381)"/><path class="cls-27" d="M320.33,395.73l-.54-1.76h-2.7l-.54,1.76h-1.69l2.61-7.44h1.92l2.62,7.44Zm-.91-3.08-.84-2.71c-.06-.21-.11-.37-.13-.5q-.17.65-1,3.21Z" transform="translate(-262 -381)"/><path class="cls-27" d="M326.46,395.73h-3.37v-.89l.9-.42v-4.79l-.9-.42v-.89h3.37v.89l-.9.42v4.79l.9.42Z" transform="translate(-262 -381)"/><path class="cls-27" d="M328.07,393.28V392h2.72v1.27Z" transform="translate(-262 -381)"/><path class="cls-29" d="M336.58,395.73,336,394h-2.7l-.54,1.76h-1.69l2.61-7.44h1.92l2.62,7.44Zm-.91-3.08-.84-2.71c-.06-.21-.11-.37-.13-.5q-.17.65-1,3.21Z" transform="translate(-262 -381)"/><path class="cls-29" d="M344.17,395.73l-.54-1.76h-2.7l-.54,1.76H338.7l2.61-7.44h1.92l2.62,7.44Zm-.91-3.08-.84-2.71c-.06-.21-.11-.37-.13-.5q-.17.65-1,3.21Z" transform="translate(-262 -381)"/><path class="cls-27" d="M309.28,407.36h-1.72l-1-3.75c0-.13-.1-.41-.18-.83s-.14-.7-.15-.84q0,.26-.15.85t-.18.83l-1,3.74h-1.72l-1.82-7.14h1.49l.91,3.9q.24,1.08.35,1.87,0-.28.13-.86t.2-.91l1-4H307l1,4c0,.18.1.45.17.82s.12.68.16.95q0-.38.16-.95t.2-.92l.91-3.9h1.49Z" transform="translate(-262 -381)"/><path class="cls-27" d="M314.57,401.38a1.54,1.54,0,0,0-1.32.64,3,3,0,0,0-.47,1.79q0,2.39,1.79,2.39a5.65,5.65,0,0,0,1.82-.38v1.27a5.06,5.06,0,0,1-2,.37,3,3,0,0,1-2.38-.94,4,4,0,0,1-.83-2.71,4.43,4.43,0,0,1,.41-2,2.93,2.93,0,0,1,1.17-1.28,3.44,3.44,0,0,1,1.78-.45,4.81,4.81,0,0,1,2.09.5l-.49,1.23a8.1,8.1,0,0,0-.81-.33A2.42,2.42,0,0,0,314.57,401.38Z" transform="translate(-262 -381)"/><path class="cls-27" d="M322.14,407.36l-.52-1.7H319l-.52,1.7h-1.63l2.52-7.17h1.85l2.53,7.17Zm-.88-3-.81-2.61c-.06-.2-.1-.36-.13-.48q-.16.63-.92,3.09Z" transform="translate(-262 -381)"/><path class="cls-27" d="M326.88,403.35h2.83v3.7a8,8,0,0,1-1.3.32,8.53,8.53,0,0,1-1.24.09,3.15,3.15,0,0,1-2.47-.95,4,4,0,0,1-.85-2.73,3.6,3.6,0,0,1,1-2.7,3.76,3.76,0,0,1,2.74-1,5.31,5.31,0,0,1,2.12.44l-.5,1.21a3.6,3.6,0,0,0-1.63-.39A2,2,0,0,0,326,402a2.55,2.55,0,0,0-.59,1.77,2.85,2.85,0,0,0,.48,1.78,1.65,1.65,0,0,0,1.38.61,4.88,4.88,0,0,0,1-.1v-1.49h-1.35Z" transform="translate(-262 -381)"/><path class="cls-27" d="M339.5,407.36h-4.79v-1l1.68-1.81.58-.63a5.33,5.33,0,0,0,.44-.56,2.52,2.52,0,0,0,.29-.56,1.78,1.78,0,0,0,.1-.61.72.72,0,0,0-.22-.56.83.83,0,0,0-.58-.2,1.55,1.55,0,0,0-.74.19,3.82,3.82,0,0,0-.75.54l-.82-1c.15-.13.3-.26.46-.38a3.09,3.09,0,0,1,1.16-.55,3.21,3.21,0,0,1,.78-.09,2.81,2.81,0,0,1,.92.14,2,2,0,0,1,.7.4,1.75,1.75,0,0,1,.44.63,2.17,2.17,0,0,1,.15.83,2.23,2.23,0,0,1-.15.8,3.62,3.62,0,0,1-.4.75,6.84,6.84,0,0,1-.59.73q-.33.36-.71.74l-.86.86v.07h2.91Z" transform="translate(-262 -381)"/><path class="cls-27" d="M341,406.66a1,1,0,0,1,.07-.39.65.65,0,0,1,.18-.26.74.74,0,0,1,.27-.14,1.24,1.24,0,0,1,.34,0,1.18,1.18,0,0,1,.33,0,.74.74,0,0,1,.27.14.67.67,0,0,1,.19.26,1,1,0,0,1,.07.39.93.93,0,0,1-.07.38.71.71,0,0,1-.19.26.73.73,0,0,1-.27.15,1.14,1.14,0,0,1-.33,0,1.21,1.21,0,0,1-.34,0,.73.73,0,0,1-.27-.15.69.69,0,0,1-.18-.26A1,1,0,0,1,341,406.66Z" transform="translate(-262 -381)"/><path class="cls-27" d="M345.86,407.36h-1.51v-4.13c0-.08,0-.19,0-.3s0-.24,0-.37v-.75l-.08.09-.13.13-.15.14-.15.13L343,403l-.73-.91,2.3-1.83h1.24Z" transform="translate(-262 -381)"/></svg>
